<svg xmlns="http://www.w3.org/2000/svg" viewBox="0 0 30.86 38.49"><g id="Слой_2" data-name="Слой 2"><g id="Layer_1" data-name="Layer 1"><path d="M15.43 1a3.68 3.68 0 0 0-1 .15L1.33 5a.46.46 0 0 0-.33.44v10.82a22.88 22.88 0 0 0 14.25 21.19.43.43 0 0 0 .35 0 22.76 22.76 0 0 0 10.27-8.28 22.71 22.71 0 0 0 4-12.91V5.44a.47.47 0 0 0-.34-.44L16.46 1.15A3.62 3.62 0 0 0 15.43 1z" stroke-width="2" stroke="#8faddb" fill="none" stroke-miterlimit="10"/><path d="M15.43 7.74a2.05 2.05 0 0 0-.65.1l-8.24 2.43a.29.29 0 0 0-.21.27v6.82a14.44 14.44 0 0 0 9 13.36.28.28 0 0 0 .22 0 14.41 14.41 0 0 0 9-13.36v-6.82a.28.28 0 0 0-.2-.27l-8.27-2.43a2.05 2.05 0 0 0-.65-.1z" stroke="#fff" fill="none" stroke-miterlimit="10"/><path d="M15.43 7.74a2.05 2.05 0 0 0-.65.1l-8.24 2.43a.29.29 0 0 0-.21.27v6.82a14.44 14.44 0 0 0 9 13.36.28.28 0 0 0 .22 0 14.41 14.41 0 0 0 9-13.36v-6.82a.28.28 0 0 0-.2-.27l-8.27-2.43a2.05 2.05 0 0 0-.65-.1z" fill="#c6daef"/><path d="M15.43 7.74a2.05 2.05 0 0 0-.65.1l-8.24 2.43a.29.29 0 0 0-.21.27v6.82a14.44 14.44 0 0 0 9 13.36.28.28 0 0 0 .22 0 14.41 14.41 0 0 0 9-13.36v-6.82a.28.28 0 0 0-.2-.27l-8.27-2.43a2.05 2.05 0 0 0-.65-.1z" stroke="#8faddb" fill="none" stroke-miterlimit="10"/></g></g></svg>