<svg xmlns="http://www.w3.org/2000/svg" viewBox="0 0 45.38 45.38"><defs><style>.cls-1{fill:#cab0b8;fill-rule:evenodd}</style></defs><g id="Layer_2" data-name="Layer 2"><g id="Layer_1-2" data-name="Layer 1"><path class="cls-1" d="M34 11.35a16 16 0 0 1-22.68 0 16 16 0 0 1 0 22.68A16 16 0 0 1 34 34a16 16 0 0 1 0-22.65z"/><path class="cls-1" d="M11.35 11.35L22.69 0l11.34 11.35 11.35 11.34L22.69 0 0 22.69l11.35-11.34zm22.68 22.69L22.69 45.38l22.69-22.69-11.35 11.35zm-22.68 0L0 22.69l22.69 22.69-11.34-11.34z"/></g></g></svg>