<svg xmlns="http://www.w3.org/2000/svg" viewBox="0 0 42.1 32.31"><defs><style>.cls-1{fill:#e5cdc1}.cls-2{fill:none;stroke:#f2b592;stroke-miterlimit:10}</style></defs><g id="Слой_2" data-name="Слой 2"><g id="Layer_1" data-name="Layer 1"><path class="cls-1" d="M1.58 1.51l4.13 14.92A3.79 3.79 0 0 0 9.15 19h5.72c.58-3.43 3.13-6 6.18-6s5.59 2.58 6.18 6H33a3.83 3.83 0 0 0 3.48-2.73l4.09-14.8A3.36 3.36 0 0 0 38.8 1H3.3a3.36 3.36 0 0 0-1.72.51z"/><path class="cls-2" d="M1.58 1.51l4.13 14.92A3.79 3.79 0 0 0 9.15 19h5.72c.58-3.43 3.13-6 6.18-6s5.59 2.58 6.18 6H33a3.83 3.83 0 0 0 3.48-2.73l4.09-14.8A3.36 3.36 0 0 0 38.8 1H3.3a3.36 3.36 0 0 0-1.72.51z"/><path class="cls-1" d="M17.38 19.54a3.67 3.67 0 1 0 3.67-3.67 3.68 3.68 0 0 0-3.67 3.67z"/><path class="cls-2" d="M17.38 19.54a3.67 3.67 0 1 0 3.67-3.67 3.68 3.68 0 0 0-3.67 3.67z"/><path d="M2.08 1H40a1.08 1.08 0 0 1 1.1 1.08v20.44a8.79 8.79 0 0 1-8.79 8.79H9.79A8.79 8.79 0 0 1 1 22.52V2.08A1.08 1.08 0 0 1 2.08 1z" stroke-width="2" fill="none" stroke="#f2b592" stroke-miterlimit="10"/></g></g></svg>