<svg xmlns="http://www.w3.org/2000/svg" viewBox="0 0 28.64 51.61"><g id="Слой_2" data-name="Слой 2"><g id="Layer_1" data-name="Layer 1"><path d="M24 16.2V11a9.89 9.89 0 0 0-8.76-10 9.68 9.68 0 0 0-10.57 9.65v5.55C3.29 17.72 1 20.87 1 23v5.67c0 2.1 2.29 5.24 3.67 6.77.06.06 0 .24 0 .33v4.92a9.85 9.85 0 0 0 8.69 9.9A9.68 9.68 0 0 0 24 41v-5.09c0-.13-.09-.41 0-.5 1.38-1.53 3.67-4.67 3.67-6.77V23c-.03-2.13-2.32-5.28-3.67-6.8z" stroke-width="2" fill="none" stroke="#f2b592" stroke-miterlimit="10"/><path d="M18.64 21.5V19A4.32 4.32 0 1 0 10 19v2.49a5 5 0 0 0-.73 3v2.54a5 5 0 0 0 .73 3v2.57a4.32 4.32 0 0 0 8.64 0v-2.49a5 5 0 0 0 .73-3v-2.58a4.93 4.93 0 0 0-.73-3.03z" fill="#e5cdc1"/><path d="M18.64 21.5V19A4.32 4.32 0 1 0 10 19v2.49a5 5 0 0 0-.73 3v2.54a5 5 0 0 0 .73 3v2.57a4.32 4.32 0 0 0 8.64 0v-2.49a5 5 0 0 0 .73-3v-2.58a4.93 4.93 0 0 0-.73-3.03z" fill="none" stroke="#f2b592" stroke-miterlimit="10"/></g></g></svg>