<svg xmlns="http://www.w3.org/2000/svg" viewBox="0 0 51.52 26.89"><g id="Layer_2" data-name="Layer 2"><g id="Layer_1-2" data-name="Layer 1"><path d="M28 3.94l1-.57v1.27L27.89 4zm-5.48-.58l1 .57.11.06-1.11.64z" stroke="#ded0d7" fill="none" stroke-miterlimit="10" stroke-width="2"/><path d="M7.71 11.52c-1.81-.63-2-1.63-2-1.69 1.57.39 3.09.84 4.57 1.35a2.63 2.63 0 0 1-2.58.34zm4.42 1.65c-1.24-.63-1.13-1.43-1.13-1.49a28.37 28.37 0 0 1 3 1.62 1.91 1.91 0 0 1-1.83-.13zm3.7 2.83a1.74 1.74 0 0 1-.66-1.76 24.07 24.07 0 0 1 2.47 2.36 1.87 1.87 0 0 1-1.81-.6zm2.8 3.45a1.76 1.76 0 0 1 0-1.54 14.48 14.48 0 0 1 1.28 2.47 1.67 1.67 0 0 1-1.27-.93zm16.94-3.62c-.83.68-1.33.47-1.4.46a19.5 19.5 0 0 1 1.91-1.83 1.62 1.62 0 0 1-.51 1.36zm-2.65 3.53c-.61.89-1.15.83-1.21.84A19.72 19.72 0 0 1 33 17.89a1.65 1.65 0 0 1-.11 1.46zm6.64-5.91a3.09 3.09 0 0 1-2.63.18 43.3 43.3 0 0 1 4.19-2.32 2.85 2.85 0 0 1-1.56 2.13zm4.22-2a2.88 2.88 0 0 1-2.26-.3c1.3-.45 2.63-.84 4-1.18a2.7 2.7 0 0 1-1.74 1.47zm4.63-.83a3.18 3.18 0 0 1-2.54-.9c1.58-.22 3.2-.37 4.84-.45a3.17 3.17 0 0 1-2.3 1.34z" fill="#ded0d7"/><path d="M50 7.47a25.36 25.36 0 0 0-14.72 4.92c-4.21 3.22-6.54 7.54-6.55 12.14-.1 1.43-3 1.35-3 1.35s-2.79.14-3-1.35c0-4.61-2.34-8.92-6.56-12.14A25.31 25.31 0 0 0 1.52 7.47a10.77 10.77 0 0 1-.1-6.26A88.8 88.8 0 0 0 20.39 4v2.48a1.13 1.13 0 0 0 .54.93 1 1 0 0 0 1.06 0l3.77-2.18 3.77 2.18a1.2 1.2 0 0 0 1.07 0 1.12 1.12 0 0 0 .53-.93V4a88.8 88.8 0 0 0 19-2.75A10.78 10.78 0 0 1 50 7.47z" stroke="#c9b6c1" fill="none" stroke-miterlimit="10" stroke-width="2"/></g></g></svg>