<svg xmlns="http://www.w3.org/2000/svg" viewBox="0 0 66.12 38.49"><defs><style>.cls-1{fill:#b2b2d3}.cls-2{fill:none;stroke-miterlimit:10;stroke:#616098}</style></defs><g id="Слой_2" data-name="Слой 2"><g id="Layer_1" data-name="Layer 1"><path class="cls-1" d="M51.69 6.49a12.18 12.18 0 0 1 1.67 3.25c1 3 .64 6.61-1.09 10.72a34.5 34.5 0 0 1-1.64 3.34l4.67-1.57a5.36 5.36 0 0 0 3.37-6.78A5.36 5.36 0 0 0 62 8.67a5.37 5.37 0 0 0 3.34-6.77L51.69 6.49z"/><path class="cls-2" d="M51.69 6.49a12.18 12.18 0 0 1 1.67 3.25c1 3 .64 6.61-1.09 10.72a34.5 34.5 0 0 1-1.64 3.34l4.67-1.57a5.36 5.36 0 0 0 3.37-6.78A5.36 5.36 0 0 0 62 8.67a5.37 5.37 0 0 0 3.34-6.77L51.69 6.49z"/><path class="cls-1" d="M14.44 6.49a11.92 11.92 0 0 0-1.68 3.25c-1 3-.64 6.61 1.09 10.72a34.5 34.5 0 0 0 1.64 3.34l-4.67-1.57a5.36 5.36 0 0 1-3.37-6.78 5.36 5.36 0 0 1-3.33-6.78A5.37 5.37 0 0 1 .78 1.9l13.66 4.59z"/><path class="cls-2" d="M14.44 6.49a11.92 11.92 0 0 0-1.68 3.25c-1 3-.64 6.61 1.09 10.72a34.5 34.5 0 0 0 1.64 3.34l-4.67-1.57a5.36 5.36 0 0 1-3.37-6.78 5.36 5.36 0 0 1-3.33-6.78A5.37 5.37 0 0 1 .78 1.9l13.66 4.59z"/><path d="M33.28 1a3.68 3.68 0 0 0-1 .15L19.17 5a.46.46 0 0 0-.32.44v10.82A22.88 22.88 0 0 0 33.1 37.45a.43.43 0 0 0 .35 0A22.88 22.88 0 0 0 47.7 16.26V5.44a.46.46 0 0 0-.32-.44L34.31 1.15A3.67 3.67 0 0 0 33.28 1z" stroke-width="2" stroke="#616098" fill="none" stroke-miterlimit="10"/><path d="M33.28 7.74a2.16 2.16 0 0 0-.66.1l-8.23 2.43a.28.28 0 0 0-.21.27v6.82a14.45 14.45 0 0 0 9 13.36.31.31 0 0 0 .23 0 14.45 14.45 0 0 0 9-13.36v-6.82a.28.28 0 0 0-.21-.27l-8.27-2.43a2.14 2.14 0 0 0-.65-.1z" stroke="#fff" fill="none" stroke-miterlimit="10"/><path class="cls-1" d="M33.28 7.74a2.16 2.16 0 0 0-.66.1l-8.23 2.43a.28.28 0 0 0-.21.27v6.82a14.45 14.45 0 0 0 9 13.36.31.31 0 0 0 .23 0 14.45 14.45 0 0 0 9-13.36v-6.82a.28.28 0 0 0-.21-.27l-8.27-2.43a2.14 2.14 0 0 0-.65-.1z"/><path class="cls-2" d="M33.28 7.74a2.16 2.16 0 0 0-.66.1l-8.23 2.43a.28.28 0 0 0-.21.27v6.82a14.45 14.45 0 0 0 9 13.36.31.31 0 0 0 .23 0 14.45 14.45 0 0 0 9-13.36v-6.82a.28.28 0 0 0-.21-.27l-8.27-2.43a2.14 2.14 0 0 0-.65-.1z"/></g></g></svg>