<svg xmlns="http://www.w3.org/2000/svg" viewBox="0 0 55.35 55.43"><g id="Слой_2" data-name="Слой 2"><path d="M49.27 24.35a6.16 6.16 0 0 0-2.33-2.8 11.28 11.28 0 0 0-10.78-.32A6.22 6.22 0 0 0 33 25.59c-.64 2.91-.47 6.37 1.77 8.55A10.61 10.61 0 0 0 44.56 36a4.23 4.23 0 0 0 1-.35h.1a7 7 0 0 0 2.8-2.11 10.61 10.61 0 0 0 .81-9.19zm-5.51 6.53a1.77 1.77 0 0 1-1.07 1.33 3.68 3.68 0 0 1-3.06-.21 2.78 2.78 0 0 1-.91-2.15 14.44 14.44 0 0 1 .28-4.68A2.3 2.3 0 0 1 41.15 24a2.77 2.77 0 0 1 2.36.87 4 4 0 0 1 .39 1.84 26.81 26.81 0 0 1-.14 4.17zm-27.65 1.43c-.77-.05-1.63 0-2.38-.07v-8.07h2.31c0-1.31.05-2.71 0-3.9H5.8v3.87c.79 0 1.54 0 2.31.07v8.12l-2.31.05v3.78h10.31zM42 37.81a17.84 17.84 0 0 1-3.56 3.8.16.16 0 0 1-.24 0c-.58-.37-1.21-.66-1.77-1a19.37 19.37 0 0 0 2-2.78h-.73a16 16 0 0 1-2 2.5 23.87 23.87 0 0 0-3-1.05l-.11-.09a13 13 0 0 0 .56-1.36h-.63L32 39a29.75 29.75 0 0 0-4.3-.55c-.07-.2 0-.5-.07-.69H27c0 .28.07.49-.07.72a25.93 25.93 0 0 0-4.2.5l-.63-1.22a2 2 0 0 0-.66 0l.56 1.4-.07.07a29.53 29.53 0 0 0-3.08 1.08l-.1-.05A18.2 18.2 0 0 1 17 38c-.12-.39-.59-.16-.84-.21a19.73 19.73 0 0 0 2.05 2.83c-.63.36-1.26.77-1.91 1.07a16.74 16.74 0 0 1-3.69-3.87 2.36 2.36 0 0 0-.75 0 18.41 18.41 0 0 0 7 6.26s.07 0 0 .06a19.34 19.34 0 0 0 5.88 1.82 18.39 18.39 0 0 0 18-8.12 3.13 3.13 0 0 0-.74-.03zm-9.73 2.06h.07a12.79 12.79 0 0 1 2.85 1A14.52 14.52 0 0 1 32.61 43c-.53.32-1.07.67-1.63.94l-1-.43.07-.16a27.53 27.53 0 0 0 2.23-3.48zm-4.59-.69a19 19 0 0 1 3.89.46v.07a22.8 22.8 0 0 1-2.36 3.55 6.44 6.44 0 0 1-1.16-.13l-.4-.05c-.01-1.35-.03-2.54.04-3.9zm-4.5.42a20.15 20.15 0 0 1 3.82-.42v3.88c-.49.11-1 .11-1.5.23a20.63 20.63 0 0 1-2.42-3.6zm-3.76 1.24a15 15 0 0 1 2.84-1h.1a34.64 34.64 0 0 0 2.35 3.64c-.32.19-.72.3-1 .49a15.71 15.71 0 0 1-4.24-3.08zm3 3.92A16.66 16.66 0 0 1 17 42.19v-.07a14.57 14.57 0 0 1 1.72-1 24.08 24.08 0 0 0 4.2 3.24 1.87 1.87 0 0 1-.48.4zm8.65.29a17.86 17.86 0 0 1-7.7 0c0-.12.12-.14.19-.21a7.3 7.3 0 0 1 7.68.11c.09.1-.1.05-.15.1zm2.24-.64l-1.09.35a3.08 3.08 0 0 1-.52-.37l.05-.07a20.85 20.85 0 0 0 4.13-3.19 9 9 0 0 1 1.8 1 15.88 15.88 0 0 1-4.35 2.28zM12.54 18.43a23.19 23.19 0 0 1 1.89-2.27 13.52 13.52 0 0 1 1.82-1.54c.61.39 1.29.72 1.87 1.09a20.67 20.67 0 0 0-2 2.74 1.28 1.28 0 0 0 .7 0 19.67 19.67 0 0 1 2-2.45c1 .37 2 .76 3 1l.09.1-.59 1.32a1.94 1.94 0 0 0 .68 0c.21-.38.37-.82.61-1.21a22.34 22.34 0 0 0 4.22.5c.19.17.05.51.12.71h.63c.07-.22 0-.48.07-.68a22.34 22.34 0 0 0 4.08-.53h.12l.63 1.19a1.54 1.54 0 0 0 .65 0l-.58-1.33a24.38 24.38 0 0 0 3.11-1.09 21.45 21.45 0 0 1 2 2.51 2.16 2.16 0 0 0 .69 0 9.58 9.58 0 0 0-1-1.45 9.6 9.6 0 0 0-1-1.23v-.12L38 14.67l.23-.09a17.18 17.18 0 0 1 3.69 3.83c.28 0 .51.09.74 0a18.43 18.43 0 0 0-13.85-8.12v.05l-.05-.05a11 11 0 0 0-2.07 0 5.23 5.23 0 0 0-.87 0 18.27 18.27 0 0 0-14 8.18c.18-.04.49.06.72-.04zm9.69-2h-.1a18.42 18.42 0 0 1-2.77-.94v-.14a18.74 18.74 0 0 1 4.13-3c.35.14.7.25 1 .41l-.07.18a29.6 29.6 0 0 0-2.19 3.48zm4.64.61A8 8 0 0 1 25 17a13.35 13.35 0 0 1-2.05-.36 20.26 20.26 0 0 1 2.4-3.64l1.5.2c.07 1.2.02 2.57.02 3.8zm.72 0v-3.83L29 13a20.06 20.06 0 0 1 2.41 3.58 16.7 16.7 0 0 1-3.82.48zM35 15.45a15.19 15.19 0 0 1-2.85 1 38.29 38.29 0 0 0-2.4-3.61c.32-.18.72-.31 1.07-.5a16.59 16.59 0 0 1 4.22 3.07zm-3-3.92a16.76 16.76 0 0 1 5.48 2.57v.09l-1.61.89h-.12a20.34 20.34 0 0 0-4.15-3.16c.05-.16.29-.28.45-.39zm-.93-.23a7.15 7.15 0 0 1-7.47.25c-.12-.09-.35-.14-.37-.3a17.44 17.44 0 0 1 7.89.05zm-14.19 2.85a16.74 16.74 0 0 1 4.83-2.43c.08-.08.12-.14.21-.14.19.05.33-.16.49 0s.31.21.42.32a23.6 23.6 0 0 0-4.17 3.23 7.49 7.49 0 0 1-1.78-1zm10.01 18.34A6.2 6.2 0 0 1 20.73 31c-.18-.23-.3-.5-.49-.73h-3.15c0 1.85-.07 4 0 5.82h3.5l.05-1.1c.4.18.79.41 1.19.61a9.81 9.81 0 0 0 8 0 4.69 4.69 0 0 0 2.42-4.81 5.52 5.52 0 0 0-4-4.2l-5.65-1.63-.42-.2a.65.65 0 0 1-.25-.62c.44-.76 1.47-.53 2.24-.51a5.71 5.71 0 0 1 4.27 2.28h3.33c.05-1.88 0-3.53 0-5.43h-3.39a3.73 3.73 0 0 1-.07.94l-1.07-.57c-2.57-1.08-6.16-1.19-8.49.48a4.61 4.61 0 0 0-1.59 4.81c.3 1.65 1.89 2.87 3.41 3.44 2.07.74 4.24 1.27 6.35 2 .2.1.48.31.44.56s-.3.26-.47.35zM4.84 37.77L5 38a.11.11 0 0 1-.06.13l-3.41 1.48a.09.09 0 0 1-.13 0l-.11-.26a.09.09 0 0 1 .05-.12l3.37-1.46a.1.1 0 0 1 .13 0zm-1-2.72l.08.24a.1.1 0 0 1-.06.13L2.23 36c-.5.17-.59.39-.47.76a1.64 1.64 0 0 0 .42.6l2.08-.7a.12.12 0 0 1 .14.06l.08.25a.1.1 0 0 1-.07.12l-2.52.85a.1.1 0 0 1-.13-.06l-.08-.24a.1.1 0 0 1 .07-.13h.09a1.55 1.55 0 0 1-.49-.71c-.2-.59.08-1 .73-1.21L3.71 35a.1.1 0 0 1 .13.05zm-.46-1.94a2 2 0 0 1 .1.32c.11.47 0 .72-.51.85l-1.77.42.06.51a.09.09 0 0 1-.07.11h-.13a.1.1 0 0 1-.12-.08l-.11-.49-.5.12a.11.11 0 0 1-.12-.07l-.1-.25a.08.08 0 0 1 .07-.09l.55-.13-.14-.53a.11.11 0 0 1 .08-.13h.17a.11.11 0 0 1 .13.08l.13.55 1.76-.43c.28-.06.31-.14.26-.34l-.07-.29c0-.07 0-.11.05-.12h.17s.08-.12.11-.01zm-1.67-2.34L2 32.49c.61-.08.8-.35.74-.83a6.59 6.59 0 0 0-.19-.91.07.07 0 0 1 .06-.09h.18c.06 0 .1 0 .13.08a4.77 4.77 0 0 1 .22.92A1.1 1.1 0 0 1 2.06 33h-.44a1.08 1.08 0 0 1-1.36-1 1.08 1.08 0 0 1 1.05-1.3h.28c.06-.02.11 0 .12.07zm-.34.41c-.58.08-.78.33-.71.79s.34.66.9.58h.05l-.19-1.36zM.4 29a1.33 1.33 0 0 0 .25.71l2.18-.12a.1.1 0 0 1 .1.1v.26a.1.1 0 0 1-.1.1l-2.63.11a.11.11 0 0 1-.11-.1v-.24a.09.09 0 0 1 .1-.1h.1A1.21 1.21 0 0 1 0 29c0-.07 0-.11.09-.11H.3c.06-.03.09.01.1.11zM3 26.26v.25a.1.1 0 0 1-.1.1l-1.71-.07c-.53 0-.7.15-.71.55a1.49 1.49 0 0 0 .18.7l2.19.09a.1.1 0 0 1 .09.11v.25a.1.1 0 0 1-.1.1l-2.72-.11a.09.09 0 0 1-.1-.1v-.26a.09.09 0 0 1 .11-.09h.1A1.58 1.58 0 0 1 0 27c0-.63.43-.89 1.12-.86l1.7.06c.09-.04.18 0 .18.06zm.29-2.54v.23a.1.1 0 0 1-.12.09L3 24a1.59 1.59 0 0 1 .14.83.76.76 0 0 1-1 .72c-.55-.08-.78-.45-.65-1.36l.06-.38h-.21c-.43-.06-.6.07-.66.47a7.08 7.08 0 0 0-.07.72s0 .09-.09.08H.34a.1.1 0 0 1-.1-.08 5.17 5.17 0 0 1 0-.81.88.88 0 0 1 1.12-.86l1.79.27a.1.1 0 0 1 .14.12zm-1.42.14l-.05.38c-.1.63 0 .81.38.87h.07c.36.06.49-.1.53-.4a1.32 1.32 0 0 0-.1-.71zm1.88-2.06v.33c-.11.47-.29.66-.85.53l-1.76-.42-.18.47a.09.09 0 0 1-.11.08H.71a.09.09 0 0 1-.06-.12l.11-.49L.22 22a.1.1 0 0 1-.08-.12v-.27a.09.09 0 0 1 .11-.06l.55.13.2-.53a.09.09 0 0 1 .12-.07h.18a.09.09 0 0 1 .07.12l-.13.55 1.76.46c.28.07.34 0 .38-.2l.07-.28c0-.07 0-.1.1-.09h.18s.03.09.02.16zM.84 20l-.08.25a.12.12 0 0 1-.13.07l-.4-.12a.1.1 0 0 1-.07-.2l.08-.26a.11.11 0 0 1 .13-.07l.4.13a.11.11 0 0 1 .07.2zM4 21l-.07.24a.12.12 0 0 1-.13.07l-2.54-.78a.12.12 0 0 1-.07-.13l.08-.24A.1.1 0 0 1 1.4 20l2.53.78A.1.1 0 0 1 4 21zm.64-1.74a1.1 1.1 0 0 1-1.6.6l-.37-.15a1.11 1.11 0 0 1-.75-1.54 1.1 1.1 0 0 1 1.6-.6l.37.14a1.12 1.12 0 0 1 .75 1.55zM3.36 18c-.5-.2-.89-.12-1.07.33s0 .77.55 1l.37.14c.49.2.88.13 1.06-.32s0-.78-.55-1zm2.87-2.11l-.12.22a.1.1 0 0 1-.14 0l-1.51-.81c-.46-.25-.69-.17-.87.18a1.59 1.59 0 0 0-.16.72l1.94 1a.12.12 0 0 1 0 .15l-.12.22a.11.11 0 0 1-.14 0l-2.3-1.15a.09.09 0 0 1 0-.13l.12-.23A.1.1 0 0 1 3 16l.09.05a1.52 1.52 0 0 1 .18-.85c.29-.55.77-.61 1.38-.28l1.51.81a.1.1 0 0 1 .07.16zm1.4-2.12L7.5 14a.1.1 0 0 1-.15 0l-.09-.06a1.59 1.59 0 0 1-.24.8.76.76 0 0 1-1.18.26c-.46-.31-.51-.74 0-1.51L6 13.1l-.15-.1c-.36-.25-.57-.21-.8.13a6.78 6.78 0 0 0-.41.68s-.07.07-.13 0l-.15-.1a.12.12 0 0 1 0-.15 4.21 4.21 0 0 1 .4-.7.88.88 0 0 1 1.38-.29l1.5 1a.1.1 0 0 1-.01.2zm-1.34-.49l-.21.32c-.36.52-.34.73 0 .94a.4.4 0 0 0 .66-.13 1.29 1.29 0 0 0 .26-.65zm2.04-.38l-.17.21a.1.1 0 0 1-.14 0l-2.9-2.31a.09.09 0 0 1 0-.13l.17-.21a.11.11 0 0 1 .14 0l2.87 2.3a.11.11 0 0 1 .03.14zm2.27-2.38c-.6.56-1.36.61-2.15-.23L8 9.8a1.38 1.38 0 0 1-.1-2.15c.6-.56 1.36-.61 2.15.23l.45.49c.79.84.69 1.63.1 2.15zm-.9-2.31c-.6-.64-1.09-.64-1.5-.21s-.45.88.14 1.52l.46.48c.6.63 1.09.63 1.51.24s.44-.88-.15-1.51zm1.75-1.69a1.28 1.28 0 0 0-.44.6l1.33 1.73a.12.12 0 0 1 0 .15l-.21.15a.09.09 0 0 1-.14 0L10.36 7a.1.1 0 0 1 0-.14l.19-.15a.09.09 0 0 1 .14 0l.07.08a1.18 1.18 0 0 1 .43-.64h.14l.13.17s.05.15-.01.2zM13.81 5l-.14.13a.75.75 0 0 1 .44.36c.31.48.18.94-.5 1.37a1.48 1.48 0 0 1-.56.24.2.2 0 0 0 0 .22c0 .07.11.09.23 0L14 7.1c.5-.16 1-.3 1.25.11.27.42.16.86-.56 1.32s-1.18.37-1.45-.06a.84.84 0 0 1-.08-.73.43.43 0 0 1-.42-.22.41.41 0 0 1 0-.43.76.76 0 0 1-.53-.38c-.25-.39-.27-.92.48-1.4l1-.61a.12.12 0 0 1 .16 0l.07.11a.1.1 0 0 1-.11.19zm-.09.73c-.16-.26-.41-.39-.88-.09s-.45.6-.3.84c.13.19.38.39.88.07s.48-.56.31-.83zm1.18 1.72c-.1-.17-.29-.15-.75 0l-.57.19a.59.59 0 0 0 .07.58c.16.25.4.31.89 0s.52-.53.37-.77zM17.28 6l-.22.11a.11.11 0 0 1-.14-.05L16.87 6a1.55 1.55 0 0 1-.61.58.76.76 0 0 1-1.13-.38v-.06c-.24-.5-.08-.9.76-1.31l.34-.17-.09-.18c-.2-.4-.4-.46-.76-.28a5.6 5.6 0 0 0-.69.38.08.08 0 0 1-.12 0l-.08-.16c0-.05 0-.1.05-.14a4.82 4.82 0 0 1 .7-.41.87.87 0 0 1 1.34.42l.8 1.63a.1.1 0 0 1-.1.08zm-.93-1.08l-.35.17c-.56.28-.65.48-.49.81a.41.41 0 0 0 .64.22 1.58 1.58 0 0 0 .54-.5zm3.51.08l-.24.09a.1.1 0 0 1-.13-.09l-.59-1.6c-.17-.5-.4-.59-.77-.45a1.61 1.61 0 0 0-.59.43l.75 2.06a.1.1 0 0 1-.06.13l-.23.12a.1.1 0 0 1-.13-.06L17 3.13A.11.11 0 0 1 17 3l.25-.09a.1.1 0 0 1 .13.07v.09a1.62 1.62 0 0 1 .69-.51c.59-.21 1 .06 1.23.71l.58 1.61a.1.1 0 0 1-.02.12zm.21-3.48l-.26.07a.1.1 0 0 1-.12-.07l-.11-.41a.09.09 0 0 1 .07-.11l.26-.07A.09.09 0 0 1 20 1l.11.4a.1.1 0 0 1-.04.12zm.86 3.2l-.24.07a.12.12 0 0 1-.13-.08l-.69-2.55a.09.09 0 0 1 .07-.16h.24a.11.11 0 0 1 .13.08L21 4.59a.09.09 0 0 1-.07.13zm2.49-.54l-1.55.3a.28.28 0 0 1-.36-.22v-.1a.43.43 0 0 1 .05-.35l1-1.9h-.06l-1.24.25a.1.1 0 0 1-.13-.16v-.18a.11.11 0 0 1 .08-.12l1.51-.29c.21 0 .3 0 .33.19v.12A.41.41 0 0 1 23 2l-1 2a.08.08 0 0 0 0 .06l1.35-.27a.1.1 0 0 1 .12.08v.18a.11.11 0 0 1-.05.13zm2.43-.26h-.24a.1.1 0 0 1-.11-.1v-.08a1.58 1.58 0 0 1-.78.32.76.76 0 0 1-.92-.76v-.06c-.05-.56.25-.87 1.17-1h.38v-.2c0-.44-.2-.57-.61-.54a6.91 6.91 0 0 0-.78.12s-.09 0-.1-.08v-.18c0-.05 0-.09.1-.1a4.79 4.79 0 0 1 .8-.15.88.88 0 0 1 1.1.88l.16 1.81a.09.09 0 0 1-.17.12zm-.48-1.34h-.38c-.63.06-.78.22-.75.58v.07c0 .37.22.45.52.42a1.39 1.39 0 0 0 .68-.27zm2.47 1.32a2 2 0 0 1-.34 0c-.48 0-.7-.11-.71-.69V1.4l-.51-.05c-.05 0-.1 0-.1-.09v-.11a.09.09 0 0 1 .1-.1h.5V.53a.11.11 0 0 1 .1-.1h.27a.08.08 0 0 1 .08.09V1h.56a.1.1 0 0 1 .11.1v.18a.1.1 0 0 1-.1.1h-.56V3.2c0 .28.08.33.29.32h.29c.07 0 .11 0 .11.07v.18s-.02.12-.09.13zm.91.1h-.25a.1.1 0 0 1-.1-.11l.16-2.64a.1.1 0 0 1 .11-.1h.25s.1.06.09.11l-.15 2.65a.1.1 0 0 1-.11.09zM29 .64h-.26a.1.1 0 0 1-.1-.11V.12a.12.12 0 0 1 .11-.1H29a.12.12 0 0 1 .1.11v.42a.1.1 0 0 1-.1.09zm1.54 3.52a1.1 1.1 0 0 1-1-1.41l.05-.4a1.16 1.16 0 1 1 2.29.32l-.05.39a1.11 1.11 0 0 1-1.29 1.1zm.92-1.56c.07-.52-.09-.89-.58-1s-.73.24-.81.77l-.07.44c-.07.52.09.89.57.95s.75-.23.82-.76zm2.73 2.29L34 4.83a.1.1 0 0 1-.08-.12l.43-1.66c.13-.51 0-.71-.39-.81a1.52 1.52 0 0 0-.73 0l-.54 2.13a.13.13 0 0 1-.13.08l-.25-.07a.1.1 0 0 1-.07-.12l.66-2.58a.09.09 0 0 1 .1-.05l.25.06a.09.09 0 0 1 .07.13v.09a1.57 1.57 0 0 1 .86 0c.6.15.78.6.61 1.27l-.42 1.66a.11.11 0 0 1-.18.05zm4.41-2.18l-.23-.1c-.23-.09-.32 0-.43.21l-.15.35.51.21a.09.09 0 0 1 .05.12l-.07.19a.1.1 0 0 1-.13.05l-.5-.21-.91 2.19a.1.1 0 0 1-.13.06l-.23-.1a.1.1 0 0 1-.06-.13l.9-2.2-.44-.24a.11.11 0 0 1-.06-.11l.06-.13a.1.1 0 0 1 .12-.05l.47.2.14-.35a.63.63 0 0 1 1-.39 1.16 1.16 0 0 1 .26.14c.05 0 .08.07.06.12l-.07.15c-.07.04-.11.04-.16.02zm-.13 3.99A1.11 1.11 0 0 1 38 5l.18-.35a1.11 1.11 0 0 1 1.61-.59 1.11 1.11 0 0 1 .44 1.66l-.19.35a1.11 1.11 0 0 1-1.57.63zm1.39-1.15c.25-.47.22-.87-.22-1.1s-.77 0-1 .45l-.18.35c-.24.47-.22.87.22 1.09s.77 0 1-.44zm2.4.45a1.3 1.3 0 0 0-.71-.21l-1.18 1.84a.09.09 0 0 1-.14 0l-.23-.1a.12.12 0 0 1 0-.15l1.44-2.22a.1.1 0 0 1 .14 0l.2.13a.1.1 0 0 1 0 .14l-.06.09a1.23 1.23 0 0 1 .75.19.08.08 0 0 1 0 .13l-.06.16s-.08.05-.15 0zM43 9.74a5.52 5.52 0 0 1-.6-.62c-.06-.07 0-.09 0-.14l.14-.15a.08.08 0 0 1 .12 0c.17.17.45.43.63.59.47.4.76.32 1 .05s.15-.41 0-.94L44.05 8c-.17-.53-.18-.89.09-1.2.41-.48 1-.4 1.55.11a7.67 7.67 0 0 1 .64.64.09.09 0 0 1 0 .12l-.15.17a.08.08 0 0 1-.12 0c-.16-.16-.42-.41-.65-.61-.41-.35-.66-.41-.9-.12s-.13.41 0 .85l.18.53c.22.66.2 1-.08 1.33s-.86.59-1.61-.08zm2.16 2.06l-.25-.23c-.34-.34-.41-.59 0-1l1.3-1.27-.31-.4a.1.1 0 0 1 0-.14l.1-.09a.1.1 0 0 1 .14 0l.35.36.37-.35a.11.11 0 0 1 .14 0l.22.17a.09.09 0 0 1 0 .11l-.41.4.4.4a.12.12 0 0 1 0 .15l-.12.12a.11.11 0 0 1-.15 0l-.39-.4-1.3 1.27c-.2.2-.18.28 0 .43l.21.2c.05.06.06.1 0 .13l-.13.13s-.11.05-.17.01zm1.51 1.79l-.15-.19a.1.1 0 0 1 0-.15l.08-.07a1.51 1.51 0 0 1-.7-.46.75.75 0 0 1 .1-1.19h.05c.43-.35.86-.28 1.44.44l.24.3.17-.13c.33-.28.36-.49.1-.8a5.72 5.72 0 0 0-.54-.59s-.05-.09 0-.13l.14-.11a.1.1 0 0 1 .15 0 4.53 4.53 0 0 1 .56.58.87.87 0 0 1-.11 1.4l-1.38 1.11a.11.11 0 0 1-.15-.01zm.85-1.15l-.24-.3c-.4-.49-.62-.53-.9-.3h-.05a.4.4 0 0 0-.06.67 1.41 1.41 0 0 0 .6.42zm.67 3.41l-.13-.21a.09.09 0 0 1 0-.14l1.43-.93c.44-.28.48-.52.27-.85a1.75 1.75 0 0 0-.55-.48l-1.85 1.19a.1.1 0 0 1-.14 0l-.14-.21a.1.1 0 0 1 0-.14l2.22-1.44a.11.11 0 0 1 .14 0l.14.22a.09.09 0 0 1 0 .14h-.08a1.64 1.64 0 0 1 .65.57c.34.52.16 1-.42 1.35l-1.44.93a.1.1 0 0 1-.1 0zm1.28 2.35a5 5 0 0 1-.51-.81 1.1 1.1 0 0 1 .64-1.59l.34-.17c.73-.36 1.31-.23 1.64.45a3.07 3.07 0 0 1 .23.57l.86-.43a.1.1 0 0 1 .14 0l.11.24a.08.08 0 0 1 0 .12l-3.26 1.63c-.1.07-.14.07-.19-.01zm2-1.38a4.72 4.72 0 0 0-.24-.56c-.23-.46-.59-.47-1.09-.22l-.33.17c-.51.25-.72.54-.49 1 .08.16.21.38.3.53zm-1.11 3.81l-.09-.23a.1.1 0 0 1 .06-.13h.11a1.68 1.68 0 0 1-.52-.66.77.77 0 0 1 .5-1.09h.06c.52-.2.9 0 1.22.88l.14.36.19-.07c.41-.15.5-.35.36-.73s-.23-.54-.32-.73 0-.1 0-.12l.17-.06s.1 0 .13.07a3.93 3.93 0 0 1 .34.73.87.87 0 0 1-.56 1.29l-1.7.63a.1.1 0 0 1-.09-.14zm1.17-.81l-.13-.37c-.22-.59-.41-.69-.76-.56h-.06c-.35.13-.38.33-.27.61a1.4 1.4 0 0 0 .43.59zm1.74 1.92a1.49 1.49 0 0 0-.4-.64l-2.11.58a.09.09 0 0 1-.12-.07l-.07-.25a.11.11 0 0 1 .07-.12l2.56-.7a.1.1 0 0 1 .13.06l.06.24a.09.09 0 0 1-.07.12h-.11a1.22 1.22 0 0 1 .44.64c0 .07 0 .12-.06.13l-.21.06c-.05.04-.09.02-.11-.05zm-1.91 2.95a5.15 5.15 0 0 1-.26-.93c-.14-.76.29-1.2 1.06-1.34l.37-.07c.8-.15 1.32.13 1.45.88a4.9 4.9 0 0 1 .07.61l1-.18a.09.09 0 0 1 .11.08V24a.09.09 0 0 1-.08.11l-3.58.66c-.07.02-.1.01-.14-.08zm2.31-.78a3.91 3.91 0 0 0-.08-.61c-.09-.5-.43-.61-1-.5l-.37.06c-.56.11-.84.33-.74.83a5.63 5.63 0 0 0 .14.59zm-2.25 1.88v-.25a.1.1 0 0 1 .09-.12l2.64-.27a.09.09 0 0 1 .11.09v.25a.1.1 0 0 1-.09.11l-2.64.28a.12.12 0 0 1-.11-.09zm3.31-.34v-.26a.11.11 0 0 1 .09-.12h.42a.09.09 0 0 1 .11.09v.27c0 .05 0 .11-.09.11h-.42a.09.09 0 0 1-.11-.09zm-3.17 2.89l-.05-1.58a.28.28 0 0 1 .28-.32h.1a.47.47 0 0 1 .34.1l1.71 1.3h.05v-1.32a.11.11 0 0 1 .11-.11h.17a.1.1 0 0 1 .11.1l.05 1.53c0 .21-.09.29-.25.3h-.12a.42.42 0 0 1-.29-.11L52 26.93a.07.07 0 0 0-.06 0l.06 1.4a.11.11 0 0 1-.11.1h-.17a.11.11 0 0 1-.16-.09zm-.14 2.48v-.24a.11.11 0 0 1 .11-.1h.11a1.68 1.68 0 0 1-.19-.82.76.76 0 0 1 .9-.79h.06c.56 0 .82.38.75 1.31v.38h.2c.44 0 .6-.11.63-.52a7.23 7.23 0 0 0 0-.79c0-.05 0-.09.09-.09h.19s.08.05.09.12a5.19 5.19 0 0 1 0 .81.88.88 0 0 1-1.05.94l-1.81-.12a.12.12 0 0 1-.08-.09zm1.41-.26v-.38c0-.63-.09-.81-.46-.84h-.06c-.37 0-.48.14-.51.45a1.61 1.61 0 0 0 .16.71zm-1.71 2.22a1.79 1.79 0 0 1 0-.34c.07-.48.23-.68.8-.59l1.79.28.14-.49a.1.1 0 0 1 .1-.09h.14a.09.09 0 0 1 .08.11l-.08.5.51.08a.1.1 0 0 1 .08.11v.29a.08.08 0 0 1-.1.06l-.56-.09-.02.59a.1.1 0 0 1-.12.08h-.17a.11.11 0 0 1-.09-.12l.09-.56-1.79-.28c-.29 0-.34 0-.37.23v.28c0 .08 0 .11-.09.1h-.18a.09.09 0 0 1-.16-.15zm-.18.88l.05-.25a.11.11 0 0 1 .13-.08l2.59.58a.1.1 0 0 1 .08.12l-.06.25a.09.09 0 0 1-.12.07L51 33.78a.1.1 0 0 1-.06-.12zm3.24.72v-.25a.1.1 0 0 1 .13-.08l.4.09a.09.09 0 0 1 .08.12l-.05.26a.11.11 0 0 1-.13.08l-.4-.09a.11.11 0 0 1-.03-.13zm-3.74 1a1.11 1.11 0 0 1 1.56-.74l.38.12a1.1 1.1 0 0 1 .87 1.48 1.12 1.12 0 0 1-1.55.73l-.37-.11a1.12 1.12 0 0 1-.89-1.48zm1.39 1.15c.5.16.89.06 1-.41s-.11-.77-.62-.92l-.38-.12c-.51-.15-.89 0-1 .41s.11.77.62.93zm-2.69 2.31l.1-.23a.09.09 0 0 1 .13 0l1.57.68c.48.21.7.11.86-.25a1.8 1.8 0 0 0 .09-.72l-2-.88a.11.11 0 0 1-.05-.14l.1-.23a.11.11 0 0 1 .14-.05l2.41.98a.1.1 0 0 1 .06.13l-.11.24a.1.1 0 0 1-.13.05h-.09a1.61 1.61 0 0 1-.11.85c-.25.58-.72.68-1.35.4L49.19 39a.11.11 0 0 1-.05-.16zM21.37 55.43a6.07 6.07 0 0 1-1.31-.13c-.11 0-.15-.07-.15-.15v-.58c0-.09.05-.14.12-.14a7.5 7.5 0 0 0 1.21.1c.59 0 .83-.23.83-1v-.05a4 4 0 0 1-.78.08c-.9 0-1.64-.38-1.64-1.48a1.58 1.58 0 0 1 1.75-1.68c1.07 0 1.78.63 1.78 1.95v1c.03 1.5-.69 2.08-1.81 2.08zm.73-3.1c0-.9-.28-1.09-.67-1.09s-.64.18-.64.82c0 .55.32.69.71.69a5.54 5.54 0 0 0 .6-.06zm3.55 3.1c-1.13 0-1.78-.64-1.78-2.24v-.57c0-1.59.65-2.24 1.78-2.24s1.79.65 1.79 2.24v.57c0 1.6-.66 2.24-1.79 2.24zm.66-2.81c0-1-.29-1.3-.66-1.3s-.65.26-.65 1.3v.57c0 1.05.28 1.3.65 1.3s.66-.25.66-1.3zm3.55 2.81c-1.12 0-1.78-.64-1.78-2.24v-.57c0-1.59.66-2.24 1.78-2.24s1.79.65 1.79 2.24v.57c0 1.6-.65 2.24-1.79 2.24zm.66-2.81c0-1-.29-1.3-.66-1.3s-.65.26-.65 1.3v.57c0 1.05.28 1.3.65 1.3s.66-.25.66-1.3zm3.1 1.81v-2.85l-.86.37h-.08a.08.08 0 0 1-.07-.09v-.76a.09.09 0 0 1 .07-.09l1.2-.56a.31.31 0 0 1 .15 0h.6a.12.12 0 0 1 .12.13v3.86h.88a.13.13 0 0 1 .14.12v.69a.13.13 0 0 1-.14.13h-2.89a.13.13 0 0 1-.13-.13v-.69a.12.12 0 0 1 .13-.12z" fill="#364e6e" id="Слой_1-2" data-name="Слой 1"/></g></svg>