<svg xmlns="http://www.w3.org/2000/svg" viewBox="0 0 60.15 59.31"><g id="Слой_2" data-name="Слой 2"><path d="M2.45 30.54l.61 1.2 1.36.24-1.03.94.23 1.34-1.18-.65-1.22.65.26-1.37-.99-.96 1.34-.19.62-1.2zm2.99-6.02v.92a1.86 1.86 0 0 1-.38 1l-.71.7a2.15 2.15 0 0 1-.93.33h-1a3 3 0 0 1-1.06-.33l-.8-.61-.46-.88a2.6 2.6 0 0 1-.1-1.13l.25-.78.43-.62.61-.38.83-.13-.12.67-.53.1-.44.26-.3.47-.13.51.06.86.39.61.67.45.78.22h.79l.71-.21.6-.47.28-.75v-.73l-.25-.6-.51-.4-.65-.2-.26 1.65-.58-.05.37-2.32 2.75.44-.07.46-.68.06zM3.62 21l-.47-.57-.15-.67.14-.76.46-.69.57-.41.74-.07.77.18.67.39.47.55.17.71-.14.81-.44.68-.6.38-.73.11-.77-.18zm1.55 0l.51-.08.39-.25.27-.4.08-.46-.11-.45-.31-.43-.51-.31-.61-.16-.52.08-.41.23-.25.4v.47l.09.46.33.4.53.32zm.43-4.55l-.35-.63-.08-.72.3-.76.53-.61.67-.26h.72l.73.32.58.52.37.63v.71l-.3.77-.53.61-.68.25h-.73L6.19 17zm1.53.21h.5l.45-.19.34-.32.12-.44v-.49l-.25-.44-.48-.42-.57-.23h-.52l-.42.19-.3.31-.15.45v.44l.26.47.48.41zm5.1-4.66l-.36-.36v.7l-.37.66-.65.46-.68.11-.69-.2-.64-.44-.52-.55-.22-.7.06-.69.37-.67.25-.19.29-.23.35-.09h.4L8.38 8.44 8.8 8l3.88 3.55zm-2.49.75l.48.14.49-.08.45-.31.25-.46v-.48l-.2-.48-.31-.37-.45-.33-.45-.16h-.49l-.49.3-.26.5v.51l.21.45.37.39zm3.96-8.67l3.62 3.03-.73-4.66.84-.49 2.59 4.6-.58.32-2.17-3.82v.02l.71 4.61-.51.32L13.87 5l2.14 3.81-.57.34-2.59-4.58.85-.49zm10.51 1.31h-.42L23.53 5l-.47.59-.65.34-.48.1-.44-.07-.35-.24-.24-.44-.06-.55.2-.4.32-.3.43-.25.44-.21.41-.2.22-.19v-.35l-.17-.28-.24-.13h-.3l-.29.06-.59.33-.11.62-.6.19V3l.23-.47.42-.35.57-.25.51-.11h.48l.41.23.27.48.55 1.9.14.28h.34l.16.45zm-1.39-1.61l-.36.15-.46.19-.33.22-.18.28V5l.14.24.2.12h.52l.48-.25.28-.31.12-.32v-.31l-.17-.6zm2.74-2.62l.08.58a1.42 1.42 0 0 1 1.15-.85l.65.06.43.24.28.39.12.59.3 2.48-.57.07-.31-2.55-.26-.55-.59-.14-.5.14-.34.29-.17.41v.49L26 5h-.6L25 1.21zm6.8 3.58l.05-.59h-.03l-.54.5-.73.09-.63-.11-.36-.32-.22-.44-.04-.58.17-2.49.61.04-.14 2.57.16.58.57.22.5-.06.35-.23.25-.36.08-.47.15-2.14.61.02-.22 3.82-.59-.05zm1.89-3.03l.13-.55.64.09.09-.51.41-.65.81-.09.21.04.18.1-.11.53-.16-.06-.18-.06-.37.02-.18.31-.08.52.71.15-.08.5-.75-.1-.61 3.22-.6-.13.6-3.22-.66-.11zm4.92 4.75l-.31-.24v-.49l-.7.25-.75-.13-.47-.18-.3-.31-.15-.36.07-.49.26-.51.39-.21.44-.06h.49l.48.08.43.08.3-.06.19-.23v-.33l-.1-.25-.25-.16-.28-.13-.67-.06-.44.44-.59-.11.33-.51.46-.31h.56l.6.09.47.22.38.29.21.4v.56l-.61 1.85-.08.3.07.11h.21l-.18.44zM39 4.38l-.42-.08-.41-.09h-.4l-.33.1-.2.34v.24l.08.21.2.17.26.13.53.08.41-.08.3-.2.08-.2.19-.61zm4.86.8l-.45-.49-.58-.12-.47.12L42 5l-.3.46-.18.46v.49l.12.46.39.37.79.09.6-.45.58.3a1.74 1.74 0 0 1-1 .71 1.49 1.49 0 0 1-1.22-.2l-.61-.45-.31-.65v-.7l.28-.75.46-.64.62-.43.68-.14.77.25.53.39.3.43.17.53-.17.61-.57-.29zm3.67 1.64l-.34.44-.59-.44-1.38 1.93-.1.15v.13l.1.12.18.18.23.13-.34.47-.38-.28-.31-.28-.17-.28v-.3l.23-.35 1.42-1.98-.52-.38.34-.47.52.4.65-.93.53.38-.68.9.61.46zm.31 5.4l.44-.45-.01-.02-.73.04-.63-.39-.39-.49-.1-.47.16-.49.33-.45 1.74-1.81.43.44-1.77 1.84-.24.55.26.55.42.29.44.07.42-.15.37-.27 1.51-1.57.43.41-2.64 2.78-.44-.41zm4.56-.62l-.65.51a1.49 1.49 0 0 1 .89 0l.68.52-.51.43-.49-.44-.49-.16-.53.14-.56.32L49.39 14l-.39-.48 3-2.36zm1.76 2.48l-3.23 2.09-.3-.53 3.17-2.11zm.23-.93l.61-.41.35.53-.63.43zm.9 2.85l-.56.26a1.22 1.22 0 0 1 1.14.8l.19.59-.08.5-.28.39-.5.3L53 20l-.28-.57L55 18.25l.44-.44-.06-.61-.33-.42-.38-.18h-.43l-.46.14-1.92 1-.3-.56L55 15.43zm-2.08 8.15A1.72 1.72 0 0 1 52.4 23l-.09-.56.06-.51.19-.46.45-.31.2.63L53 22l-.12.3v.31l.07.32.26.47.36.25.47.09.59-.1.24-.09-.64-.32-.36-.64-.05-.75.28-.63.48-.46.68-.32.71-.11.72.11.6.38.41.75v.67l-.32.6.52-.15.17.58-3.35.94a2 2 0 0 1-1.48 0m1.43-1.27l.41.24.53.09.52-.09.47-.19.36-.32.21-.4v-.5l-.28-.51-.41-.25h-.5l-.51.08-.48.19-.42.31-.21.39v.54zM60.15 30a1.58 1.58 0 0 1-.39 1.2 1.46 1.46 0 0 1-1.14.43 1.58 1.58 0 0 1-1.16-.39A1.53 1.53 0 0 1 57 30v-1.59h-2.14v-.68l5.28-.07zm-2.51-.22a1.33 1.33 0 0 0 .23.88l.73.26.69-.27a1.15 1.15 0 0 0 .28-.87V28.4h-2zm.75 4.04l-.8-.12.6.67.06.84-.66-.08v-.65l-.24-.48-.41-.3-.67-.18-1.67-.26.09-.61 3.78.56-.08.61zm-5.04 4.25l.24-.34h.46L53.8 37l.08-.74.17-.48.34-.34.38-.16.48.06.49.26.26.4v1l-.07.49v.7l.24.2h.34l.24-.16.16-.24.13-.26v-.7l-.46-.44.22-.59.55.31.24.45.08.57-.1.59-.19.49-.29.39-.4.21h-.57l-1.86-.55-.26-.12-.17.11v.24l-.45-.16zm2.09-.29l.07-.42.05-.41v-.41l-.12-.31-.3-.21h-.29l-.21.13-.17.19-.08.27-.1.5.12.44.19.29.26.15.61.19zm-.67 4.97l.45-.46.15-.58-.15-.5-.33-.36-.48-.31-.49-.16-.47-.05-.45.17-.36.42-.09.77.45.6-.25.55a1.79 1.79 0 0 1-.75-.94 1.56 1.56 0 0 1 .17-1.22l.47-.62.62-.34h.69l.75.25.69.45.41.58.14.74-.21.77-.33.49-.45.36-.52.16-.62-.11.32-.59zm-1.51 3.67l-.48-.32.43-.61-1.95-1.32-.16-.07h-.13l-.1.07-.15.21-.16.25-.49-.33.28-.42.28-.31.24-.16h.29l.4.2 1.97 1.38.39-.56.46.31-.34.54.91.65-.35.51-.94-.65-.4.63zm-1.14 1.43l-3-2.4.42-.49 3 2.4zm1 0l.59.44-.38.51-.6-.48zM49 50.22l.6-.3.32-.5v-.51l-.21-.45-.32-.46-.39-.32-.46-.16h-.48l-.43.29-.33.66.23.73-.47.43a1.9 1.9 0 0 1-.39-1.16 1.76 1.76 0 0 1 .59-1.08l.65-.4.65-.14.67.21.65.48.48.67.19.68-.07.71-.46.68-.48.35-.54.19-.54-.06-.55-.3.49-.46zm-5.75.78a1.84 1.84 0 0 1 .72-.88l.72-.32h.71l.64.32.58.6.33.72v.74l-.23.65-.5.54-.8.33-.77-.15-.64-.43-.45-.56 2.34-1.62-.31-.35-.41-.21h-.46l-.51.25-.44.52v.63l-.52.37a1.77 1.77 0 0 1 0-1.15m1.53 1.94l.39.13h.4l.41-.16.32-.31.12-.4v-.41l-.16-.39-1.83 1.2zm-6.64 4.98l1-.07.69-.41.38-.64.1-.73-.17-.8-.34-.77-.53-.57-.66-.29-.84.1-.55.31-.34.45-.17.56.06.6-.62.23a2.26 2.26 0 0 1 .14-1.7 2.15 2.15 0 0 1 1.35-1l1.08-.19.9.3.7.69.5 1a4.35 4.35 0 0 1 .18 1.09l-.17 1-.58.81-.91.53-.79.14-.73-.1-.63-.38-.48-.63.67-.22zm-6.37-3.2a1.83 1.83 0 0 1 1-.45l.79.06.64.33.4.59.22.78v.8l-.31.68L34 58l-.68.23-.88-.12-.58-.44-.37-.67-.15-.72 2.85-.33-.13-.49-.27-.35-.41-.24h-.52l-.62.27-.28.58-.62.08a1.51 1.51 0 0 1 .43-1m.44 2.42l.28.31.37.17h.42l.42-.14.3-.27.21-.36v-.42l-2.18.25zm-2.6 1.12v-.83l-.6.68-.83.2v-.64l.67-.13.44-.29.23-.5.09-.61.06-1.72h.6l-.08 3.84h-.58zm-3.97-.32l.04-.56.78.1.25-2.36v-.16l-.02-.14-.14-.06-.26-.03-.28-.03.06-.56.48.06.4.08.26.14.17.28v.45l-.29 2.39.64.08-.06.56-.66-.07-.15 1.12-.61-.07.15-1.15-.76-.07zm-1.33.46l-.12.74-.64-.14.15-.74zm-.46-.8l.77-3.75.61.13-.77 3.77zm-.86-.74l-.16.51-.62-.17-.17.55-.42.6h-.84l-.2-.07-.17-.1.16-.5.16.07.14.07.38.02.24-.3.14-.52-.73-.21.14-.54.75.2.89-3.09.62.16-.92 3.13.61.19zm-3.29.22l-.27.76-.59-.24.29-.73zm-.36-.84l1.39-3.59.58.24L20 56.52zM16.14 54l.47.47.55.16.49-.11.4-.33.32-.45.16-.51v-.47l-.17-.45L18 52l-.74-.13-.61.47-.57-.3a1.69 1.69 0 0 1 1-.73 2 2 0 0 1 1.23.21l.58.48.34.6v.72l-.28.74-.46.66-.63.42-.68.11-.8-.25-.49-.37-.35-.45-.1-.5.1-.62.6.28zm-2.44-5.59l.19.35-.12.46h.74l.66.32.37.36.19.37v.42l-.21.46-.43.36-.46.09-.42-.1-.42-.21-.48-.22-.31-.17-.3-.08-.23.15-.16.32v.27l.14.24.24.2.62.28.56-.28.53.41-.49.38-.49.07-.59-.13-.47-.32-.4-.34-.28-.4-.06-.41.22-.55 1.2-1.57.19-.25-.09-.19-.14-.07.29-.42zm-.5 2.06l.39.2.34.21.39.15h.33l.35-.23.11-.23v-.25l-.14-.23-.2-.17-.47-.29h-.4l-.33.1-.26.18-.4.5zm-4.28-1.29l.38-.39.52.53 1.69-1.67.13-.13v-.13l-.05-.12-.18-.2-.2-.19.38-.39.37.33.26.32.11.29-.1.28-.24.35-1.74 1.72.47.46-.4.38-.44-.46-.82.77-.46-.4.82-.81-.5-.54zm-1.34-.48l-.58.52-.4-.5.59-.5zm.13-.89l2.93-2.47.4.5-2.93 2.41zM7.67 46l-.75.06-.63-.28-.57-.57-.33-.77.05-.71.36-.65.6-.51.73-.32.7-.06.67.25.56.59.29.78v.69l-.35.62-.58.53zm.83-1.3l.24-.48v-.45l-.18-.44-.28-.33-.45-.17h-.51l-.58.29-.45.39L6 44v.47l.18.43.3.35.43.19.55-.08.54-.26zm-4.74-3.17l.57-.25a1.28 1.28 0 0 1-1.1-.88l-.17-.61.13-.49.32-.36.49-.3 2.31-1 .25.59-2.39 1-.45.4v.61l.28.42.38.24h.41l.47-.11 2-.84.22.6L4 42.07zm16.32-12.25a3.91 3.91 0 0 1-3.19 1.56c-3.59 0-5.69-2.67-5.69-6s2.1-6.13 5.69-6.13a4.69 4.69 0 0 1 4.9 4.09h-2.45a2.35 2.35 0 0 0-2.45-1.92c-2.27 0-3.16 1.92-3.16 4s.89 3.88 3.16 3.88a2.48 2.48 0 0 0 2.76-2.5h-2.54v-1.97H22v6.28h-1.65zm3.97-10.3h3.57l2.71 7.97h.02l2.58-7.97h3.61v11.59h-2.4v-8.24h-.03l-2.85 8.24H29.3l-2.84-8.14h-.06v8.14h-2.35V18.98zm14.71.02H44c2.9 0 4 1.83 4 3.7s-1.12 3.72-4 3.72h-2.68v4.17h-2.56zm2.56 5.45h2c1.2 0 2.24-.28 2.24-1.75S44.49 21 43.29 21h-2zM20.83 40.87l-.65.71-1.05-.94a3.67 3.67 0 0 1-1.74.45 3.58 3.58 0 0 1-3.53-3.89 3.53 3.53 0 1 1 7 0 4 4 0 0 1-1 2.86zm-3.37-1.66l.63-.72.89.8a3.28 3.28 0 0 0 .63-2.09c0-1.39-.63-2.76-2.22-2.76s-2.27 1.37-2.27 2.76.67 2.85 2.27 2.85l.82-.18zm9.18 1.71h-1.18v-.76a1.81 1.81 0 0 1-1.56.84c-1.37 0-2-.69-2-2.07v-3.36h1.2v3.27c0 .94.41 1.29 1 1.29 1 0 1.32-.63 1.32-1.44v-3.12h1.2zm5.71-1.2l.27.41h.29v.82l-.75.11c-.49 0-.82-.14-.92-.64a2.58 2.58 0 0 1-1.86.64c-.94 0-1.83-.49-1.83-1.52 0-1.37 1.08-1.56 2.09-1.66.84-.18 1.59-.08 1.59-.78s-.63-.72-1.1-.72c-.66 0-1.14.28-1.2.85h-1.16c.07-1.37 1.24-1.78 2.42-1.78s2.16.42 2.16 1.55zm-1.2-1.47a4.74 4.74 0 0 1-1.42.3c-.52.08-1 .27-1 .91s.69.67 1.11.67 1.31-.26 1.31-1zm2.48-4.71h1.2v7.38h-1.2zm2.49 1.09h1.22v-1.09h-1.22zm0 6.29h1.22v-5.35h-1.22zM38 35.57h1V34h1.16v1.61h1v.86h-1v2.86c0 .49 0 .76.56.76l.47-.07v.94h-.74C39.17 41 39 40.49 39 39.6v-3.17h-1zm3.44 0h1.33l1.38 4 1.34-4h1.24l-2.07 5.64c-.38 1-.67 1.81-1.89 1.81L42 43v-1l.58.1c.52 0 .67-.31.81-.74l.14-.42z" fill="#364e6e" id="Слой_1-2" data-name="Слой 1"/></g></svg>