<svg xmlns="http://www.w3.org/2000/svg" viewBox="0 0 42.04 40.24"><defs><style>.cls-1{fill:none;stroke:#855989;stroke-miterlimit:10;stroke-width:2px}</style></defs><g id="Слой_2" data-name="Слой 2"><g id="Layer_1" data-name="Layer 1"><path class="cls-1" d="M1.23 29.68a.42.42 0 0 1 0-.75l18.53-9.26a2.81 2.81 0 0 1 1.26-.3 2.74 2.74 0 0 1 1.25.3l18.54 9.26a.42.42 0 0 1 0 .75L22.27 39a2.84 2.84 0 0 1-2.51 0z"/><path d="M1.23 20.5a.42.42 0 0 1-.23-.38.39.39 0 0 1 .23-.37l18.53-9.27a2.8 2.8 0 0 1 1.24-.29 2.73 2.73 0 0 1 1.25.29l18.54 9.27a.39.39 0 0 1 .23.37.42.42 0 0 1-.23.38l-18.52 9.26a2.84 2.84 0 0 1-2.51 0z" fill="#c2adc4"/><path d="M1.23 20.5a.42.42 0 0 1-.23-.38.39.39 0 0 1 .23-.37l18.53-9.27a2.8 2.8 0 0 1 1.24-.29 2.73 2.73 0 0 1 1.25.29l18.54 9.27a.39.39 0 0 1 .23.37.42.42 0 0 1-.23.38l-18.52 9.26a2.84 2.84 0 0 1-2.51 0z" fill="none" stroke="#855989" stroke-miterlimit="10"/><path class="cls-1" d="M1.23 11.31a.42.42 0 0 1 0-.75l18.53-9.27A2.94 2.94 0 0 1 21 1a2.86 2.86 0 0 1 1.25.29l18.54 9.27a.42.42 0 0 1 0 .75l-18.52 9.27a2.84 2.84 0 0 1-2.51 0z"/></g></g></svg>