<svg xmlns="http://www.w3.org/2000/svg" id="Layer_1" viewBox="0 0 512 512" width="512" height="512"><path d="M432.781 384h-88.927c-5.375 0-8.135-3.542-9.073-5.063-.948-1.521-2.875-5.573-.469-10.375l130.417-260.833a43.796 43.796 0 0 0 4.604-19.51c0-25.979-19.573-45.552-43.625-45.552-16.635 0-31.594 9.24-39.031 24.115l-66.698 133.406c-11.365-20.781-34.948-32.438-58.406-28.865h-.01l-113.385 17.448c-17.063 2.625-31.865 13.417-39.583 28.865l-56.897 113.77c-5.906 11.833-9.031 25.073-9.031 38.281 0 32.635 18.125 61.979 47.313 76.563l100.281 50.135C210.677 506.604 233.552 512 256.396 512a147.67 147.67 0 0 0 44.115-6.74l150.667-47.083a10.675 10.675 0 0 0 6.365-5.406l7.938-15.865a36.888 36.888 0 0 0 3.854-16.354C469.333 400.396 452.938 384 432.781 384zM53.333 128.469c.875 0 1.76-.104 2.635-.333l85.333-21.802c3.5-.896 6.302-3.49 7.469-6.906a10.676 10.676 0 0 0-1.719-10.021l-8.75-11.122C173.083 55.266 214.074 42.667 256 42.667c30.823 0 60.374 6.362 88.005 18.928 5.216 2.372 11.324.448 13.94-4.65l9.732-18.965c2.764-5.386.565-12.2-4.933-14.732C329.24 7.815 293.39 0 256 0c-51.577 0-102.038 15.771-144.419 44.728-.102.065-12.836 9.178-18.57 13.918l.018.022a256.297 256.297 0 0 0-48.497 53.113 10.664 10.664 0 0 0 .063 12.135 10.669 10.669 0 0 0 8.738 4.553z" fill="#FFF"/></svg>