<svg xmlns="http://www.w3.org/2000/svg" viewBox="0 0 34.27 34.27"><defs><clipPath id="clip-path"><circle cx="17.13" cy="17.13" r="12.01" fill="none"/></clipPath></defs><g id="Слой_2" data-name="Слой 2"><g id="Layer_1" data-name="Layer 1"><circle cx="17.13" cy="17.13" r="16.13" stroke-miterlimit="10" stroke="#dde3ea" stroke-width="2" fill="none"/><g clip-path="url(#clip-path)"><path d="M8.52 7.81h17.23m-20.4 2.48h23.57M4.4 12.78h25.46m-26.4 2.48H30.8M3.46 17.75H30.8M3.46 20.24H30.8M5.35 22.72h23.57M7.23 25.21h19.8M11 27.69h12.26M16.51 3.88l14.48 12.9M12.19 3.36L32 21M9.75 4.51l21.38 19.06M7.3 5.66l22.97 20.47M5.65 7.52l22.97 20.46M3.99 9.37l22.97 20.47M3.93 12.64l19.8 17.64M3.86 15.91l16.63 14.82M5.37 20.59l10.3 9.17" fill="none" stroke-miterlimit="10" stroke="#616098"/></g></g></g></svg>