<svg xmlns="http://www.w3.org/2000/svg" viewBox="0 0 34.27 34.27"><defs><style>.cls-3{fill:#a08895}</style></defs><g id="Слой_2" data-name="Слой 2"><g id="Layer_1" data-name="Layer 1"><circle cx="17.13" cy="17.13" r="16.13" fill="none" stroke="#dde3ea" stroke-miterlimit="10" stroke-width="2"/><path d="M17.13 9.19A3.85 3.85 0 0 1 21 13h.37A3.85 3.85 0 1 1 18 18.75a1.36 1.36 0 0 1-.85.32 1.31 1.31 0 0 1-.84-.32A3.85 3.85 0 1 1 12.92 13h.37a3.85 3.85 0 0 1 3.84-3.81z" fill="#bfa8b3" fill-rule="evenodd"/><path class="cls-3" d="M17.13 15.23c-.85 2-1.41 3.23 0 3.75 1.41-.52.87-1.79 0-3.75z"/><path class="cls-3" d="M17.13 26.2c-.43-3.67-3.37-5.29 0-7.36 3.37 2.07.43 3.69 0 7.36z"/><path class="cls-3" d="M9.13 21.17c4.14-.59 4.42-4.23 7.92-2.23-2.65 2.67-4.61 2.29-7.92 2.23zm16.01 0c-4.14-.59-4.42-4.23-7.92-2.23 2.64 2.67 4.6 2.29 7.92 2.23z"/></g></g></svg>