<svg xmlns="http://www.w3.org/2000/svg" viewBox="0 0 70.37 67.46"><g id="Слой_2" data-name="Слой 2"><g id="Слой_1-2" data-name="Слой 1"><path d="M68.87 33.73c0 3.42-4.44 6.09-5.44 9.18s.94 8-1 10.62-7.12 2.26-9.81 4.22-3.84 7-7 8-7-2.36-10.41-2.36-7.33 3.36-10.42 2.36-4.37-6.09-7-8-7.85-1.53-9.81-4.22.05-7.43-1-10.62-5.48-5.76-5.48-9.18 4.44-6.09 5.44-9.18-.94-8 1-10.62 7.12-2.26 9.81-4.22 3.84-7 7-8 7 2.36 10.42 2.36S42.51.68 45.6 1.69s4.37 6.09 7 8 7.85 1.53 9.81 4.22 0 7.43 1 10.62 5.46 5.78 5.46 9.2z" fill="none" stroke="#fff" stroke-miterlimit="10" stroke-width="3"/><text transform="translate(18.04 39.51)" font-size="14.4" fill="#364e6e" font-family="FiraSans-Bold,Fira Sans" font-weight="700">Р<tspan x="8.64" y="0" letter-spacing="-.01em">О</tspan><tspan x="18.45" y="0">АГ</tspan></text></g></g></svg>