<svg xmlns="http://www.w3.org/2000/svg" viewBox="0 0 138.44 79.25"><g id="Layer_2" data-name="Layer 2"><path d="M69.15 0H21.58a21.58 21.58 0 0 0 0 43.16H58l7.43-25.29 3.81-13L70.68 0zm-7.3 17.87h-47.2a19.71 19.71 0 0 0-11.09 3.34A18 18 0 0 1 21.22 4.88h44.43zM116.87 0H80.73L68.07 43.16h48.79a21.58 21.58 0 0 0 0-43.16zm-34 4.88h34.68a17.92 17.92 0 0 1 17.53 16.33 19.47 19.47 0 0 0-11-3.31H79.09zM37.63 62.87v-3.25H25.59v19.63h12.04V76h-8.37v-5.14h7.68v-3.25h-7.68v-4.74h8.37zM126.73 76V59.62h-3.66v19.63h11.4V76h-7.74zM74.04 62.87v-3.25H62v19.63h12.04V76h-8.37v-5.14h7.68v-3.25h-7.68v-4.74h8.37zm-20.06-3.25v14.83l-7.49-14.83h-4.9v19.63h3.66V64.39l7.54 14.86h4.85V59.62h-3.66zm62.82 19.63h3.81l-6.17-19.63h-5.15l-6.17 19.63h3.81l1.19-4h7.49l1.19 4zM109.09 72l2.78-9.36 2.78 9.36zm-9.57-12.38l-3.79 15.43-3.5-15.43h-4.91l-3.51 15.43-3.78-15.43h-3.66l4.87 19.63h5.02l3.52-15.87 3.52 15.87h5.01l4.87-19.63h-3.66zM18.11 79.25h4.55l-4.94-7c1.57-.53 2.79-1.87 3-4.33v-3.09c-.08-3.71-1.82-5.16-6-5.2H6.43v19.62h3.67v-6.47h3.57l4.45 6.46zm-8-16.38h4.44c1.69 0 2.47.55 2.47 2.22v2.22c0 1.67-.78 2.22-2.47 2.22H10.1z" fill="#acb9ca" fill-rule="evenodd" id="_1" data-name="1"/></g></svg>