<svg xmlns="http://www.w3.org/2000/svg" viewBox="0 0 257.15 77.62"><g id="Layer_2" data-name="Layer 2"><path d="M0 49.76h6.94L7 8.06H.1V0h17.57l24.25 37.2A28.36 28.36 0 0 1 44 42.1h.24a43.84 43.84 0 0 1-.24-5.44V8.12h-7.15V.06h24.72v8.08h-6.92l-.08 49.68H43.92l-24.25-37a31.69 31.69 0 0 1-2.11-4.88h-.32a36.63 36.63 0 0 1 .4 5.37v28.54h7.15v8L0 57.73zm70.38-25.67H64v-7.73h16.75v24.88c0 5 1.29 8.38 6.49 8.38 7.15 0 11.48-7.3 11.49-14.78V24.11h-6.4V16.4H109v32a1.63 1.63 0 0 0 1.79 1.79h4v7.71h-10.24c-3.66 0-5.36-1.72-5.36-4.64V51.7c0-1.06.09-2 .09-2H99c-.49 1.38-4.73 9.1-15.14 9.08-8.29 0-13.57-4.49-13.55-15.79zm66.03 27.1c5.61 0 9.6-6 9.61-11.21V38.6h-1.71c-4.06 0-13.9.63-13.91 6.89 0 3.09 2.19 5.69 6 5.7m6.94-18.85H146V31c0-5.28-3.32-7.16-7.63-7.17-6.18 0-11.71 4-11.71 4l-3.86-7.23a28.17 28.17 0 0 1 16.43-5.1c11.14 0 17.07 5.8 17 16.37v16.59a1.59 1.59 0 0 0 1.77 1.79h3.74V58H152c-3.82 0-5.28-2-5.28-4.4v-.49A8.06 8.06 0 0 1 147 51h-.16a14.43 14.43 0 0 1-13.1 7.95c-7.07 0-13.73-4.17-13.72-12.62 0-12.68 16.69-14 23.36-13.95m53.71 3.94c0-9.43-4.7-12-10.23-12-6.26 0-9.76 4.54-9.77 11.53 0 7.24 3.72 12.61 10.39 12.62 4.88 0 9.6-2.83 9.61-12.18m-12 30.31c6.34 0 11.71-2.75 11.72-10.39v-2.6a19.91 19.91 0 0 1 .17-2.19h-.16c-2.44 3.66-6 5.76-11.55 5.75-12 0-18.6-9.62-18.59-21s6.46-20.64 18.41-20.62c5 0 10.57 1.89 12.84 6.28h.16a5.55 5.55 0 0 1-.16-1.38c0-2.2 1.47-3.9 4.72-3.9h10.33v7.72h-4a1.58 1.58 0 0 0-1.79 1.62v29.59c0 14.23-11.09 19.58-21.9 19.56a33.68 33.68 0 0 1-14.79-3.6l3.18-7.64a26.77 26.77 0 0 0 11.46 2.78M246 32.74c-.15-5.69-3.65-9.11-8-9.12-5.29 0-9 3.65-10 9.09zm-7.78-17.09c12 0 18.44 8.73 18.43 19.7 0 1.22-.25 3.5-.25 3.5h-28.7c.64 7.64 6.16 11.55 12.42 11.56 6.75 0 12-4.37 12-4.37l4 7.32a26.39 26.39 0 0 1-16.76 5.75c-13.74 0-22.26-10-22.24-21.74 0-12.76 8.65-21.7 21.09-21.68M0 70.45h164.12v7.17H0zm209.84 0h47.31v7.17h-47.31z" fill="#374e6e" id="Слой_1" data-name="Слой 1"/></g></svg>