<svg xmlns="http://www.w3.org/2000/svg" viewBox="0 0 152.55 13.34"><defs><style>.cls-1{fill:#afb8c5}</style></defs><g id="Layer_2" data-name="Layer 2"><g id="Layer_1-2" data-name="Layer 1"><path id="path3028" class="cls-1" d="M68.66 10.12a.61.61 0 0 1-.59.6h-4.52a.65.65 0 0 1-.63-.6v-7c0-.15.09-.47.6-.52h4.54c.51.05.57.37.59.52zM70.22 0h-8.86a2.53 2.53 0 0 0-2.6 2.29v8.63a2.64 2.64 0 0 0 2.6 2.42h8.86a2.64 2.64 0 0 0 2.6-2.42V2.3a2.53 2.53 0 0 0-2.6-2.3M34.38 2.63h-4V0h12.13v2.63h-4v10.71h-4.13zm-5.21 0V0H18.34v13.34h11v-2.63h-6.83V7.86h6.66V5.24h-6.66V2.63zM53.34 4.7c0 .29-.07.54-.59.54h-4.83V2.62h4.83c.59 0 .58.38.58.63zm1.16 3.46a2.61 2.61 0 0 0 2.6-2.44v-3.3A2.66 2.66 0 0 0 54.48 0H43.76v13.34h4.17V8.16h1.66l2.71 5.18h4.79l-3.23-5.18zM9.71 13.34L12.5 5v8.38h4.17V0H11L8.33 6.67 5.63 0H0v13.34h4.17V5L7 13.34h2.71"/><path id="path3030" class="cls-1" d="M118.33 10.09a.6.6 0 0 1-.58.59h-4.47a.65.65 0 0 1-.62-.59v-6.9c0-.15.09-.47.6-.52h4.49c.51.05.56.37.58.52zm1.55-10h-8.77a2.51 2.51 0 0 0-2.58 2.27v8.54a2.61 2.61 0 0 0 2.58 2.39h8.77a2.62 2.62 0 0 0 2.58-2.39V2.34a2.51 2.51 0 0 0-2.58-2.27"/><path id="path3032" class="cls-1" d="M103.34 4.72c0 .29-.07.54-.58.54H98V2.67h4.79c.58 0 .58.38.58.62zm1.14 3.42a2.59 2.59 0 0 0 2.57-2.42V2.47a2.63 2.63 0 0 0-2.59-2.4H93.85v13.21H98V8.15h1.64l2.68 5.13H107l-3.19-5.13h.63"/><path id="path3034" class="cls-1" d="M137.86 10.89V.07h-4.2V10a.6.6 0 0 1-.58.59h-4.47A.65.65 0 0 1 128 10V.07h-4.05v10.82a2.62 2.62 0 0 0 2.58 2.39h8.77a2.62 2.62 0 0 0 2.58-2.39"/><path id="path3036" class="cls-1" d="M148.83 4.74c0 .29-.07.54-.58.54h-4.78V2.69h4.79c.58 0 .58.38.58.62zM150 8.17a2.59 2.59 0 0 0 2.57-2.42V2.49A2.63 2.63 0 0 0 150 .09h-10.66V13.3h4.13V8.17H150"/><path id="path3038" class="cls-1" d="M87.22 8.64v1.45a.6.6 0 0 1-.58.59h-3.45a.65.65 0 0 1-.62-.59v-6.9c0-.15.09-.46.6-.52h3.47c.51.05.56.37.58.52v1.1h5.15V2.34A2.51 2.51 0 0 0 89.79.07H81a2.51 2.51 0 0 0-2.58 2.27v8.54a2.62 2.62 0 0 0 2.58 2.4h8.77a2.62 2.62 0 0 0 2.58-2.39V6.05h-6.61c-.58 0-.58.38-.58.62v1.44c0 .29.07.54.58.54h1.47"/></g></g></svg>