<svg xmlns="http://www.w3.org/2000/svg" viewBox="0 0 56.64 17.79"><defs><style>.cls-1{fill:#afb8c5}</style></defs><g id="Layer_2" data-name="Layer 2"><g id="Layer_1-2" data-name="Layer 1"><path class="cls-1" d="M17.49 1.6h.33l.08-.08V.54l-.04-.11h-3l-.08.08v4.51l.11.22.14.14.2.09h.28l.15-.12.1-.14.07-.21.05-.4.12-.68.11-.55.14-.43.23-.46.28-.37.3-.27.37-.2h.11zm-13 14.87l-.37-.32-.25-.27-.19-.31-.11-.31-.06-.38.05-.37v-.23l1.88-7.56.18-.72v-.46L5.44 5l-.57-2.27-2.69 11.15-.08.32-.17.49-.21.42-.33.43L.9 16l-.3.22-.23.14-.25.2-.12.18V17l.08.18.14.15.23.1h3.93l.22-.12.13-.19v-.22l-.07-.2-.19-.2zm21.82-.08l-.24-.13-.36-.1-.37-.1-.29-.14-.26-.22-.21-.36-.09-.34V.55l-.1-.13-.24-.06h-4.74l-.17.06-.09.11-.07.14v.21l.08 13.66v.18l-.11.54-.12.26-.2.26-.24.18-.33.13-.37.1-.26.09-.2.12-.16.2-.09.26v.27l.12.17.2.1h8.74l.23-.13.15-.2.05-.22-.09-.26-.16-.19zm1.26-12.53l.09.71v.37l.09.24.16.2.13.06h.29l.21-.09.14-.22.06-.27V.49l.02-.11h-3.07l-.09.09v.95l.08.07h.14l.22.06.33.14.31.25.31.36.26.48.17.51.12.54z"/><path class="cls-1" d="M16 16.32l-.24-.23-.27-.22-.19-.18-.23-.37-.2-.45-.14-.48L11.33.94V.81L11.18.6 11 .47 10.83.4h-.26L6.08.36H6L5.78.4l-.14.13v.4l2.46 9.89v.34l-.1.04H5.58v.2l-.07.26-.17.71v.21l.11.06h3.1l.07.11.38 1.76.07.25.09.37v.31l-.1.35-.2.31-.26.28-.18.23-.09.21v.2l.08.19.15.13.21.08h6.97l.26-.11.19-.2.06-.26-.06-.28-.19-.25zM49.74.14l-.11-.06h-.14l-.35.09-.68.26-.46.21-.43.21-.51.31-.6.38-.53.39-.45.38-.48.45-.42.49-.36.48-.37.58-.27.5-.29.63-.23.6-.06.18-.14.43-.15.62-.09.54-.07.55v1.55l.06.44.09.53.12.48.14.47.04.17.14.37.23.49.25.47.27.44.42.58.46.58.49.51.5.45.55.43.6.41.52.3.57.26.54.2.49.14.32.09h.24l.05-.1.05-1.17v-.2l-.09-.08-.25-.17-.2-.22-.21-.29-.2-.38-.14-.46-.05-.42V3.25l.14-.5.31-.46.34-.41.3-.22.14-.09V.14zm6.89.77V.55l-.1-.23-.12-.16-.22-.16h-.26l-.29.08-.32.19-.38.21-.25.08h-.21l-.4-.08-.76-.2L53 .19l-.39-.08-.39-.06h-1.1L51 .14v1.1l.05.12.1.06h.36l.53.11.59.25.32.2.26.2.27.24.25.26L54 3l.26.38.25.4.18.34.15.33.13.34.12.38.09.37.09.37.11.43.18.33.22.19.26.07.26-.07.22-.19.12-.26V.91zM31.77 16.47l-.37-.32-.25-.27-.2-.31-.1-.31-.05-.38v-.6l1.84-7.53.25-.75v-.46L32.72 5l-.56-2.25-2.71 11.13-.08.32-.16.49-.21.42-.34.43-.47.41-.14.09-.18.13-.22.14-.25.2-.12.22V17l.07.18.15.15.21.1h3.9l.22-.12.14-.19v-.22l-.08-.2-.19-.2zm24.6-4l-.24-.12h-.27l-.26.13-.18.2-.12.25-.2.68-.12.37-.13.33-.17.37-.21.34-.22.28-.24.25-.27.22-.22.14-.57.25-.56.11-.69.05h-.53l-.14.06-.07.12v1.3h1.44l.42-.07.37-.09.34-.1.37-.14.34-.16.29-.16.28-.21.25-.2.22-.2.21-.27.22-.31.18-.32.22-.47.14-.36.12-.38.1-.4.07-.37v-.62l-.08-.3-.15-.19z"/><path class="cls-1" d="M43.32 16.32l-.25-.23-.23-.19-.23-.22-.24-.37-.19-.45-.18-.51L38.61.94V.81L38.46.6l-.17-.13-.18-.07h-5.06l-.14.13v.4l2.46 9.89v.34l-.09.05H32.9v.2l-.06.27-.18.7v.21l.11.06h3.14l.06.11.41 1.66.07.25.09.37v.31l-.1.35-.2.31-.26.28-.2.23-.07.21V17l.09.19.14.13.21.08h6.96l.26-.1.19-.2.06-.26-.06-.28-.15-.21z"/></g></g></svg>