<svg xmlns="http://www.w3.org/2000/svg" viewBox="0 0 90.79 29.57"><defs><style>.cls-1{fill:#afb8c5}</style></defs><g id="Layer_2" data-name="Layer 2"><g id="Layer_1-2" data-name="Layer 1"><path class="cls-1" d="M75.26 17.4l-1-4.57c-.23-1.08-.7-1.35-1.44-1.35s-1.21.27-1.44 1.35l-1 4.57c-.55 2.55-1.5 3.44-3.42 3.44v-.28c.34-.09.66-.69 1.31-3.23l1.13-4.54c.44-1.76 1.46-2.9 3.42-2.9s3 1.13 3.42 2.9l1.14 4.54c.64 2.54 1 3.14 1.31 3.23v.28c-1.93 0-2.88-.9-3.43-3.44zM43 11.69h-1.91v3.62H43a1.81 1.81 0 0 0 0-3.62zm-1.9 5.6c0 2.87-.71 3.41-2.63 3.4v-.28c.35-.08.63-.24.63-3.23v-4.26c0-2.1-.14-2.46-.61-2.55v-.27h4.92a3.32 3.32 0 0 1 3.41 3.4 3.33 3.33 0 0 1-3.41 3.41h-2.32zm46.35.11l-.18-.78h-4.76l-.18.78c-.6 2.55-1.42 3.44-3.34 3.44v-.28c.34-.09.68-.69 1.3-3.23l1.14-4.54a3.52 3.52 0 0 1 6.93 0l1.14 4.54c.62 2.54 1 3.14 1.3 3.23v.28c-1.93 0-2.8-.9-3.35-3.44zm-1-4.45c-.28-1.2-.74-1.47-1.56-1.47s-1.29.27-1.56 1.47l-.48 2.1h4.08zm-37.77-.09c0-2.1-.05-2.4-.59-2.55V10h2.51v6.81l.12.08 7.1-7.15h.28v7.39c0 3 .28 3.15.63 3.23v.28c-1.83 0-2.55-.5-2.55-3.39v-3.33l-.12-.08L49 21h-.27v-8.14zm11.91-2.77h7.78v2.21h-.27c-.09-.52-.65-.61-2.55-.61h-2.33v5.56c0 2.87-.71 3.45-2.62 3.44v-.28c.35-.08.62-.24.62-3.23v-4.26c0-2.1-.15-2.46-.62-2.55v-.29zM9.43 5.68l.31.5c.07.12 1.17 2.21 1.78 3.39l.54.55a4.61 4.61 0 0 0 3.18 1.67 4.61 4.61 0 0 0 3.18-1.67l.58-.64c.6-1.16 1.77-3.38 1.84-3.5s.25-.41.31-.5a3.66 3.66 0 0 1 1.66-1.32v-.25A4 4 0 0 0 19 0c-1.74 0-1.9 1.31-3.8 1.31S13.17 0 11.43 0a4 4 0 0 0-3.81 3.91 3.61 3.61 0 0 0 0 .4 3.75 3.75 0 0 1 1.81 1.37z"/><path class="cls-1" d="M4.94 17.54l.57-.14 3.77-.65.69-.34a4.6 4.6 0 0 0 2.57-2.51 4.6 4.6 0 0 0-.6-3.54l-.42-.8-2.76-2.82-.38-.45a3.68 3.68 0 0 1-.74-2l-.24-.07a4 4 0 0 0-4.89 2.42c-.52 1.66.66 2.22.07 4S.71 12.24.15 13.88a4 4 0 0 0 2.54 4.84l.38.11a3.74 3.74 0 0 1 1.87-1.29zm20.5.98l-.54-.22-3.43-1.7-.76-.13a4.6 4.6 0 0 0-3.55.52 4.6 4.6 0 0 0-1.59 3.22l-.13.89c.19 1.29.55 3.77.57 3.92s0 .48 0 .59a3.69 3.69 0 0 1-.56 2l.14.2a4 4 0 0 0 5.38.91c1.39-1 .77-2.18 2.31-3.3s2.43-.17 3.85-1.17a4 4 0 0 0 .79-5.4l-.25-.31a3.74 3.74 0 0 1-2.23-.02z"/><path class="cls-1" d="M30.47 13.68c-.55-1.65-1.84-1.41-2.42-3.21s.59-2.37.07-4A4 4 0 0 0 23.22 4l-.37.14a3.73 3.73 0 0 1-.76 2.14l-.38.45L19 9.48l-.36.68a4.58 4.58 0 0 0-.6 3.54 4.59 4.59 0 0 0 2.57 2.51l.81.4 3.9.67.57.14a3.67 3.67 0 0 1 1.77 1.17l.24-.07a4 4 0 0 0 2.57-4.84zM5.19 18.73l.54-.23 3.55-1.75-3.77.65-.57.14a3.74 3.74 0 0 0-1.86 1.28 3.69 3.69 0 0 0 2.11-.09zM16 25.61v-.59c0-.23-.38-2.63-.57-3.92-.19 1.32-.53 3.65-.55 3.79s0 .48 0 .59a3.75 3.75 0 0 0 .64 2.17 3.7 3.7 0 0 0 .48-2.04z"/><path class="cls-1" d="M25.93 17.41l-.57-.14-3.9-.67 3.43 1.7.54.22a3.74 3.74 0 0 0 2.26.06 3.67 3.67 0 0 0-1.76-1.17zm-11.1 8.07v-.59c0-.23.36-2.47.55-3.79-.07-.46-.11-.76-.11-.76a4.61 4.61 0 0 0-1.59-3.22 4.6 4.6 0 0 0-3.55-.52l-.89.15-3.5 1.76-.54.23a3.69 3.69 0 0 1-2.12.09l-.15.2a4 4 0 0 0 .79 5.4c1.42 1 2.31.06 3.85 1.17s.91 2.26 2.31 3.3a4 4 0 0 0 5.37-.9c.08-.11.15-.22.22-.33a3.74 3.74 0 0 1-.64-2.19z"/></g></g></svg>