<svg xmlns="http://www.w3.org/2000/svg" viewBox="0 0 28.65 20.55"><g id="Layer_2" data-name="Layer 2"><path d="M13.27 3.45a10 10 0 0 0-4.46 2.21 4.19 4.19 0 0 0-1.39 3.49 7.07 7.07 0 0 0 2.44 1.91A22.88 22.88 0 0 0 13 12.3a6 6 0 0 1 .09 2.7 7.09 7.09 0 0 1-1 2.55 8.42 8.42 0 0 1-1.76 2 4.22 4.22 0 0 1-2.06 1 10 10 0 0 1-3.08-.64 7.8 7.8 0 0 1-2.64-1.61 8.45 8.45 0 0 1-1.84-2.51A7.51 7.51 0 0 1 0 12.45a10.68 10.68 0 0 1 .9-4.31 12.34 12.34 0 0 1 2.51-3.72 14.93 14.93 0 0 1 3.86-2.81 16.7 16.7 0 0 1 5-1.61zm15.38 0a10 10 0 0 0-4.46 2.21 4.19 4.19 0 0 0-1.39 3.49 7.07 7.07 0 0 0 2.44 1.91 22.88 22.88 0 0 0 3.11 1.24 6 6 0 0 1 .11 2.7 7.09 7.09 0 0 1-1 2.55 8.42 8.42 0 0 1-1.76 2 4.22 4.22 0 0 1-2.06 1 10 10 0 0 1-3.08-.64 7.8 7.8 0 0 1-2.62-1.61 8.45 8.45 0 0 1-1.84-2.51 7.51 7.51 0 0 1-.71-3.34 10.68 10.68 0 0 1 .9-4.31 12.34 12.34 0 0 1 2.51-3.71 14.93 14.93 0 0 1 3.86-2.81A16.7 16.7 0 0 1 27.6 0z" fill="#eaeaf1" id="Layer_1-2" data-name="Layer 1"/></g></svg>