<svg xmlns="http://www.w3.org/2000/svg" viewBox="0 0 22 12.45"><g id="Слой_2" data-name="Слой 2"><path d="M18.93 7.92c.73.71 1.5 1.38 2.16 2.16a6.18 6.18 0 0 1 .77 1.12.79.79 0 0 1-.49 1.24h-3.2a2.48 2.48 0 0 1-2-.83c-.45-.45-.86-.94-1.28-1.4a3.59 3.59 0 0 0-.58-.52.68.68 0 0 0-1.11.31 3.54 3.54 0 0 0-.34 1.5c0 .75-.26 1-1 1a8.21 8.21 0 0 1-4.58-1 10.15 10.15 0 0 1-3.11-2.94A38.94 38.94 0 0 1 .11 1.32C-.15.75 0 .45.67.43h3.14a.93.93 0 0 1 .87.65A19.54 19.54 0 0 0 6.81 5a3.35 3.35 0 0 0 .8.88c.37.25.65.17.83-.25a2.57 2.57 0 0 0 .18-.82 11.73 11.73 0 0 0 0-2.9 1.2 1.2 0 0 0-1-1.1C7.24.78 7.28.66 7.43.49a1.16 1.16 0 0 1 1-.49H12c.57.11.69.37.77.94V5c0 .22.12.88.52 1s.53-.15.72-.35a12.4 12.4 0 0 0 2-3.13c.24-.5.45-1 .66-1.53a.77.77 0 0 1 .82-.56h3.79c.59.1.75.36.57.93a8.6 8.6 0 0 1-1.39 2.4c-.58.81-1.2 1.58-1.78 2.39s-.48 1.11.17 1.76z" fill="#5676b1" id="Слой_1-2" data-name="Слой 1"/></g></svg>