<svg xmlns="http://www.w3.org/2000/svg" viewBox="0 0 28 17.92"><g id="Слой_2" data-name="Слой 2"><path d="M9.82 10.81h4.38a5.56 5.56 0 1 1-1.51-6 .6.6 0 0 0 .82 0l1.6-1.51a.6.6 0 0 0 0-.88 9 9 0 1 0 2.78 7V7.37H9.82a.6.6 0 0 0-.6.6v2.2a.6.6 0 0 0 .6.64zm15.5-3.2V5.46a.52.52 0 0 0-.52-.53H23a.53.53 0 0 0-.53.53v2.15h-2.16a.52.52 0 0 0-.52.52v1.81a.52.52 0 0 0 .52.53h2.15v2.15a.52.52 0 0 0 .53.52h1.81a.52.52 0 0 0 .52-.52v-2.15h2.15a.53.53 0 0 0 .53-.53V8.13a.52.52 0 0 0-.53-.52z" fill="#f34a38" id="Слой_1-2" data-name="Слой 1"/></g></svg>