<svg xmlns="http://www.w3.org/2000/svg" viewBox="0 0 30.04 23.66"><g id="Layer_2" data-name="Layer 2"><path d="M8 6.83a11.91 11.91 0 0 1 1.61-6A.56.56 0 0 0 9 0a12 12 0 1 0 11.85 19.76.55.55 0 0 0-.44-.92H20a12 12 0 0 1-12-12zM15.2.48l.6 1.73h1.83a.24.24 0 0 1 .14.44L16.32 3.8l.53 1.75a.24.24 0 0 1-.37.27L15 4.78l-1.5 1a.24.24 0 0 1-.37-.27l.53-1.75-1.5-1.07a.25.25 0 0 1 .14-.44h1.83l.6-1.73a.24.24 0 0 1 .46 0zm11.24 13.69l.56 1.67h1.76a.27.27 0 0 1 .16.48l-1.4 1.06.48 1.73a.27.27 0 0 1-.41.3l-1.45-1-1.45 1a.27.27 0 0 1-.41-.3l.51-1.69-1.4-1.06a.27.27 0 0 1 .16-.48h1.76l.58-1.66a.27.27 0 0 1 .51 0zm-.22-12.04l.87 2.5 2.64.06a.31.31 0 0 1 .18.56l-2.1 1.6.76 2.53a.31.31 0 0 1-.48.35l-2.17-1.52-2.17 1.51a.31.31 0 0 1-.48-.35L24 6.84l-2.1-1.6a.31.31 0 0 1 .18-.56l2.64-.06.87-2.5a.31.31 0 0 1 .59 0zm0 0" fill="#dda584" id="Layer_1-2" data-name="Layer 1"/></g></svg>