<svg xmlns="http://www.w3.org/2000/svg" viewBox="0 0 19.13 28.58"><g id="Layer_2" data-name="Layer 2"><g id="Layer_1-2" data-name="Layer 1"><path d="M18 19.82c0-.25.07-.48.07-.74 0-4.69-8.5-17.29-8.5-17.29s-7.18 10.65-8.33 16C7.27 16.93 12.44 20 18 19.82z" stroke="#5e5e96" stroke-miterlimit="10" stroke-width="2" fill="none"/><path d="M1.28 17.8a6.39 6.39 0 0 0-.17 1.28 8.48 8.48 0 0 0 16.89.74C12.44 20 7.27 16.93 1.28 17.8z" fill="#5e5e96" opacity=".5"/><path d="M1.28 17.8a6.39 6.39 0 0 0-.17 1.28 8.48 8.48 0 0 0 16.89.74C12.44 20 7.27 16.93 1.28 17.8z" fill="#5e5e96" stroke="#5e5e96" stroke-miterlimit="10" stroke-width="2"/></g></g></svg>