<svg xmlns="http://www.w3.org/2000/svg" viewBox="0 0 36.05 35.28"><g id="Layer_2" data-name="Layer 2"><path d="M27.49 17.64a9.55 9.55 0 1 1-9.55-9.55 9.55 9.55 0 0 1 9.55 9.55zM5.58 19.23a.22.22 0 0 0 .09-.17v-2.83a.22.22 0 0 0-.09-.17.22.22 0 0 0-.2 0L.14 17.43a.23.23 0 0 0 0 .43l5.24 1.41a.25.25 0 0 0 .2 0zm30.32-1.8L30.66 16a.22.22 0 0 0-.28.21v2.82a.22.22 0 0 0 .08.17.23.23 0 0 0 .2 0l5.23-1.41a.23.23 0 0 0 0-.43zM19.35 29.62h-2.82a.21.21 0 0 0-.17.09.22.22 0 0 0 0 .19l1.41 5.24a.23.23 0 0 0 .43 0l1.41-5.24a.22.22 0 0 0 0-.2.23.23 0 0 0-.17-.09zM16.54 5.67h2.82a.23.23 0 0 0 .18-.09.21.21 0 0 0 0-.19L18.16.14a.23.23 0 0 0-.43 0l-1.41 5.24a.21.21 0 0 0 0 .19.22.22 0 0 0 .18.09zM8.48 25.12a.23.23 0 0 0-.35 0l-2.71 4.7c-.1.17.13.4.31.3l4.7-2.71a.25.25 0 0 0 .11-.16.26.26 0 0 0-.06-.19zm18.93-14.95a.22.22 0 0 0 .19.06.21.21 0 0 0 .16-.11l2.71-4.7a.23.23 0 0 0-.31-.3l-4.7 2.71a.21.21 0 0 0-.11.16.22.22 0 0 0 .06.19zm-.73 14.99a.2.2 0 0 0-.16-.11.2.2 0 0 0-.19.06l-2 2a.22.22 0 0 0-.06.19.23.23 0 0 0 .11.16l4.7 2.71c.17.1.4-.13.3-.3zM7.07 10.14a.18.18 0 0 0 .15.1.22.22 0 0 0 .18-.07l2-2A.22.22 0 0 0 9.46 8a.17.17 0 0 0-.09-.15L5 5.49c-.16-.09-.39.14-.31.31zm0 0" fill="#5e5e96" id="Layer_1-2" data-name="Layer 1"/></g></svg>