<svg xmlns="http://www.w3.org/2000/svg" viewBox="0 0 42.04 40.24"><defs><style>.cls-1,.cls-3{fill:none;stroke:#8faddb;stroke-miterlimit:10;}.cls-1{stroke-width:2px;}.cls-2{fill:#c6daef;}</style></defs><title>3</title><g id="Слой_2" data-name="Слой 2"><g id="Layer_1" data-name="Layer 1"><path class="cls-1" d="M1.23,29.68a.42.42,0,0,1,0-.75l18.53-9.26a2.81,2.81,0,0,1,1.26-.3,2.74,2.74,0,0,1,1.25.3l18.54,9.26a.42.42,0,0,1,0,.75L22.27,39a2.84,2.84,0,0,1-2.51,0Z"/><path class="cls-2" d="M1.23,20.5A.42.42,0,0,1,1,20.12a.39.39,0,0,1,.23-.37l18.53-9.27A2.8,2.8,0,0,1,21,10.19a2.73,2.73,0,0,1,1.25.29l18.54,9.27a.39.39,0,0,1,.23.37.42.42,0,0,1-.23.38L22.27,29.76a2.84,2.84,0,0,1-2.51,0Z"/><path class="cls-3" d="M1.23,20.5A.42.42,0,0,1,1,20.12a.39.39,0,0,1,.23-.37l18.53-9.27A2.8,2.8,0,0,1,21,10.19a2.73,2.73,0,0,1,1.25.29l18.54,9.27a.39.39,0,0,1,.23.37.42.42,0,0,1-.23.38L22.27,29.76a2.84,2.84,0,0,1-2.51,0Z"/><path class="cls-1" d="M1.23,11.31a.42.42,0,0,1,0-.75L19.76,1.29A2.94,2.94,0,0,1,21,1a2.86,2.86,0,0,1,1.25.29l18.54,9.27a.42.42,0,0,1,0,.75L22.27,20.58a2.84,2.84,0,0,1-2.51,0Z"/></g></g></svg>