<svg xmlns="http://www.w3.org/2000/svg" viewBox="0 0 19.19 24"><defs><style>.cls-1,.cls-3{fill:none;stroke-miterlimit:10;}.cls-1{stroke:#fff;}.cls-2{fill:#c6daef;}.cls-3{stroke:#8faddb;}</style></defs><title>Asset 16</title><g id="Layer_2" data-name="Layer 2"><g id="Layer_1-2" data-name="Layer 1"><path class="cls-1" d="M9.6.5a2.3,2.3,0,0,0-.65.09L.71,3A.29.29,0,0,0,.5,3.3v6.82a14.42,14.42,0,0,0,9,13.36.29.29,0,0,0,.22,0,14.41,14.41,0,0,0,6.47-5.22,14.34,14.34,0,0,0,2.52-8.14V3.3A.29.29,0,0,0,18.48,3L10.25.59A2.3,2.3,0,0,0,9.6.5Z"/><path class="cls-2" d="M9.6.5a2.3,2.3,0,0,0-.65.09L.71,3A.29.29,0,0,0,.5,3.3v6.82a14.42,14.42,0,0,0,9,13.36.29.29,0,0,0,.22,0,14.41,14.41,0,0,0,6.47-5.22,14.34,14.34,0,0,0,2.52-8.14V3.3A.29.29,0,0,0,18.48,3L10.25.59A2.3,2.3,0,0,0,9.6.5Z"/><path class="cls-3" d="M9.6.5a2.3,2.3,0,0,0-.65.09L.71,3A.29.29,0,0,0,.5,3.3v6.82a14.42,14.42,0,0,0,9,13.36.29.29,0,0,0,.22,0,14.41,14.41,0,0,0,6.47-5.22,14.34,14.34,0,0,0,2.52-8.14V3.3A.29.29,0,0,0,18.48,3L10.25.59A2.3,2.3,0,0,0,9.6.5Z"/></g></g></svg>