<svg xmlns="http://www.w3.org/2000/svg" viewBox="0 0 51.52 26.89"><defs><style>.cls-1,.cls-3{fill:none;stroke-miterlimit:10;stroke-width:2px;}.cls-1{stroke:#e5cdc1;}.cls-2{fill:#e5cdc1;}.cls-3{stroke:#f2b592;}</style></defs><title>7</title><g id="Слой_2" data-name="Слой 2"><g id="Layer_1" data-name="Layer 1"><polygon class="cls-1" points="28 3.95 28.01 3.94 29 3.37 29 4.65 27.89 4.01 28 3.95"/><path class="cls-2" d="M3.16,10.38A2,2,0,0,1,1.7,9.52c1,.05,2.07.15,3.08.29a2.06,2.06,0,0,1-1.62.57Z"/><polygon class="cls-1" points="22.52 3.37 23.52 3.94 23.52 3.95 23.63 4.01 22.52 4.65 22.52 3.37 22.52 3.37"/><path class="cls-2" d="M7.71,11.53c-1.81-.63-2-1.63-2-1.69,1.57.39,3.09.84,4.57,1.35a2.63,2.63,0,0,1-2.58.34Z"/><path class="cls-2" d="M12.13,13.18c-1.24-.63-1.08-1.43-1.09-1.49A28.37,28.37,0,0,1,14,13.31a1.91,1.91,0,0,1-1.83-.13Z"/><path class="cls-2" d="M15.83,16a1.74,1.74,0,0,1-.66-1.76,24.07,24.07,0,0,1,2.47,2.36,1.87,1.87,0,0,1-1.81-.6Z"/><path class="cls-2" d="M18.63,19.45a1.76,1.76,0,0,1,0-1.54,14.48,14.48,0,0,1,1.28,2.47,1.67,1.67,0,0,1-1.27-.93Z"/><path class="cls-2" d="M35.57,15.83c-.83.68-1.33.47-1.4.46a19.5,19.5,0,0,1,1.91-1.83,1.62,1.62,0,0,1-.51,1.37Z"/><path class="cls-2" d="M32.92,19.36c-.61.89-1.15.83-1.21.84A19.72,19.72,0,0,1,33,17.9a1.65,1.65,0,0,1-.11,1.46Z"/><path class="cls-2" d="M39.56,13.45a3.09,3.09,0,0,1-2.63.18,43.3,43.3,0,0,1,4.19-2.32,2.85,2.85,0,0,1-1.56,2.14Z"/><path class="cls-2" d="M43.78,11.45a2.88,2.88,0,0,1-2.26-.3c1.3-.45,2.63-.84,4-1.18a2.7,2.7,0,0,1-1.74,1.48Z"/><path class="cls-2" d="M48.41,10.62a3.18,3.18,0,0,1-2.54-.9c1.58-.22,3.2-.37,4.84-.45a3.17,3.17,0,0,1-2.3,1.35Z"/><path class="cls-3" d="M50,7.48A25.36,25.36,0,0,0,35.28,12.4c-4.21,3.22-6.54,7.54-6.55,12.14-.1,1.43-3,1.35-3,1.35s-2.79.14-3-1.35c0-4.61-2.34-8.92-6.56-12.14A25.31,25.31,0,0,0,1.52,7.48a10.77,10.77,0,0,1-.1-6.26A88.8,88.8,0,0,0,20.39,4V6.49a1.13,1.13,0,0,0,.54.93,1,1,0,0,0,1.06,0l3.77-2.18,3.77,2.18a1.2,1.2,0,0,0,1.07,0,1.12,1.12,0,0,0,.53-.93V4a88.8,88.8,0,0,0,19-2.75A10.78,10.78,0,0,1,50,7.48Z"/></g></g></svg>