<svg xmlns="http://www.w3.org/2000/svg" xmlns:xlink="http://www.w3.org/1999/xlink" viewBox="0 0 45.18 45.18"><defs><style>.cls-1,.cls-2,.cls-4{fill:none;}.cls-2,.cls-4{stroke:#616098;stroke-miterlimit:10;}.cls-2{stroke-width:2px;}.cls-3{clip-path:url(#clip-path);}</style><clipPath id="clip-path"><circle class="cls-1" cx="22.59" cy="22.59" r="16.08"/></clipPath></defs><title>4</title><g id="Слой_2" data-name="Слой 2"><g id="Layer_1" data-name="Layer 1"><circle class="cls-2" cx="22.59" cy="22.59" r="21.59"/><g class="cls-3"><line class="cls-4" x1="11.06" y1="10.11" x2="34.12" y2="10.11"/><line class="cls-4" x1="6.82" y1="13.43" x2="38.36" y2="13.43"/><line class="cls-4" x1="5.56" y1="16.76" x2="39.62" y2="16.76"/><line class="cls-4" x1="4.29" y1="20.09" x2="40.88" y2="20.09"/><line class="cls-4" x1="4.29" y1="23.41" x2="40.88" y2="23.41"/><line class="cls-4" x1="4.29" y1="26.74" x2="40.88" y2="26.74"/><line class="cls-4" x1="6.82" y1="30.06" x2="38.36" y2="30.06"/><line class="cls-4" x1="9.34" y1="33.39" x2="35.83" y2="33.39"/><line class="cls-4" x1="14.39" y1="36.72" x2="30.79" y2="36.72"/><line class="cls-4" x1="21.75" y1="4.85" x2="41.12" y2="22.11"/><line class="cls-4" x1="15.98" y1="4.16" x2="42.47" y2="27.77"/><line class="cls-4" x1="12.7" y1="5.7" x2="41.32" y2="31.19"/><line class="cls-4" x1="9.43" y1="7.24" x2="40.17" y2="34.62"/><line class="cls-4" x1="7.22" y1="9.72" x2="37.96" y2="37.11"/><line class="cls-4" x1="5.01" y1="12.2" x2="35.74" y2="39.59"/><line class="cls-4" x1="4.91" y1="16.57" x2="31.41" y2="40.18"/><line class="cls-4" x1="4.82" y1="20.95" x2="27.08" y2="40.78"/><line class="cls-4" x1="6.85" y1="27.21" x2="20.63" y2="39.48"/></g></g></g></svg>