<svg xmlns="http://www.w3.org/2000/svg" viewBox="0 0 41.04 20.87"><defs><style>.cls-1{fill:#c6daef;}.cls-2{fill:none;stroke:#8faddb;stroke-miterlimit:10;}</style></defs><title>Asset 14</title><g id="Layer_2" data-name="Layer 2"><g id="Layer_1-2" data-name="Layer 1"><path class="cls-1" d="M.73,10.81a.42.42,0,0,1,0-.75L19.26.79a2.82,2.82,0,0,1,2.51,0l18.53,9.27a.42.42,0,0,1,0,.75L21.77,20.08a2.82,2.82,0,0,1-2.51,0Z"/><path class="cls-2" d="M.73,10.81a.42.42,0,0,1,0-.75L19.26.79a2.82,2.82,0,0,1,2.51,0l18.53,9.27a.42.42,0,0,1,0,.75L21.77,20.08a2.82,2.82,0,0,1-2.51,0Z"/></g></g></svg>