<svg xmlns="http://www.w3.org/2000/svg" viewBox="0 0 12 9.98"><defs><style>.cls-1{fill:#dda584;}</style></defs><title>arrow</title><g id="Слой_2" data-name="Слой 2"><g id="Layer_1" data-name="Layer 1"><path class="cls-1" d="M11.81,4.53,7.47.19a.65.65,0,0,0-.92,0l-.4.4A.64.64,0,0,0,6,1.05a.67.67,0,0,0,.19.47L8.68,4.05h-8A.65.65,0,0,0,0,4.7v.56a.67.67,0,0,0,.65.67H8.71L6.15,8.48A.64.64,0,0,0,6,8.94a.66.66,0,0,0,.19.46l.4.39A.6.6,0,0,0,7,10a.64.64,0,0,0,.46-.19l4.34-4.33A.68.68,0,0,0,12,5a.64.64,0,0,0-.19-.46"/></g></g></svg>