<svg xmlns="http://www.w3.org/2000/svg" viewBox="0 0 45.38 45.38"><defs><style>.cls-1{fill:#cab0b8;fill-rule:evenodd;}</style></defs><title>Asset 1</title><g id="Layer_2" data-name="Layer 2"><g id="Layer_1-2" data-name="Layer 1"><path class="cls-1" d="M34,11.35a16,16,0,0,1-22.68,0,16,16,0,0,1,0,22.68A16,16,0,0,1,34,34,16,16,0,0,1,34,11.35Z"/><polygon class="cls-1" points="11.35 11.35 22.69 0 34.03 11.35 34.03 11.35 45.38 22.69 22.69 0 0 22.69 11.35 11.35 11.35 11.35"/><polygon class="cls-1" points="34.03 34.04 22.69 45.38 45.38 22.69 34.03 34.04"/><polygon class="cls-1" points="11.35 34.04 0 22.69 22.69 45.38 11.35 34.04 11.35 34.04"/></g></g></svg>