<?xml version="1.0" encoding="utf-8"?>
<!-- Generator: Adobe Illustrator 22.0.0, SVG Export Plug-In . SVG Version: 6.00 Build 0)  -->
<svg version="1.1" id="Слой_1" xmlns="http://www.w3.org/2000/svg" xmlns:xlink="http://www.w3.org/1999/xlink" x="0px" y="0px"
	 viewBox="0 0 95.5 98.8" style="enable-background:new 0 0 95.5 98.8;" xml:space="preserve">
<style type="text/css">
	.st0{fill:#99BEE3;}
</style>
<path class="st0" d="M93.5,8.5c-0.7-1.7-2-2.5-3.8-2.5H6.2C4.4,6,3.1,6.8,2.4,8.5c-0.7,1.8-0.4,3.3,0.9,4.6l32.1,32.1v31.7
	c0,1.1,0.4,2.1,1.2,2.9l16.7,16.7c0.8,0.8,1.8,1.2,2.9,1.2c0.5,0,1.1-0.1,1.6-0.3c1.7-0.7,2.5-2,2.5-3.8V45.2l32.1-32.1
	C93.9,11.8,94.2,10.3,93.5,8.5L93.5,8.5z M93.5,8.5"/>
</svg>
