<svg xmlns="http://www.w3.org/2000/svg" viewBox="0 0 28.64 51.61"><defs><style>.cls-1,.cls-3{fill:none;stroke:#616098;stroke-miterlimit:10;}.cls-1{stroke-width:2px;}.cls-2{fill:#b2b2d3;}</style></defs><title>6</title><g id="Слой_2" data-name="Слой 2"><g id="Layer_1" data-name="Layer 1"><path class="cls-1" d="M24,16.2s0,0,0,0V11A9.89,9.89,0,0,0,15.24,1,9.68,9.68,0,0,0,4.67,10.65v5.28c0,.06,0,.22,0,.27C3.29,17.72,1,20.87,1,23v5.67c0,2.1,2.29,5.24,3.67,6.77.06.06,0,.24,0,.33v4.92a9.85,9.85,0,0,0,8.69,9.9A9.68,9.68,0,0,0,24,41V35.91c0-.13-.09-.41,0-.5,1.38-1.53,3.67-4.67,3.67-6.77V23C27.64,20.87,25.35,17.72,24,16.2Z"/><path class="cls-2" d="M18.64,21.5V19A4.32,4.32,0,1,0,10,19v2.37s0,.09,0,.12a5,5,0,0,0-.73,3v2.54a5,5,0,0,0,.73,3s0,.11,0,.15V32.6a4.32,4.32,0,0,0,8.64,0V30.33s0-.18,0-.22a5,5,0,0,0,.73-3V24.53A4.93,4.93,0,0,0,18.64,21.5Z"/><path class="cls-3" d="M18.64,21.5V19A4.32,4.32,0,1,0,10,19v2.37s0,.09,0,.12a5,5,0,0,0-.73,3v2.54a5,5,0,0,0,.73,3s0,.11,0,.15V32.6a4.32,4.32,0,0,0,8.64,0V30.33s0-.18,0-.22a5,5,0,0,0,.73-3V24.53A4.93,4.93,0,0,0,18.64,21.5Z"/></g></g></svg>