<svg xmlns="http://www.w3.org/2000/svg" viewBox="0 0 15 18.2"><defs><style>.cls-1{fill:#8db9e4;}</style></defs><title>arrow 2</title><g id="Слой_2" data-name="Слой 2"><g id="Layer_1" data-name="Layer 1"><path class="cls-1" d="M11,0,9.65,1.33,11.8,3.48H1.88A1.88,1.88,0,0,0,0,5.35V8.16H1.88V5.35H11.8L9.66,7.5,11,8.82l3.75-3.75a.94.94,0,0,0,0-1.32Z"/><path class="cls-1" d="M13.12,12.85H3.2l2.14-2.14L4,9.38.27,13.13a.94.94,0,0,0,0,1.32L4,18.2l1.32-1.32L3.2,14.73h9.92A1.88,1.88,0,0,0,15,12.85V10H13.12Z"/></g></g></svg>