<svg xmlns="http://www.w3.org/2000/svg" viewBox="0 0 42.1 32.31"><defs><style>.cls-1{fill:#e5cdc1;}.cls-2,.cls-3{fill:none;stroke:#f2b592;stroke-miterlimit:10;}.cls-3{stroke-width:2px;}</style></defs><title>2</title><g id="Слой_2" data-name="Слой 2"><g id="Layer_1" data-name="Layer 1"><path class="cls-1" d="M1.58,1.51,5.71,16.43A3.79,3.79,0,0,0,9.15,19h5.72c.58-3.43,3.13-6,6.18-6s5.59,2.58,6.18,6H33a3.83,3.83,0,0,0,3.48-2.73l4.09-14.8A3.36,3.36,0,0,0,38.8,1H3.3A3.36,3.36,0,0,0,1.58,1.51Z"/><path class="cls-2" d="M1.58,1.51,5.71,16.43A3.79,3.79,0,0,0,9.15,19h5.72c.58-3.43,3.13-6,6.18-6s5.59,2.58,6.18,6H33a3.83,3.83,0,0,0,3.48-2.73l4.09-14.8A3.36,3.36,0,0,0,38.8,1H3.3A3.36,3.36,0,0,0,1.58,1.51Z"/><path class="cls-1" d="M17.38,19.54a3.67,3.67,0,1,0,3.67-3.67A3.68,3.68,0,0,0,17.38,19.54Z"/><path class="cls-2" d="M17.38,19.54a3.67,3.67,0,1,0,3.67-3.67A3.68,3.68,0,0,0,17.38,19.54Z"/><path class="cls-3" d="M2.08,1H40A1.08,1.08,0,0,1,41.1,2.08V22.52a8.79,8.79,0,0,1-8.79,8.79H9.79A8.79,8.79,0,0,1,1,22.52V2.08A1.08,1.08,0,0,1,2.08,1Z"/></g></g></svg>