<svg xmlns="http://www.w3.org/2000/svg" viewBox="0 0 60.83 61.08"><defs><style>.cls-1,.cls-2{fill:#364e6e;}.cls-2{fill-rule:evenodd;}</style></defs><title>РОАГ 2</title><g id="Слой_2" data-name="Слой 2"><g id="Слой_1-2" data-name="Слой 1"><path class="cls-1" d="M3.58,24.32l.24-.82-1.3-.37a2.17,2.17,0,0,0,.1-.28,1.77,1.77,0,0,0,0-1.29A1.23,1.23,0,0,0,1.81,21a1.14,1.14,0,0,0-.95.14,1.76,1.76,0,0,0-.61,1A6.65,6.65,0,0,0,0,23.28l3.58,1ZM.81,22.63a1.32,1.32,0,0,1,.07-.34c.12-.41.38-.59.72-.49s.51.44.39.88a1.35,1.35,0,0,1-.11.26L.81,22.63ZM1.66,18a1.84,1.84,0,0,0,1,2.51,1.76,1.76,0,0,0,2.49-.81,1.8,1.8,0,0,0-1-2.52A1.76,1.76,0,0,0,1.66,18Zm.6.31c.25-.54.92-.58,1.53-.3s1,.84.78,1.37-.86.61-1.53.3-1-.85-.78-1.37Zm4.6-3.47a2.23,2.23,0,0,1-.25.67A1.12,1.12,0,0,1,4.93,16a1.12,1.12,0,0,1-.46-1.67A1.92,1.92,0,0,1,5,13.73l-.49-.49a2.08,2.08,0,0,0-.62.71,1.92,1.92,0,0,0,.67,2.8A1.8,1.8,0,0,0,7.15,16a2.39,2.39,0,0,0,.35-.92l-.64-.22ZM9,12.18a2.18,2.18,0,0,1-.36.63A1.13,1.13,0,0,1,7,13a1.13,1.13,0,0,1-.21-1.72,1.85,1.85,0,0,1,.56-.47l-.42-.56a2.2,2.2,0,0,0-.71.61,1.92,1.92,0,0,0,.26,2.87,1.79,1.79,0,0,0,2.71-.35,2.44,2.44,0,0,0,.49-.85L9,12.18Zm-1.5-2.8,2.57,2.77.71-.66L10.46,10A9.65,9.65,0,0,0,10,8.55h0c.3.39.64.78,1,1.21l.76.82L12.4,10,9.84,7.26l-.65.59L9.61,9.5c.11.44.26,1,.41,1.44v0c-.32-.4-.72-.85-1.13-1.29l-.76-.83-.58.54Zm3.3-2.92L13,9.57l.8-.56-.14-1.55A9.7,9.7,0,0,0,13.41,6h0a15.45,15.45,0,0,0,.85,1.35l.63.92.65-.45L13.41,4.68l-.72.5.18,1.68c0,.46.12,1,.21,1.49l0,0c-.26-.44-.59-.94-.93-1.44L11.49,6l-.65.45ZM11,5.33a.72.72,0,0,0,1.07.1c.41-.28.55-.63.3-1l-.47.32c.11.19.12.33,0,.43s-.27,0-.4-.14L11,5.33Zm7.29.22a2.43,2.43,0,0,1-.59.43A1.13,1.13,0,0,1,16,5.41a1.12,1.12,0,0,1,.52-1.65,1.75,1.75,0,0,1,.71-.2l-.15-.68a2.08,2.08,0,0,0-.91.26,1.93,1.93,0,0,0-1,2.72,1.8,1.8,0,0,0,2.61.81,2.62,2.62,0,0,0,.8-.58l-.41-.54Zm-.38-3.1L19.22,6l.79-.3L19.44,4.2l.16-.06c.43-.16.7.08,1,.43a5.3,5.3,0,0,0,.57.67L22,4.91a9.5,9.5,0,0,1-.84-1A1.21,1.21,0,0,0,20,3.41l.63-2-1,.37-.41,1.84-.07,0-.56-1.47-.8.3Zm3.72-1.28.84,3.69,1-.22.44-1.5a11.32,11.32,0,0,0,.33-1.45h0a15.83,15.83,0,0,0,.3,1.57l.24,1.09.77-.18L24.63.48l-.85.19L23.31,2.3c-.12.45-.26,1-.35,1.46h0c-.08-.5-.21-1.09-.34-1.68L22.35,1l-.77.17Zm7.88,2.65.83-.07L29.78,0,28.67.09l-.3,1.28c-.09.43-.18.94-.25,1.39h0c-.12-.44-.27-.9-.42-1.33L27.21.21,26.07.3l.06,3.78L26.92,4l-.05-1.44c0-.47,0-1-.05-1.56h0c.13.48.3,1,.46,1.44l.51,1.43.67-.05.34-1.51c.11-.45.22-1,.3-1.49h0c0,.55.1,1.1.16,1.55l.17,1.44ZM34.18.3a1.85,1.85,0,0,0-2.06,1.76,1.78,1.78,0,0,0,1.55,2.12,1.81,1.81,0,0,0,2.07-1.77A1.77,1.77,0,0,0,34.18.3Zm-.1.68c.58.06.84.68.76,1.35s-.47,1.24-1.05,1.18-.85-.63-.77-1.36S33.5.91,34.08,1ZM37,.87l-1,3.64a7.78,7.78,0,0,0,.87.29,2.42,2.42,0,0,0,1.6,0A1.12,1.12,0,0,0,39.1,4a1,1,0,0,0-.19-1A1.75,1.75,0,0,0,38,2.48a2.75,2.75,0,0,0-.45-.09l.16-.63,1.61.42.17-.67L37,.87ZM37.34,3a2.27,2.27,0,0,1,.3.06.9.9,0,0,1,.51.31.52.52,0,0,1,.08.46.58.58,0,0,1-.29.38.85.85,0,0,1-.59,0,2.26,2.26,0,0,1-.31-.1L37.34,3ZM41,1.94l-1.64,3.4L43,7.08,42.62,8l.58.28.74-1.43-.34-.19L45,3.83l-.75-.36L42.86,6.24,42,5.84l1.33-2.78L42.6,2.7,41.27,5.48l-.84-.4L41.76,2.3,41,1.94ZM47.21,7l-1.16-.77.44-.66,1.22.82.39-.58-1.94-1.3-2.1,3.15,2,1.34.39-.59-1.3-.86.5-.74,1.16.77L47.21,7Zm1.87,3.41a2.12,2.12,0,0,1-.63-.35,1.13,1.13,0,0,1-.16-1.72A1.13,1.13,0,0,1,50,8.14a1.85,1.85,0,0,1,.47.56l.57-.41a2.3,2.3,0,0,0-.62-.72,1.93,1.93,0,0,0-2.87.25,1.8,1.8,0,0,0,.34,2.72,2.31,2.31,0,0,0,.86.48l.32-.6Zm.5,1.63.58.63,2.25-2.08.7.76.53-.48-2-2.14-.52.49.68.74-2.25,2.08Zm1.57,1.74a7.42,7.42,0,0,0,.52.77,2.39,2.39,0,0,0,1.17,1,1,1,0,0,0,.87-.17A.94.94,0,0,0,54,14.21h0a.87.87,0,0,0,1,0,.85.85,0,0,0,.32-.81,2.11,2.11,0,0,0-.51-1,6.18,6.18,0,0,0-.72-.83l-3,2.24Zm3-1.23a2.11,2.11,0,0,1,.24.28c.24.31.25.58,0,.75s-.52.09-.79-.27l-.17-.23.7-.53Zm-1.19.9.18.24c.26.34.34.7,0,.93s-.64.06-.87-.25l-.2-.27.85-.65Zm4.3,2.71a1.84,1.84,0,0,0-2.62-.66A1.77,1.77,0,0,0,53.82,18a1.81,1.81,0,0,0,2.64.68,1.77,1.77,0,0,0,.82-2.5Zm-.61.31c.28.52-.07,1.08-.67,1.41s-1.28.32-1.56-.18,0-1.06.67-1.42,1.29-.32,1.56.19Zm-.73,6.75.25.8,3.55-1.3-.32-1.07-1.32,0-1.41.05h0c.4-.21.81-.46,1.2-.7l1.1-.73-.34-1.08L55,20l.23.76,1.39-.36,1.52-.39h0c-.44.23-.92.51-1.31.76l-1.28.81.19.64h1.55c.47,0,1,0,1.52,0v0c-.53.16-1,.34-1.48.48l-1.37.48Z"/><path class="cls-1" d="M1.86,42l-.79.64.34.86L4.5,41l-.42-1.05-4,.34.33.83,1-.11.4,1Zm.24-1.13.83-.09.75-.11h0c-.19.13-.42.3-.61.45l-.66.52-.31-.78Zm3,1.46L1.8,44.2l.42.74,1.38-.8.08.14c.23.4,0,.72-.27,1a5.27,5.27,0,0,0-.57.68l.46.8a10.8,10.8,0,0,1,.81-1,1.22,1.22,0,0,0,.36-1.22l2.13.3L6.07,44l-1.89-.11,0-.07L5.51,43l-.43-.73Zm1.7,2.83L5.39,47.69a.16.16,0,0,1-.13.11.57.57,0,0,1-.59-.21,1.38,1.38,0,0,1-.14-.25l-.6.35a1.08,1.08,0,0,0,.2.38,1.2,1.2,0,0,0,1,.53,5.93,5.93,0,0,0,1.67-.27l1.91-.48-.52-.74-1.32.43-.72.26h0l.44-.64.77-1.22-.56-.8Zm1.84,2.66L6,50.57l3.23,3,2.59-2.78-.62-.57L9.12,52.48l-.69-.64,2.11-2.27L9.93,49,7.82,51.27l-.69-.64,2.11-2.27-.62-.57Zm4.61,5.87-1.15-.79.45-.65,1.21.84.41-.58-1.93-1.33-2.16,3.12,2,1.38.4-.58-1.28-.89.51-.74,1.15.8.4-.58Zm-.43,2.49.74.43.68-1.18c.06.05.15.1.24.16a1.8,1.8,0,0,0,1.27.27,1.22,1.22,0,0,0,.76-.61,1.1,1.1,0,0,0,.08-1,1.8,1.8,0,0,0-.85-.84,7.53,7.53,0,0,0-1.05-.52L12.8,56.15Zm2.31-2.3a1.57,1.57,0,0,1,.32.15c.37.21.48.51.31.82a.65.65,0,0,1-1,.17,1.54,1.54,0,0,1-.24-.17l.56-1ZM18.86,55a1.84,1.84,0,0,0-2.44,1.19,1.78,1.78,0,0,0,1,2.45,1.81,1.81,0,0,0,2.46-1.19,1.77,1.77,0,0,0-1-2.45Zm-.26.63c.55.21.64.88.39,1.51s-.77,1.09-1.31.88-.68-.82-.41-1.52.78-1.08,1.33-.87ZM20,59.5a7.25,7.25,0,0,0,.88.31,2.44,2.44,0,0,0,1.53.09,1,1,0,0,0,.6-.67,1,1,0,0,0-.46-1.11h0a.85.85,0,0,0,.83-.6.84.84,0,0,0-.23-.85,2.11,2.11,0,0,0-1-.51A6.93,6.93,0,0,0,21,55.91L20,59.5Zm1.7-2.8a2.82,2.82,0,0,1,.36.08c.37.11.54.31.46.59s-.36.38-.79.26l-.28-.08.25-.85Zm-.42,1.44.28.08c.42.12.7.36.6.73s-.49.43-.86.32l-.31-.1.29-1Zm2.43.52-.1.57,1.46.26.1-.56-1.46-.27ZM26,57l-.35,3.78.86.08.29-3.08,1.43.13.06-.7L26,57Zm2.67.25,0,3.8h1l.76-1.38a11.29,11.29,0,0,0,.63-1.36h0c-.05.5-.05,1-.05,1.6v1.12h.79l0-3.8H31l-.8,1.51c-.22.41-.47.91-.66,1.36h0c0-.51,0-1.11,0-1.72V57.27Zm3.68-.05L33,61l.86-.13-.24-1.57,1.4-.21.23,1.57.85-.13-.57-3.75-.85.12.22,1.45-1.4.21-.21-1.44-.86.13Zm6.36.28-1.36.34-.19-.77,1.44-.36L38.47,56l-2.28.56.92,3.69,2.35-.58L39.29,59l-1.52.37-.21-.88,1.35-.33-.16-.68Zm.26-1.7,1.29,3.58.8-.29-.54-1.5.16-.05c.43-.16.71.09,1,.44a6.47,6.47,0,0,0,.56.69l.87-.32a11.32,11.32,0,0,1-.82-1,1.23,1.23,0,0,0-1.13-.57l.68-2-1,.35L40.42,57l-.07,0-.54-1.49-.8.29Zm4.42-2a1.84,1.84,0,0,0-.7,2.62,1.78,1.78,0,0,0,2.49.87,1.82,1.82,0,0,0,.71-2.65,1.78,1.78,0,0,0-2.5-.84Zm.3.61c.52-.28,1.09.08,1.41.69s.31,1.29-.2,1.56-1.06,0-1.41-.68-.31-1.3.2-1.57Zm1.86-1.81,1,1.34a2,2,0,0,1,.54,1.22.77.77,0,0,1-.23.42l.49.49a1.49,1.49,0,0,0,.5-.59c.26-.62-.08-1.29-.66-2.08l-.53-.73.7-.51,1.83,2.5.69-.51-2.25-3.06-2.06,1.51Zm3.68-3.06a1.83,1.83,0,0,0,0,2.71,1.78,1.78,0,0,0,2.63.16,1.82,1.82,0,0,0,0-2.74,1.77,1.77,0,0,0-2.63-.13Zm.45.51c.43-.41,1.07-.22,1.54.27s.66,1.16.24,1.57-1,.26-1.55-.28-.65-1.16-.23-1.56ZM50.87,48l2.92,2.43.55-.66-2.38-2,.92-1.11-.54-.45L50.87,48Zm2.46-3.42a1.84,1.84,0,0,0,.72,2.62,1.77,1.77,0,0,0,2.58-.5A1.81,1.81,0,0,0,55.91,44a1.77,1.77,0,0,0-2.58.52Zm.57.38c.31-.5,1-.47,1.56-.11s.92,1,.61,1.45-.93.51-1.56.12-.92-1-.61-1.46ZM58,44.27a6.63,6.63,0,0,0,.41-.84,2.4,2.4,0,0,0,.27-1.51,1,1,0,0,0-.59-.67.94.94,0,0,0-1.16.33h0a.85.85,0,0,0-.5-.89.83.83,0,0,0-.86.13,2.15,2.15,0,0,0-.64.95,8.26,8.26,0,0,0-.36,1.05L58,44.27Zm-2.58-2a3.7,3.7,0,0,1,.12-.35c.15-.35.38-.5.64-.38s.34.4.16.82l-.11.26-.81-.35Zm1.38.58.11-.26c.17-.4.44-.66.8-.51s.37.53.21.89a1.21,1.21,0,0,1-.14.3l-1-.42Z"/><path class="cls-1" d="M29.08,29.36a2.13,2.13,0,0,0-2.14,2.31A2.05,2.05,0,0,0,29,33.91a2.1,2.1,0,0,0,2.17-2.32,2.05,2.05,0,0,0-2.1-2.23Zm0,.79c.68,0,1.06.68,1.06,1.47s-.38,1.5-1.06,1.5S28,32.51,28,31.65s.39-1.5,1.07-1.5Zm3.39-.72v1.18a5.12,5.12,0,0,1-.18,1.46,4.26,4.26,0,0,1-.42,1l-.36,0,0,1.88h.76l.05-1.12h2.58L35,35h.76l.05-1.88-.44,0V29.43Zm.92.81h1V33H32.87a3.67,3.67,0,0,0,.31-.75,5.19,5.19,0,0,0,.19-1.45v-.59Zm4.91-.88a2.13,2.13,0,0,0-2.14,2.31,2.05,2.05,0,0,0,2.07,2.24,2.1,2.1,0,0,0,2.17-2.32,2.05,2.05,0,0,0-2.1-2.23Zm0,.79c.68,0,1.06.68,1.06,1.47s-.38,1.5-1.06,1.5-1.07-.61-1.07-1.47.39-1.5,1.07-1.5ZM41,29.43v4.39a8.09,8.09,0,0,0,1.08.07,2.73,2.73,0,0,0,1.79-.51,1.29,1.29,0,0,0,.42-1,1.23,1.23,0,0,0-.51-1.05A2.1,2.1,0,0,0,42.57,31,4.5,4.5,0,0,0,42,31v-.76H44v-.81Zm1,2.3a2.23,2.23,0,0,1,.36,0,1.16,1.16,0,0,1,.66.19.61.61,0,0,1,.23.5.67.67,0,0,1-.21.51,1,1,0,0,1-.65.23,2.29,2.29,0,0,1-.39,0V31.73Zm3,2.11h1V32.26a1.72,1.72,0,0,0,.34,0,2,2,0,0,0,1.43-.46,1.39,1.39,0,0,0,.41-1.05,1.29,1.29,0,0,0-.47-1,2.09,2.09,0,0,0-1.35-.36,7.27,7.27,0,0,0-1.35.1v4.35Zm1-3.65a1.65,1.65,0,0,1,.41,0c.5,0,.78.24.78.65s-.33.72-.86.72a1.48,1.48,0,0,1-.33,0v-1.3Zm5.44,1H49.79v-.91h1.72v-.82H48.79v4.41H51.6V33H49.79V32h1.62v-.81Zm.87-1.73v4.41h1V32h1.65v1.85h1V29.43h-1v1.69H53.28V29.43Zm6.46-.07a2.13,2.13,0,0,0-2.15,2.31,2.06,2.06,0,0,0,2.08,2.24,2.09,2.09,0,0,0,2.16-2.32,2.05,2.05,0,0,0-2.09-2.23Zm0,.79c.69,0,1.07.68,1.07,1.47s-.39,1.5-1.06,1.5-1.07-.61-1.07-1.47.39-1.5,1.06-1.5Z"/><polygon class="cls-2" points="26.28 37.37 59.74 37.37 59.74 38.6 26.28 38.6 26.28 37.37 26.28 37.37"/><polygon class="cls-2" points="26.28 25.36 59.74 25.36 59.74 26.59 26.28 26.59 26.28 25.36 26.28 25.36"/><polygon class="cls-2" points="8.63 19.43 18.28 19.43 18.28 26.15 25 26.15 25 35.8 18.28 35.8 18.28 42.53 8.63 42.53 8.63 35.8 1.91 35.8 1.91 26.15 8.63 26.15 8.63 19.43 8.63 19.43"/></g></g></svg>