<svg xmlns="http://www.w3.org/2000/svg" viewBox="0 0 45.18 45.18"><defs><clipPath id="clip-path"><circle cx="22.59" cy="22.59" r="16.08" fill="none"/></clipPath></defs><g id="Слой_2" data-name="Слой 2"><g id="Layer_1" data-name="Layer 1"><circle cx="22.59" cy="22.59" r="21.59" stroke-width="2" stroke="#bfa8b3" stroke-miterlimit="10" fill="none"/><g clip-path="url(#clip-path)"><path d="M11.06 10.11h23.06m-27.3 3.32h31.54m-32.8 3.33h34.06M4.29 20.09h36.59M4.29 23.41h36.59M4.29 26.74h36.59M6.82 30.06h31.54M9.34 33.39h26.49m-21.44 3.33h16.4M21.75 4.85l19.37 17.26M15.98 4.16l26.49 23.61M12.7 5.7l28.62 25.49M9.43 7.24l30.74 27.38M7.22 9.72l30.74 27.39M5.01 12.2l30.73 27.39M4.91 16.57l26.5 23.61M4.82 20.95l22.26 19.83M6.85 27.21l13.78 12.27" fill="none" stroke="#bfa8b3" stroke-miterlimit="10"/></g></g></g></svg>