<svg xmlns="http://www.w3.org/2000/svg" viewBox="0 0 60.15 59.31"><defs><style>.cls-1{fill:#364e6e;}</style></defs><title>GMP 2</title><g id="Слой_2" data-name="Слой 2"><g id="Слой_1-2" data-name="Слой 1"><polygon class="cls-1" points="2.45 30.54 3.06 31.74 4.42 31.98 3.39 32.92 3.62 34.26 2.44 33.61 1.22 34.26 1.48 32.89 0.49 31.93 1.83 31.74 2.45 30.54"/><path class="cls-1" d="M5.44,24.52l0,.92a1.86,1.86,0,0,1-.38,1l-.71.7a2.15,2.15,0,0,1-.93.33h-1a3,3,0,0,1-1.06-.33l-.8-.61L.1,25.65A2.6,2.6,0,0,1,0,24.52l.25-.78.43-.62.61-.38.83-.13L2,23.28l-.53.1-.44.26-.3.47-.13.51.06.86.39.61.67.45.78.22.79,0L4,26.55l.6-.47.28-.75V24.6L4.63,24l-.51-.4-.65-.2-.26,1.65L2.63,25,3,22.68l2.75.44-.07.46L5,23.64Z"/><path class="cls-1" d="M3.62,21l-.47-.57L3,19.76,3.14,19l.46-.69.57-.41.74-.07.77.18.67.39.47.55.17.71-.14.81-.44.68-.6.38-.73.11-.77-.18ZM5.17,21l.51-.08.39-.25.27-.4.08-.46-.11-.45L6,18.93l-.51-.31-.61-.16-.52.08-.41.23-.25.4,0,.47.09.46.33.4.53.32Z"/><path class="cls-1" d="M5.6,16.45l-.35-.63-.08-.72.3-.76L6,13.73l.67-.26.72,0,.73.32.58.52.37.63,0,.71-.3.77-.53.61-.68.25-.73,0L6.19,17Zm1.53.21.5,0,.45-.19.34-.32.12-.44v-.49l-.25-.44-.48-.42-.57-.23-.52,0-.42.19L6,14.63l-.15.45v.44l.26.47.48.41Z"/><path class="cls-1" d="M12.23,12l-.36-.36v.7L11.5,13l-.65.46-.68.11-.69-.2-.64-.44-.52-.55-.22-.7.06-.69.37-.67.25-.19.29-.23.35-.09h.4v0L8.38,8.44,8.8,8l3.88,3.55Zm-2.49.75.48.14.49-.08.45-.31.25-.46v-.48l-.2-.48-.31-.37-.45-.33L10,10.22l-.49,0-.49.3-.26.5v.51l.21.45.37.39Z"/><polygon class="cls-1" points="13.7 4.08 17.32 7.11 16.59 2.45 17.43 1.96 20.02 6.56 19.44 6.88 17.27 3.06 17.27 3.08 17.98 7.69 17.47 8.01 13.87 5 16.01 8.81 15.44 9.15 12.85 4.57 13.7 4.08"/><path class="cls-1" d="M24.21,5.39l-.42,0L23.53,5l-.47.59-.65.34-.48.1-.44-.07-.35-.24-.24-.44-.06-.55.2-.4.32-.3.43-.25.44-.21.41-.2.22-.19V2.83l-.17-.28-.24-.13h-.3l-.29.06-.59.33-.11.62-.6.19,0-.62.23-.47.42-.35.57-.25.51-.11h.48l.41.23.27.48L24,4.43l.14.28.18,0,.16,0,.16.45ZM22.82,3.78l-.36.15L22,4.12l-.33.22-.18.28V5l.14.24.2.12.26,0,.26,0,.48-.25.28-.31.12-.32,0-.31-.17-.6Z"/><path class="cls-1" d="M25.56,1.16l.08.58A1.42,1.42,0,0,1,26.79.89l.65.06.43.24.28.39.12.59.3,2.48L28,4.72l-.31-2.55-.26-.55-.59-.14-.5.14L26,1.91l-.17.41v.49L26,5l-.6,0L25,1.21Z"/><polygon class="cls-1" points="32.36 4.74 32.41 4.15 32.38 4.15 31.84 4.65 31.11 4.74 30.48 4.63 30.12 4.31 29.9 3.87 29.86 3.29 30.03 0.8 30.64 0.84 30.5 3.41 30.66 3.99 31.23 4.21 31.73 4.15 32.08 3.92 32.33 3.56 32.41 3.09 32.56 0.95 33.17 0.97 32.95 4.79 32.36 4.74"/><polygon class="cls-1" points="34.25 1.71 34.38 1.16 35.02 1.25 35.11 0.74 35.52 0.09 36.33 0 36.54 0.04 36.72 0.14 36.61 0.67 36.45 0.61 36.27 0.55 35.9 0.57 35.72 0.88 35.64 1.4 36.35 1.55 36.27 2.05 35.52 1.95 34.91 5.17 34.31 5.04 34.91 1.82 34.25 1.71"/><path class="cls-1" d="M39.17,6.46l-.31-.24V5.73l-.7.25-.75-.13-.47-.18-.3-.31L36.49,5l.07-.49L36.82,4l.39-.21.44-.06.49,0,.48.08.43.08.3-.06.19-.23,0-.33-.1-.25-.25-.16-.28-.13-.67-.06-.44.44L37.21,3l.33-.51L38,2.18l.56,0,.6.09.47.22.38.29.21.4,0,.56-.61,1.85-.08.3L39.6,6l.21,0-.18.44ZM39,4.38l-.42-.08-.41-.09h-.4l-.33.1-.2.34,0,.24.08.21.2.17.26.13.53.08.41-.08.3-.2L39.1,5l.19-.61Z"/><path class="cls-1" d="M43.86,5.18l-.45-.49-.58-.12-.47.12L42,5l-.3.46-.18.46,0,.49.12.46.39.37.79.09.6-.45.58.3a1.74,1.74,0,0,1-1,.71,1.49,1.49,0,0,1-1.22-.2l-.61-.45-.31-.65v-.7l.28-.75.46-.64.62-.43.68-.14.77.25.53.39.3.43.17.53-.17.61-.57-.29Z"/><polygon class="cls-1" points="47.53 6.82 47.19 7.26 46.6 6.82 45.22 8.75 45.12 8.9 45.12 9.03 45.22 9.15 45.4 9.33 45.63 9.46 45.29 9.93 44.91 9.65 44.6 9.37 44.43 9.09 44.43 8.79 44.66 8.44 46.08 6.46 45.56 6.08 45.9 5.61 46.42 6.01 47.07 5.08 47.6 5.46 46.92 6.36 47.53 6.82"/><polygon class="cls-1" points="47.84 12.22 48.28 11.77 48.27 11.75 47.54 11.79 46.91 11.4 46.52 10.91 46.42 10.44 46.58 9.95 46.91 9.5 48.65 7.69 49.08 8.13 47.31 9.97 47.07 10.52 47.33 11.07 47.75 11.36 48.19 11.43 48.61 11.28 48.98 11.01 50.49 9.44 50.92 9.85 48.28 12.63 47.84 12.22"/><path class="cls-1" d="M52.4,11.6l-.65.51v0a1.49,1.49,0,0,1,.89,0l.68.52-.51.43-.49-.44-.49-.16-.53.14-.56.32L49.39,14,49,13.52l3-2.36Z"/><path class="cls-1" d="M54.16,14.08l-3.23,2.09-.3-.53,3.17-2.11Zm.23-.93.61-.41.35.53-.63.43Z"/><path class="cls-1" d="M55.29,16l-.56.26,0,0a1.22,1.22,0,0,1,1.14.8l.19.59-.08.5-.28.39-.5.3L53,20l-.28-.57L55,18.25l.44-.44-.06-.61-.33-.42-.38-.18-.43,0-.46.14-1.92,1-.3-.56L55,15.43Z"/><path class="cls-1" d="M53.21,24.15A1.72,1.72,0,0,1,52.4,23l-.09-.56.06-.51.19-.46.45-.31.2.63L53,22l-.12.3,0,.31.07.32.26.47.36.25.47.09.59-.1.24-.09-.64-.32-.36-.64-.05-.75.28-.63.48-.46.68-.32.71-.11.72.11.6.38.41.75,0,.67-.32.6.52-.15.17.58-3.35.94a2,2,0,0,1-1.48,0m1.43-1.27.41.24.53.09.52-.09.47-.19.36-.32.21-.4v-.5l-.28-.51L56.48,21l-.5,0-.51.08-.48.19-.42.31-.21.39,0,.54Z"/><path class="cls-1" d="M60.15,30a1.58,1.58,0,0,1-.39,1.2,1.46,1.46,0,0,1-1.14.43,1.58,1.58,0,0,1-1.16-.39A1.53,1.53,0,0,1,57,30l0-1.59H54.86v-.68l5.28-.07Zm-2.51-.22a1.33,1.33,0,0,0,.23.88l.73.26.69-.27a1.15,1.15,0,0,0,.28-.87V28.4l-2,0Z"/><polygon class="cls-1" points="58.39 33.82 57.59 33.7 58.19 34.37 58.25 35.21 57.59 35.13 57.59 34.48 57.35 34 56.94 33.7 56.27 33.52 54.6 33.26 54.69 32.65 58.47 33.21 58.39 33.82"/><path class="cls-1" d="M53.35,38.07l.24-.34h.46L53.8,37l.08-.74.17-.48.34-.34.38-.16.48.06.49.26L56,36l0,.44V37l-.07.49,0,.41,0,.29.24.2.34,0,.24-.16.16-.24.13-.26,0-.7-.46-.44L56.8,36l.55.31.24.45.08.57-.1.59-.19.49-.29.39-.4.21-.57,0-1.86-.55L54,38.34l-.17.11,0,.24-.45-.16Zm2.09-.29.07-.42.05-.41v-.41l-.12-.31-.3-.21-.29,0-.21.13-.17.19-.08.27-.1.5.12.44.19.29.26.15.61.19Z"/><path class="cls-1" d="M54.77,42.75l.45-.46.15-.58-.15-.5-.33-.36-.48-.31-.49-.16-.47-.05L53,40.5l-.36.42-.09.77.45.6-.25.55A1.79,1.79,0,0,1,52,41.9a1.56,1.56,0,0,1,.17-1.22l.47-.62.62-.34.69,0,.75.25.69.45.41.58.14.74-.21.77L55.4,43l-.45.36-.52.16-.62-.11.32-.59Z"/><polygon class="cls-1" points="53.26 46.42 52.78 46.1 53.21 45.49 51.26 44.17 51.1 44.1 50.97 44.1 50.87 44.17 50.72 44.38 50.56 44.63 50.07 44.3 50.35 43.88 50.63 43.57 50.87 43.41 51.16 43.41 51.56 43.61 53.53 44.99 53.92 44.43 54.38 44.74 54.04 45.28 54.95 45.93 54.6 46.44 53.66 45.79 53.26 46.42"/><path class="cls-1" d="M52.12,47.85l-3-2.4.42-.49,3,2.4Zm1,0,.59.44-.38.51-.6-.48Z"/><path class="cls-1" d="M49,50.22l.6-.3.32-.5,0-.51-.21-.45L49.39,48,49,47.68l-.46-.16h-.48l-.43.29-.33.66.23.73-.47.43a1.9,1.9,0,0,1-.39-1.16,1.76,1.76,0,0,1,.59-1.08l.65-.4.65-.14.67.21.65.48.48.67.19.68-.07.71-.46.68-.48.35-.54.19-.54-.06-.55-.3L48.4,50Z"/><path class="cls-1" d="M43.25,51a1.84,1.84,0,0,1,.72-.88l.72-.32h.71l.64.32.58.6.33.72,0,.74-.23.65-.5.54-.8.33-.77-.15-.64-.43-.45-.56,2.34-1.62-.31-.35-.41-.21-.46,0-.51.25-.44.52,0,.63-.52.37A1.77,1.77,0,0,1,43.25,51m1.53,1.94.39.13h.4l.41-.16.32-.31.12-.4v-.41l-.16-.39L44.43,52.6Z"/><path class="cls-1" d="M38.14,57.92l1-.07.69-.41.38-.64.1-.73-.17-.8-.34-.77-.53-.57-.66-.29-.84.1-.55.31-.34.45-.17.56.06.6-.62.23a2.26,2.26,0,0,1,.14-1.7,2.15,2.15,0,0,1,1.35-1L38.72,53l.9.3.7.69.5,1A4.35,4.35,0,0,1,41,56.08l-.17,1-.58.81-.91.53-.79.14-.73-.1-.63-.38-.48-.63.67-.22Z"/><path class="cls-1" d="M31.77,54.72a1.83,1.83,0,0,1,1-.45l.79.06.64.33.4.59.22.78,0,.8-.31.68L34,58l-.68.23-.88-.12-.58-.44L31.49,57l-.15-.72,2.85-.33-.13-.49-.27-.35-.41-.24-.52,0-.62.27-.28.58-.62.08a1.51,1.51,0,0,1,.43-1m.44,2.42.28.31.37.17.42,0,.42-.14.3-.27.21-.36,0-.42-2.18.25Z"/><polygon class="cls-1" points="29.61 58.34 29.61 57.51 29.61 57.51 29.01 58.19 28.18 58.39 28.18 57.75 28.85 57.62 29.29 57.33 29.52 56.83 29.61 56.22 29.67 54.5 30.27 54.5 30.19 58.34 29.61 58.34"/><polygon class="cls-1" points="25.64 58.02 25.68 57.46 26.46 57.56 26.71 55.2 26.71 55.04 26.69 54.9 26.55 54.84 26.29 54.81 26.01 54.78 26.07 54.22 26.55 54.28 26.95 54.36 27.21 54.5 27.38 54.78 27.38 55.23 27.09 57.62 27.73 57.7 27.67 58.26 27.01 58.19 26.86 59.31 26.25 59.24 26.4 58.09 25.64 58.02"/><path class="cls-1" d="M24.31,58.48l-.12.74-.64-.14.15-.74Zm-.46-.8.77-3.75.61.13-.77,3.77Z"/><polygon class="cls-1" points="22.99 56.94 22.83 57.45 22.21 57.28 22.04 57.83 21.62 58.43 20.78 58.43 20.58 58.36 20.41 58.26 20.57 57.76 20.73 57.83 20.87 57.9 21.25 57.92 21.49 57.62 21.63 57.1 20.9 56.89 21.04 56.35 21.79 56.55 22.68 53.46 23.3 53.62 22.38 56.75 22.99 56.94"/><path class="cls-1" d="M19.7,57.16l-.27.76-.59-.24.29-.73Zm-.36-.84,1.39-3.59.58.24L20,56.52Z"/><path class="cls-1" d="M16.14,54l.47.47.55.16.49-.11.4-.33.32-.45.16-.51,0-.47-.17-.45L18,52l-.74-.13-.61.47-.57-.3a1.69,1.69,0,0,1,1-.73,2,2,0,0,1,1.23.21l.58.48.34.6v.72l-.28.74-.46.66-.63.42-.68.11L16.38,55l-.49-.37-.35-.45-.1-.5.1-.62.6.28Z"/><path class="cls-1" d="M13.7,48.41l.19.35-.12.46.74,0,.66.32.37.36.19.37,0,.42-.21.46-.43.36-.46.09-.42-.1-.42-.21-.48-.22L13,50.9l-.3-.08-.23.15-.16.32,0,.27.14.24.24.2.62.28.56-.28.53.41-.49.38-.49.07-.59-.13-.47-.32-.4-.34-.28-.4-.06-.41.22-.55,1.2-1.57.19-.25-.09-.19L13,48.63l.29-.42Zm-.5,2.06.39.2.34.21.39.15h.33L15,50.8l.11-.23v-.25l-.14-.23-.2-.17-.47-.29-.4,0-.33.1-.26.18-.4.5Z"/><polygon class="cls-1" points="8.92 49.18 9.3 48.79 9.82 49.32 11.51 47.65 11.64 47.52 11.64 47.39 11.59 47.27 11.41 47.07 11.21 46.88 11.59 46.49 11.96 46.82 12.22 47.14 12.33 47.43 12.23 47.71 11.99 48.06 10.25 49.78 10.72 50.24 10.32 50.62 9.88 50.16 9.06 50.93 8.6 50.53 9.42 49.72 8.92 49.18"/><path class="cls-1" d="M7.58,48.7,7,49.22l-.4-.5.59-.5Zm.13-.89,2.93-2.47.4.5L8.11,48.25Z"/><path class="cls-1" d="M7.67,46l-.75.06-.63-.28-.57-.57-.33-.77.05-.71.36-.65.6-.51.73-.32.7-.06.67.25.56.59.29.78v.69L9,45.12l-.58.53Zm.83-1.3.24-.48,0-.45-.18-.44L8.28,43l-.45-.17H7.32l-.58.29-.45.39L6,44l0,.47.18.43.3.35.43.19.55-.08L8,45.1Z"/><path class="cls-1" d="M3.76,41.53l.57-.25h0a1.28,1.28,0,0,1-1.1-.88l-.17-.61.13-.49.32-.36.49-.3,2.31-1,.25.59-2.39,1-.45.4,0,.61.28.42.38.24.41,0,.47-.11,2-.84.22.6L4,42.07Z"/><path class="cls-1" d="M20.08,29.28a3.91,3.91,0,0,1-3.19,1.56c-3.59,0-5.69-2.67-5.69-6s2.1-6.13,5.69-6.13a4.69,4.69,0,0,1,4.9,4.09H19.34a2.35,2.35,0,0,0-2.45-1.92c-2.27,0-3.16,1.92-3.16,4s.89,3.88,3.16,3.88a2.48,2.48,0,0,0,2.76-2.5H17.11V24.29H22v6.28H20.35Z"/><polygon class="cls-1" points="24.05 18.98 27.62 18.98 30.33 26.95 30.35 26.95 32.93 18.98 36.54 18.98 36.54 30.57 34.14 30.57 34.14 22.33 34.11 22.33 31.26 30.57 29.3 30.57 26.46 22.43 26.4 22.43 26.4 30.57 24.05 30.57 24.05 18.98"/><path class="cls-1" d="M38.76,19H44c2.9,0,4,1.83,4,3.7s-1.12,3.72-4,3.72H41.32v4.17H38.76Zm2.56,5.45h2c1.2,0,2.24-.28,2.24-1.75S44.49,21,43.29,21h-2Z"/><path class="cls-1" d="M20.83,40.87l-.65.71-1.05-.94a3.67,3.67,0,0,1-1.74.45,3.58,3.58,0,0,1-3.53-3.89,3.53,3.53,0,1,1,7,0,4,4,0,0,1-1,2.86Zm-3.37-1.66.63-.72.89.8a3.28,3.28,0,0,0,.63-2.09c0-1.39-.63-2.76-2.22-2.76s-2.27,1.37-2.27,2.76.67,2.85,2.27,2.85l.82-.18Z"/><path class="cls-1" d="M26.64,40.92H25.46v-.76h0A1.81,1.81,0,0,1,23.9,41c-1.37,0-2-.69-2-2.07V35.57H23.1v3.27c0,.94.41,1.29,1,1.29,1,0,1.32-.63,1.32-1.44V35.57h1.2Z"/><path class="cls-1" d="M32.35,39.72l.27.41.29,0v.82l-.75.11c-.49,0-.82-.14-.92-.64a2.58,2.58,0,0,1-1.86.64c-.94,0-1.83-.49-1.83-1.52,0-1.37,1.08-1.56,2.09-1.66.84-.18,1.59-.08,1.59-.78s-.63-.72-1.1-.72c-.66,0-1.14.28-1.2.85H27.77c.07-1.37,1.24-1.78,2.42-1.78s2.16.42,2.16,1.55Zm-1.2-1.47a4.74,4.74,0,0,1-1.42.3c-.52.08-1,.27-1,.91s.69.67,1.11.67,1.31-.26,1.31-1Z"/><rect class="cls-1" x="33.63" y="33.54" width="1.2" height="7.38"/><path class="cls-1" d="M36.12,34.63h1.22V33.54H36.12Zm0,6.29h1.22V35.57H36.12Z"/><path class="cls-1" d="M38,35.57H39V34h1.16v1.61h1v.86h-1v2.86c0,.49,0,.76.56.76l.47-.07v.94l-.74,0C39.17,41,39,40.49,39,39.6V36.43H38Z"/><path class="cls-1" d="M41.44,35.57h1.33l1.38,4h0l1.34-4h1.24l-2.07,5.64c-.38,1-.67,1.81-1.89,1.81L42,43V42l.58.1c.52,0,.67-.31.81-.74l.14-.42Z"/></g></g></svg>