<svg xmlns="http://www.w3.org/2000/svg" viewBox="0 0 17 17"><defs><style>.cls-1{fill:#364e6e;}</style></defs><title>Radar</title><g id="Layer_2" data-name="Layer 2"><g id="Capa_1" data-name="Capa 1"><path class="cls-1" d="M8.5,5.41A3.09,3.09,0,1,0,11.59,8.5,3.09,3.09,0,0,0,8.5,5.41Zm6.91,2.32A7,7,0,0,0,9.27,1.59V0H7.73V1.59A7,7,0,0,0,1.59,7.73H0V9.27H1.59a7,7,0,0,0,6.14,6.14V17H9.27V15.41a7,7,0,0,0,6.14-6.14H17V7.73H15.41ZM8.5,13.91A5.41,5.41,0,1,1,13.91,8.5,5.41,5.41,0,0,1,8.5,13.91Z"/></g></g></svg>