<svg xmlns="http://www.w3.org/2000/svg" viewBox="0 0 49.47 39.5"><defs><style>.cls-1,.cls-3{fill:none;stroke:#c39dcb;stroke-miterlimit:10;}.cls-1{stroke-width:2px;}.cls-2{fill:#e1d1e5;}</style></defs><title>Ресурс 15</title><g id="Слой_2" data-name="Слой 2"><g id="Layer_1" data-name="Layer 1"><path class="cls-1" d="M16.72,31a38.37,38.37,0,0,0,6.7-.16,3.71,3.71,0,0,0,3.15-4.07,1.11,1.11,0,0,0-.77-.94l-7.93-2.4c-3.91-1.18-8.21,1-8.39,1.09l-.06,0-7.9,4.77a1.1,1.1,0,0,0-.37,1.49"/><path class="cls-1" d="M6.73,38.5a1.07,1.07,0,0,0,.69-.25l2.94-2.46,12.65,2a7.08,7.08,0,0,0,5.27-1.27L44,25.05a1.08,1.08,0,0,0,.29-1.39h0A4.12,4.12,0,0,0,38.77,22c-2.78,1.24-11.91,5.69-12,5.71"/><path class="cls-2" d="M30.71,2.45a9,9,0,0,0-4.51,9.3c6.41-7.59,16-7.22,16-7.22s-13.58,4.66-17.57,14c-.32.74,1.48,1.7,1.89.82a22,22,0,0,1,2.92-4.54c2.51.93,6.85,2,9.93-.14C43.45,11.79,43,5.41,48.87,2.31c1.37-.73-11.44-3.76-18.16.14Z"/><path class="cls-3" d="M30.71,2.45a9,9,0,0,0-4.51,9.3c6.41-7.59,16-7.22,16-7.22s-13.58,4.66-17.57,14c-.32.74,1.48,1.7,1.89.82a22,22,0,0,1,2.92-4.54c2.51.93,6.85,2,9.93-.14C43.45,11.79,43,5.41,48.87,2.31c1.37-.73-11.44-3.76-18.16.14Z"/></g></g></svg>