<svg xmlns="http://www.w3.org/2000/svg" viewBox="0 0 12 12"><defs><style>.cls-1{fill:#374e6e;}</style></defs><title>Asset 2</title><g id="Layer_2" data-name="Layer 2"><g id="Layer_1-2" data-name="Layer 1"><path class="cls-1" d="M11.73,10.43,9.26,8a4.94,4.94,0,0,0,.89-2.88,5,5,0,0,0-.4-2A5,5,0,0,0,7,.4,5.06,5.06,0,0,0,3.1.4,5,5,0,0,0,.4,3.1,5.06,5.06,0,0,0,.4,7a5,5,0,0,0,2.7,2.7,5,5,0,0,0,2,.4A4.94,4.94,0,0,0,8,9.26l2.47,2.47a.86.86,0,0,0,.65.27.92.92,0,0,0,.66-1.57ZM7.36,7.36a3.11,3.11,0,0,1-2.28.95,3.11,3.11,0,0,1-2.28-.95,3.11,3.11,0,0,1-.95-2.28,3.11,3.11,0,0,1,.95-2.28,3.11,3.11,0,0,1,2.28-.95,3.11,3.11,0,0,1,2.28.95,3.11,3.11,0,0,1,.95,2.28,3.11,3.11,0,0,1-.95,2.28Zm0,0"/></g></g></svg>