<svg xmlns="http://www.w3.org/2000/svg" viewBox="0 0 34.27 34.27"><defs><style>.cls-1{fill:none;stroke:#dde3ea;stroke-miterlimit:10;stroke-width:2px;}.cls-2{fill:#dde3ea;fill-rule:evenodd;}.cls-3{fill:#bcc7d3;}</style></defs><title>no active</title><g id="Слой_2" data-name="Слой 2"><g id="Layer_1" data-name="Layer 1"><circle class="cls-1" cx="17.13" cy="17.13" r="16.13"/><path class="cls-2" d="M17.13,9.19A3.85,3.85,0,0,1,21,13v0l.37,0A3.85,3.85,0,1,1,18,18.75a1.36,1.36,0,0,1-.85.32,1.31,1.31,0,0,1-.84-.32A3.85,3.85,0,1,1,12.92,13l.37,0v0A3.85,3.85,0,0,1,17.13,9.19Z"/><path class="cls-3" d="M17.13,15.23c-.85,2-1.41,3.23,0,3.75C18.54,18.46,18,17.19,17.13,15.23Z"/><path class="cls-3" d="M17.13,26.2c-.43-3.67-3.37-5.29,0-7.36C20.5,20.91,17.56,22.53,17.13,26.2Z"/><path class="cls-3" d="M9.13,21.17c4.14-.59,4.42-4.23,7.92-2.23C14.4,21.61,12.44,21.23,9.13,21.17Z"/><path class="cls-3" d="M25.14,21.17c-4.14-.59-4.42-4.23-7.92-2.23C19.86,21.61,21.82,21.23,25.14,21.17Z"/></g></g></svg>