<svg xmlns="http://www.w3.org/2000/svg" xmlns:xlink="http://www.w3.org/1999/xlink" viewBox="0 0 34.27 34.27"><defs><style>.cls-1,.cls-2,.cls-4{fill:none;}.cls-2{stroke:#dde3ea;stroke-width:2px;}.cls-2,.cls-4{stroke-miterlimit:10;}.cls-3{clip-path:url(#clip-path);}.cls-4{stroke:#c39dcb;}</style><clipPath id="clip-path"><circle class="cls-1" cx="17.13" cy="17.13" r="12.01"/></clipPath></defs><title>normal 2</title><g id="Слой_2" data-name="Слой 2"><g id="Layer_1" data-name="Layer 1"><circle class="cls-2" cx="17.13" cy="17.13" r="16.13"/><g class="cls-3"><line class="cls-4" x1="8.52" y1="7.81" x2="25.75" y2="7.81"/><line class="cls-4" x1="5.35" y1="10.29" x2="28.92" y2="10.29"/><line class="cls-4" x1="4.4" y1="12.78" x2="29.86" y2="12.78"/><line class="cls-4" x1="3.46" y1="15.26" x2="30.8" y2="15.26"/><line class="cls-4" x1="3.46" y1="17.75" x2="30.8" y2="17.75"/><line class="cls-4" x1="3.46" y1="20.24" x2="30.8" y2="20.24"/><line class="cls-4" x1="5.35" y1="22.72" x2="28.92" y2="22.72"/><line class="cls-4" x1="7.23" y1="25.21" x2="27.03" y2="25.21"/><line class="cls-4" x1="11" y1="27.69" x2="23.26" y2="27.69"/><line class="cls-4" x1="16.51" y1="3.88" x2="30.99" y2="16.78"/><line class="cls-4" x1="12.19" y1="3.36" x2="32" y2="21"/><line class="cls-4" x1="9.75" y1="4.51" x2="31.13" y2="23.57"/><line class="cls-4" x1="7.3" y1="5.66" x2="30.27" y2="26.13"/><line class="cls-4" x1="5.65" y1="7.52" x2="28.62" y2="27.98"/><line class="cls-4" x1="3.99" y1="9.37" x2="26.96" y2="29.84"/><line class="cls-4" x1="3.93" y1="12.64" x2="23.73" y2="30.28"/><line class="cls-4" x1="3.86" y1="15.91" x2="20.49" y2="30.73"/><line class="cls-4" x1="5.37" y1="20.59" x2="15.67" y2="29.76"/></g></g></g></svg>