<svg xmlns="http://www.w3.org/2000/svg" viewBox="0 0 70.37 67.46"><defs><style>.cls-1{fill:none;stroke:#fff;stroke-miterlimit:10;stroke-width:3px;}.cls-2{font-size:14.4px;fill:#364e6e;font-family:FiraSans-Bold, Fira Sans;font-weight:700;}.cls-3{letter-spacing:-0.01em;}</style></defs><title>Ресурс 5</title><g id="Слой_2" data-name="Слой 2"><g id="Слой_1-2" data-name="Слой 1"><path class="cls-1" d="M68.87,33.73c0,3.42-4.44,6.09-5.44,9.18s.94,8-1,10.62-7.12,2.26-9.81,4.22-3.84,7-7,8-7-2.36-10.41-2.36-7.33,3.36-10.42,2.36-4.37-6.09-7-8-7.85-1.53-9.81-4.22.05-7.43-1-10.62S1.5,37.15,1.5,33.73s4.44-6.09,5.44-9.18-.94-8,1-10.62,7.12-2.26,9.81-4.22,3.84-7,7-8,7,2.36,10.42,2.36S42.51.68,45.6,1.69s4.37,6.09,7,8,7.85,1.53,9.81,4.22,0,7.43,1,10.62S68.87,30.31,68.87,33.73Z"/><text class="cls-2" transform="translate(18.04 39.51)">Р<tspan class="cls-3" x="8.64" y="0">О</tspan><tspan x="18.45" y="0">АГ</tspan></text></g></g></svg>