<svg xmlns="http://www.w3.org/2000/svg" viewBox="0 0 257.15 77.62"><defs><style>.cls-1{fill:#374e6e;}</style></defs><title>Asset 1</title><g id="Layer_2" data-name="Layer 2"><g id="Слой_1" data-name="Слой 1"><path class="cls-1" d="M0,49.76H6.94L7,8.06H.1V0L17.67,0l24.25,37.2A28.36,28.36,0,0,1,44,42.1h.24A43.84,43.84,0,0,1,44,36.66L44,8.12H36.85V.06l24.72,0V8.14H54.65l-.08,49.68-10.65,0-24.25-37a31.69,31.69,0,0,1-2.11-4.88h-.32a36.63,36.63,0,0,1,.4,5.37l0,28.54h7.15v8L0,57.73Z"/><path class="cls-1" d="M70.38,24.09H64V16.36l16.75,0,0,24.88c0,5,1.29,8.38,6.49,8.38,7.15,0,11.48-7.3,11.49-14.78l0-10.73H92.33V16.4l16.67,0,0,32a1.63,1.63,0,0,0,1.79,1.79h4V57.9l-10.24,0c-3.66,0-5.36-1.72-5.36-4.64V51.7c0-1.06.09-2,.09-2H99c-.49,1.38-4.73,9.1-15.14,9.08-8.29,0-13.57-4.49-13.55-15.79Z"/><path class="cls-1" d="M136.41,51.19c5.61,0,9.6-6,9.61-11.21V38.6h-1.71c-4.06,0-13.9.63-13.91,6.89,0,3.09,2.19,5.69,6,5.7m6.94-18.85H146V31c0-5.28-3.32-7.16-7.63-7.17-6.18,0-11.71,4-11.71,4L122.8,20.6a28.17,28.17,0,0,1,16.43-5.1c11.14,0,17.07,5.8,17,16.37l0,16.59A1.59,1.59,0,0,0,158,50.25h3.74V58L152,58c-3.82,0-5.28-2-5.28-4.4v-.49A8.06,8.06,0,0,1,147,51h-.16a14.43,14.43,0,0,1-13.1,7.95c-7.07,0-13.73-4.17-13.72-12.62,0-12.68,16.69-14,23.36-13.95"/><path class="cls-1" d="M197.09,36.32c0-9.43-4.7-12-10.23-12-6.26,0-9.76,4.54-9.77,11.53,0,7.24,3.72,12.61,10.39,12.62,4.88,0,9.6-2.83,9.61-12.18m-12,30.31c6.34,0,11.71-2.75,11.72-10.39v-2.6a19.91,19.91,0,0,1,.17-2.19h-.16c-2.44,3.66-6,5.76-11.55,5.75-12,0-18.6-9.62-18.59-21s6.46-20.64,18.41-20.62c5,0,10.57,1.89,12.84,6.28h.16a5.55,5.55,0,0,1-.16-1.38c0-2.2,1.47-3.9,4.72-3.9l10.33,0v7.72h-4a1.58,1.58,0,0,0-1.79,1.62l0,29.59c0,14.23-11.09,19.58-21.9,19.56a33.68,33.68,0,0,1-14.79-3.6l3.18-7.64a26.77,26.77,0,0,0,11.46,2.78"/><path class="cls-1" d="M246,32.74c-.15-5.69-3.65-9.11-8-9.12-5.29,0-9,3.65-10,9.09Zm-7.78-17.09c12,0,18.44,8.73,18.43,19.7,0,1.22-.25,3.5-.25,3.5l-28.7,0c.64,7.64,6.16,11.55,12.42,11.56,6.75,0,12-4.37,12-4.37l4,7.32a26.39,26.39,0,0,1-16.76,5.75c-13.74,0-22.26-10-22.24-21.74,0-12.76,8.65-21.7,21.09-21.68"/><rect class="cls-1" y="70.45" width="164.12" height="7.17"/><rect class="cls-1" x="209.84" y="70.45" width="47.31" height="7.17"/></g></g></svg>