<svg xmlns="http://www.w3.org/2000/svg" viewBox="0 0 57.09 32.63"><defs><style>.cls-1{fill:#acb9ca;}</style></defs><title>Emblem</title><g id="Layer_2" data-name="Layer 2"><g id="Layer_1-2" data-name="Layer 1"><path class="cls-1" d="M15.62,25.88V24.54h-5v8.09h5V31.29H12.17V29.17h3.17V27.83H12.17v-2Zm-8,6.75H9.45l-2-2.87A1.84,1.84,0,0,0,8.63,28V26.69c0-1.53-.75-2.13-2.46-2.14H2.75v8.09H4.27V30H5.74l1.84,2.66ZM4.27,25.88H6.1c.7,0,1,.23,1,.92v.92c0,.69-.32.91-1,.91H4.27V25.88Zm36.87-1.34L39.58,30.9l-1.45-6.36h-2L34.66,30.9,33.1,24.54H31.59l2,8.09h2.07l1.45-6.54,1.45,6.54h2.07l2-8.09Zm7.13,8.09L47.78,31H44.69l-.49,1.65H42.62l2.55-8.09h2.12l2.55,8.09Zm-3.18-3h2.29l-1.15-3.86-1.15,3.86Zm-22.73-5.1v6.12l-3.09-6.12h-2v8.09h1.51V26.51l3.11,6.12h2V24.54Zm8.28,1.34V24.54h-5v8.09h5V31.29H27.18V29.17h3.17V27.83H27.18v-2Zm21.73,5.41V24.54H50.85v8.09h4.7V31.29Z"/><path class="cls-1" d="M29.15,0a2.73,2.73,0,0,0-.33,0H8.9a8.9,8.9,0,1,0,0,17.8h15l.35-1.2H8.87A7.59,7.59,0,0,1,3,13.74a9.53,9.53,0,0,0,3.44.64H24.93l2.06-7H6A8.1,8.1,0,0,0,1.47,8.75,7.42,7.42,0,0,1,8.75,2H28.56Z"/><path class="cls-1" d="M48.19,0H33.32l-.59,2H48.58a7.42,7.42,0,0,1,7.28,6.73,8.11,8.11,0,0,0-4.57-1.37H31.16l-2.06,7H50.94a9.56,9.56,0,0,0,3.44-.64,7.6,7.6,0,0,1-5.91,2.86h-20l-.35,1.2H48.19a8.9,8.9,0,1,0,0-17.8Z"/><path class="cls-1" d="M48.58,2H32.73L31.16,7.37H51.29a8.11,8.11,0,0,1,4.57,1.37A7.42,7.42,0,0,0,48.58,2Z"/><path class="cls-1" d="M50.94,14.38H29.1l-.65,2.22h20a7.6,7.6,0,0,0,5.91-2.86A9.54,9.54,0,0,1,50.94,14.38Z"/><path class="cls-1" d="M28.56,2H8.75A7.42,7.42,0,0,0,1.47,8.75,8.1,8.1,0,0,1,6,7.38H27Z"/><path class="cls-1" d="M24.93,14.38H6.4A9.51,9.51,0,0,1,3,13.74,7.59,7.59,0,0,0,8.87,16.6H24.28Z"/></g></g></svg>