<svg xmlns="http://www.w3.org/2000/svg" viewBox="0 0 138.44 79.25"><defs><style>.cls-1{fill:#acb9ca;fill-rule:evenodd;}</style></defs><title>RENEWAL</title><g id="Layer_2" data-name="Layer 2"><g id="_1" data-name="1"><path class="cls-1" d="M69.15,0H21.58a21.58,21.58,0,0,0,0,43.16H58l7.43-25.29h0l3.81-13h0L70.68,0Zm-7.3,17.87H16.27c-.52,0-1,0-1.5,0h-.12A19.71,19.71,0,0,0,3.56,21.21,18,18,0,0,1,21.22,4.88H65.65Z"/><path class="cls-1" d="M116.87,0H80.73L68.07,43.16h48.79a21.58,21.58,0,0,0,0-43.16Zm-34,4.88h34.68a17.92,17.92,0,0,1,17.53,16.33,19.47,19.47,0,0,0-11-3.31H124c-.48,0-1,0-1.49,0H79.09Z"/><polygon class="cls-1" points="37.63 62.87 37.63 59.62 25.59 59.62 25.59 79.25 37.63 79.25 37.63 76 29.26 76 29.26 70.86 36.94 70.86 36.94 67.61 29.26 67.61 29.26 62.87 37.63 62.87"/><polygon class="cls-1" points="126.73 76 126.73 59.62 123.07 59.62 123.07 79.25 134.47 79.25 134.47 76 126.73 76"/><polygon class="cls-1" points="74.04 62.87 74.04 59.62 62 59.62 62 79.25 74.04 79.25 74.04 76 65.67 76 65.67 70.86 73.35 70.86 73.35 67.61 65.67 67.61 65.67 62.87 74.04 62.87"/><polygon class="cls-1" points="53.98 59.62 53.98 74.45 46.49 59.62 41.59 59.62 41.59 79.25 45.25 79.25 45.25 64.39 52.79 79.25 57.64 79.25 57.64 59.62 53.98 59.62"/><path class="cls-1" d="M116.8,79.25h3.81l-6.17-19.63h-5.15l-6.17,19.63h3.81l1.19-4h7.49l1.19,4ZM109.09,72h0l2.78-9.36L114.65,72Z"/><polygon class="cls-1" points="99.52 59.62 95.73 75.05 92.23 59.62 87.32 59.62 83.81 75.05 80.03 59.62 76.37 59.62 81.24 79.25 86.26 79.25 89.78 63.38 93.3 79.25 98.31 79.25 103.18 59.62 99.52 59.62"/><path class="cls-1" d="M18.11,79.25h4.55l-4.94-7c1.57-.53,2.79-1.87,3-4.33V64.83c-.08-3.71-1.82-5.16-6-5.2H6.43V79.25H10.1V72.78h3.57l4.45,6.46Zm-8-16.38h4.44c1.69,0,2.47.55,2.47,2.22v2.22c0,1.67-.78,2.22-2.47,2.22H10.1Z"/></g></g></svg>