<svg xmlns="http://www.w3.org/2000/svg" viewBox="0 0 132 26.08"><defs><style>.cls-1{fill:#afb8c5;}</style></defs><title>Perehrestok</title><g id="Layer_2" data-name="Layer 2"><g id="Layer_1-2" data-name="Layer 1"><g id="Слой_2" data-name="Слой 2"><g id="Layer_1-3" data-name="Layer 1"><path class="cls-1" d="M20,9.58a2.59,2.59,0,0,1,2.56,2.62v.06a2.59,2.59,0,0,1-2.5,2.68H20A2.71,2.71,0,0,1,17.88,14L16.1,12.23l1.77-1.76A2.72,2.72,0,0,1,20,9.58m0-2a4.74,4.74,0,0,0-3.49,1.49l-3.1,3.2,3.1,3.19A4.73,4.73,0,0,0,20,16.94a4.58,4.58,0,0,0,4.56-4.6v-.08a4.58,4.58,0,0,0-4.47-4.69H20"/><path class="cls-1" d="M4.56,9.58a2.71,2.71,0,0,1,2.08.91l1.78,1.77L6.65,14a2.72,2.72,0,0,1-2.09.92A2.59,2.59,0,0,1,2,12.3v0A2.59,2.59,0,0,1,4.5,9.58h.06m0-2A4.58,4.58,0,0,0,0,12.18v.08a4.58,4.58,0,0,0,4.48,4.68h.08A4.74,4.74,0,0,0,8,15.45l3.1-3.19L8,9.06A4.74,4.74,0,0,0,4.56,7.57"/><path class="cls-1" d="M12.26,16.09,14,17.87A2.72,2.72,0,0,1,14.94,20a2.56,2.56,0,0,1-2.56,2.56h-.12a2.56,2.56,0,0,1-2.68-2.44s0-.08,0-.12a2.71,2.71,0,0,1,.91-2.08Zm0-2.73a34.88,34.88,0,0,0-3.19,3.1A4.74,4.74,0,0,0,7.57,20a4.58,4.58,0,0,0,4.6,4.56h.08a4.58,4.58,0,0,0,4.69-4.47s0-.06,0-.09a4.73,4.73,0,0,0-1.49-3.49Z"/><path class="cls-1" d="M12.26,2a2.59,2.59,0,0,1,2.68,2.5v.06A2.71,2.71,0,0,1,14,6.64L12.26,8.42,10.49,6.65a2.72,2.72,0,0,1-.92-2.09A2.56,2.56,0,0,1,12.13,2h.13m0-2A4.58,4.58,0,0,0,7.57,4.47s0,.06,0,.09A4.74,4.74,0,0,0,9.06,8.05l3.19,3.1,3.19-3.1a4.73,4.73,0,0,0,1.49-3.49A4.58,4.58,0,0,0,12.33,0h-.07"/><path class="cls-1" d="M89.53,24.27a1.67,1.67,0,0,1-.38.78.91.91,0,0,1-.75.33,1.13,1.13,0,0,1-1-.72,3,3,0,0,1-.21-1.2,2.54,2.54,0,0,1,.26-1.23,1.07,1.07,0,0,1,1-.6,1,1,0,0,1,.86.47,1.72,1.72,0,0,1,.24.6v.06h.06l.62-.12v-.06a1.89,1.89,0,0,0-.57-1.14A1.68,1.68,0,0,0,88.42,21a1.89,1.89,0,0,0-1.49.65,2.66,2.66,0,0,0-.56,1.79,3.28,3.28,0,0,0,.46,1.75,1.77,1.77,0,0,0,1.58.85,1.55,1.55,0,0,0,1.22-.51,2.22,2.22,0,0,0,.56-1.1v-.06l-.67-.14Zm2.85-.43-1.32-2.78H90.3L92,24.65a1.39,1.39,0,0,1-.3.54.72.72,0,0,1-.5.18.59.59,0,0,1-.24,0h-.09V26a1,1,0,0,0,.34.06,1.26,1.26,0,0,0,.82-.31,2.53,2.53,0,0,0,.59-1l1.46-3.62h-.67ZM94.6,26h.73V21.69h2V26h.73V21.1H94.6Zm5.31-2.26h1.92v-.62H99.91V21.69h2.42v-.64H99.18v5h3.22v-.65H99.91Zm6.1-2.33a2,2,0,0,0-1.23-.32h-1.65V26h.73V24h1a1.71,1.71,0,0,0,1.25-.39,1.48,1.48,0,0,0,.47-1.12,1.36,1.36,0,0,0-.53-1.14m-.49,1.79a1.14,1.14,0,0,1-.79.22h-.87V21.69h.92a1.18,1.18,0,0,1,.74.2.74.74,0,0,1,.25.6.89.89,0,0,1-.26.66m4.06,1.62-1.4-3.72h-1V26h.63V22.1L109.3,26h.49l1.43-4v4H112V21.1h-1Zm5.28-3.72h-.78L112.49,26h.68l.43-1.39h1.62l.44,1.39h.79v-.08ZM113.78,24l.63-2,.62,2Zm6-2.59a2,2,0,0,0-1.24-.32H116.9V26h.73V24h1a1.71,1.71,0,0,0,1.25-.39,1.48,1.48,0,0,0,.47-1.12,1.37,1.37,0,0,0-.53-1.14m-.5,1.79a1.12,1.12,0,0,1-.79.22h-.87V21.69h.92a1.17,1.17,0,0,1,.74.2.73.73,0,0,1,.25.6.89.89,0,0,1-.26.66m4.9,2.22c-.15,0-.19-.09-.25-.25-.22-.61-.21-.88-.37-1.24a1,1,0,0,0-.58-.56.91.91,0,0,0,.44-.54,6.5,6.5,0,0,1,.3-1.07.34.34,0,0,1,.21-.13h.22V21h-.24a.82.82,0,0,0-.79.51,10.86,10.86,0,0,1-.39,1.28.73.73,0,0,1-.69.32h-.6v-2h-.72V26h.72V23.7H122c.32,0,.65,0,.83.34a2.91,2.91,0,0,1,.2.66,3.42,3.42,0,0,0,.28.9A.75.75,0,0,0,124,26a.63.63,0,0,0,.33-.08v-.59h-.2m1.61-1.68h1.93v-.62h-1.93V21.69h2.42v-.64H125v5h3.22v-.65h-2.49ZM128.41,21v.64h1.35V26h.73V21.69H132v-.64Z"/><path class="cls-1" d="M53.24,8.7a2.43,2.43,0,0,0-.47,0,5.43,5.43,0,0,0-2.49.76v-.3c0-.12,0-.33-.23-.33H48.47a.84.84,0,0,0-.81.76v9.89a2.2,2.2,0,0,0,2.09,2.31H50c.12,0,.26,0,.26-.29V17.9a4.09,4.09,0,0,0,2.13.6,4.61,4.61,0,0,0,.92-.08c1.64-.25,3.15-1.73,3.15-4.94,0-2.66-1.13-4.62-3.25-4.78M51.9,16.61c-1,0-1.6-.79-1.6-2.1v-2c0-1.12.63-2,1.6-2s1.71.87,1.71,3c0,1.59-.35,3.08-1.71,3.08m65.34-7.92A4.51,4.51,0,0,0,114,10a5,5,0,0,0-1.4,3.58,5.17,5.17,0,0,0,1.4,3.67,4.85,4.85,0,0,0,6.38,0,5.15,5.15,0,0,0,1.48-3.71A5,5,0,0,0,120.5,10a4.52,4.52,0,0,0-3.26-1.29m1.36,7.14a1.57,1.57,0,0,1-2.73,0,4.43,4.43,0,0,1-.42-2.27,4.25,4.25,0,0,1,.48-2.29,1.53,1.53,0,0,1,2.62,0,4.25,4.25,0,0,1,.48,2.29,4.4,4.4,0,0,1-.43,2.27M101,10.52a1.47,1.47,0,0,1,1.18.61,2.07,2.07,0,0,1,.25.57.47.47,0,0,0,.45.38h1.93a.17.17,0,0,0,.17-.17v0a4.22,4.22,0,0,0-1.19-2.24,4.21,4.21,0,0,0-2.82-1,4.5,4.5,0,0,0-3,1.11,4.93,4.93,0,0,0-1.5,3.8,5.13,5.13,0,0,0,1.38,3.73,4.28,4.28,0,0,0,3,1.14,4.22,4.22,0,0,0,2.84-1,4,4,0,0,0,1.2-2.1c0-.06,0-.18-.16-.18h-2a.43.43,0,0,0-.42.35v.06a2,2,0,0,1-.17.32,1.19,1.19,0,0,1-1.14.61,1.31,1.31,0,0,1-1.25-.74,4.52,4.52,0,0,1-.4-2.3,4.49,4.49,0,0,1,.38-2.31A1.5,1.5,0,0,1,101,10.4M42.19,8.67a4.59,4.59,0,0,0-3.1,1,4.79,4.79,0,0,0-1.66,3.85,4.89,4.89,0,0,0,1.34,3.56,4.72,4.72,0,0,0,3.39,1.31,5.18,5.18,0,0,0,3-.85,3.88,3.88,0,0,0,1.48-2c0-.08.06-.25-.14-.25H44.29a.42.42,0,0,0-.3.22,1.54,1.54,0,0,1-.31.47,1.9,1.9,0,0,1-1.38.54,1.78,1.78,0,0,1-1.68-1,3.06,3.06,0,0,1-.31-1.5h6.16c.25,0,.33-.18.34-.51v-.07a5.18,5.18,0,0,0-1.09-3.29,4.43,4.43,0,0,0-3.54-1.57M40.3,12.45A2.14,2.14,0,0,1,40.81,11a1.94,1.94,0,0,1,1.4-.59,1.65,1.65,0,0,1,1.4.7A2.26,2.26,0,0,1,44,12.54Zm34.64,2.74c-.59-1.22-1.12-2-1.62-2,0,0,.67,0,1.12-1.27.16-.43.59-1.44.88-2.06a3.71,3.71,0,0,1,.47-.71.19.19,0,0,0,0-.12.2.2,0,0,0-.19-.21H73.72c-.53,0-.78.43-1,.83-.29.66-.4,1.07-.81,2a1.37,1.37,0,0,1-1.34.9H70V9.14c0-.12.05-.34-.23-.34H68.11a.85.85,0,0,0-.81.77V16.8a2.25,2.25,0,0,0,.11.76,1.19,1.19,0,0,0,1,.76h1.2c.31,0,.4-.16.4-.4v-3.8h.48c1.05,0,1.52,1.2,2,2.05s1.13,2.18,2.41,2.11h1.52a.26.26,0,0,0,.19-.3c-.36-.58-1.16-1.89-1.65-2.8m-39.21-9H28.19a.93.93,0,0,0-.92.94h0v8.73a3,3,0,0,0,.2,1.14,2.41,2.41,0,0,0,1.93,1.38h.35c.24,0,.28-.12.28-.39V9.08a.39.39,0,0,1,.37-.31h3.11a.4.4,0,0,1,.38.31v6.75a3,3,0,0,0,.2,1.14A2.41,2.41,0,0,0,36,18.35h.35c.24,0,.28-.12.28-.39V7.09a1,1,0,0,0-.89-.93M113.51,9c0-.09,0-.21-.17-.21h-8.85c-.19,0-.2.12-.18.21a2.29,2.29,0,0,0,1.89,1.8h1a.42.42,0,0,1,.37.41v4.87a2.06,2.06,0,0,0,.19.91,2.4,2.4,0,0,0,1.92,1.38H110c.24,0,.29-.12.29-.39V11.2a.43.43,0,0,1,.37-.41h1A2.29,2.29,0,0,0,113.51,9m18.42,9c-.36-.58-1.16-1.89-1.65-2.8-.59-1.22-1.12-2-1.62-2,0,0,.67,0,1.12-1.27.15-.43.59-1.44.88-2.06a3.75,3.75,0,0,1,.47-.71A.2.2,0,0,0,131,8.8h-1.92c-.53,0-.78.43-1,.83-.28.66-.4,1.07-.81,2a1.37,1.37,0,0,1-1.34.9h-.56V9.14c0-.12,0-.34-.23-.34h-1.71a.85.85,0,0,0-.81.77V16.8a2.31,2.31,0,0,0,.11.75,1.19,1.19,0,0,0,1,.76H125c.31,0,.39-.16.39-.4v-3.8h.48c1.06,0,1.52,1.2,2,2.05s1.13,2.18,2.41,2.11h1.52A.2.2,0,0,0,132,18M82.53,8.7a2.44,2.44,0,0,0-.47,0,5.44,5.44,0,0,0-2.49.76v-.3c0-.12.05-.33-.23-.33H77.76a.84.84,0,0,0-.81.76v9.89A2.2,2.2,0,0,0,79,21.79h.27c.13,0,.26,0,.26-.29V17.9a4.09,4.09,0,0,0,2.13.6,4.56,4.56,0,0,0,.91-.08c1.65-.25,3.15-1.73,3.15-4.94,0-2.66-1.13-4.62-3.25-4.78m-1.35,7.92c-1,0-1.6-.79-1.6-2.1v-2c0-1.12.62-2,1.6-2s1.72.87,1.72,3c0,1.59-.35,3.08-1.72,3.08M91.23,8.67a4.6,4.6,0,0,0-3.1,1,4.8,4.8,0,0,0-1.66,3.85,4.88,4.88,0,0,0,1.35,3.56,4.73,4.73,0,0,0,3.39,1.31,5.18,5.18,0,0,0,3-.85,3.87,3.87,0,0,0,1.48-2c0-.08.06-.25-.14-.25H93.33a.42.42,0,0,0-.3.22,1.54,1.54,0,0,1-.31.47,1.89,1.89,0,0,1-1.38.54,1.78,1.78,0,0,1-1.68-1,3.05,3.05,0,0,1-.31-1.5h6.16c.25,0,.33-.18.34-.51v-.07a5.18,5.18,0,0,0-1.09-3.29,4.44,4.44,0,0,0-3.54-1.57m-1.88,3.87A2.13,2.13,0,0,1,89.86,11a1.92,1.92,0,0,1,1.4-.59,1.64,1.64,0,0,1,1.4.7A2.27,2.27,0,0,1,93,12.54Zm-26-3.63H57.5c0,1.7,1.67,2.29,2.91,2.29h5.85c0-1.71-1.67-2.29-2.91-2.29m0,3.63H57.5c0,1.7,1.67,2.29,2.91,2.29h5.85c0-1.7-1.67-2.29-2.91-2.29m0,3.63H57.5c0,1.7,1.67,2.29,2.91,2.29h5.85c0-1.71-1.67-2.29-2.91-2.29"/></g></g></g></g></svg>