<svg xmlns="http://www.w3.org/2000/svg" viewBox="0 0 152.55 13.34"><defs><style>.cls-1{fill:#afb8c5;}</style></defs><title>Metro</title><g id="Layer_2" data-name="Layer 2"><g id="Layer_1-2" data-name="Layer 1"><path id="path3028" class="cls-1" d="M68.66,10.12a.61.61,0,0,1-.59.6H63.55a.65.65,0,0,1-.63-.6v-7c0-.15.09-.47.6-.52h4.54c.51.05.57.37.59.52ZM70.22,0H61.36a2.53,2.53,0,0,0-2.6,2.29v8.63a2.64,2.64,0,0,0,2.6,2.42h8.86a2.64,2.64,0,0,0,2.6-2.42V2.3A2.53,2.53,0,0,0,70.22,0M34.38,2.63h-4V0H42.51V2.63h-4V13.34H34.38Zm-5.21,0V0H18.34V13.34h11V10.71H22.51V7.86h6.66V5.24H22.51V2.63ZM53.34,4.7c0,.29-.07.54-.59.54H47.92V2.62h4.83c.59,0,.58.38.58.63ZM54.5,8.16a2.61,2.61,0,0,0,2.6-2.44V2.42A2.66,2.66,0,0,0,54.48,0H43.76V13.34h4.17V8.16h1.66l2.71,5.18h4.79L53.86,8.16ZM9.71,13.34,12.5,5v8.38h4.17V0H11L8.33,6.67,5.63,0H0V13.34H4.17V5L7,13.34H9.71"/><path id="path3030" class="cls-1" d="M118.33,10.09a.6.6,0,0,1-.58.59h-4.47a.65.65,0,0,1-.62-.59V3.19c0-.15.09-.47.6-.52h4.49c.51.05.56.37.58.52Zm1.55-10h-8.77a2.51,2.51,0,0,0-2.58,2.27v8.54a2.61,2.61,0,0,0,2.58,2.39h8.77a2.62,2.62,0,0,0,2.58-2.39V2.34A2.51,2.51,0,0,0,119.88.07"/><path id="path3032" class="cls-1" d="M103.34,4.72c0,.29-.07.54-.58.54H98V2.67h4.79c.58,0,.58.38.58.62Zm1.14,3.42a2.59,2.59,0,0,0,2.57-2.42V2.47a2.63,2.63,0,0,0-2.59-2.4H93.85V13.28H98V8.15h1.64l2.68,5.13H107l-3.19-5.13h.63"/><path id="path3034" class="cls-1" d="M137.86,10.89V.07h-4.2V10a.6.6,0,0,1-.58.59h-4.47A.65.65,0,0,1,128,10V.07h-4.05V10.89a2.62,2.62,0,0,0,2.58,2.39h8.77a2.62,2.62,0,0,0,2.58-2.39"/><path id="path3036" class="cls-1" d="M148.83,4.74c0,.29-.07.54-.58.54h-4.78V2.69h4.79c.58,0,.58.38.58.62ZM150,8.17a2.59,2.59,0,0,0,2.57-2.42V2.49A2.63,2.63,0,0,0,150,.09H139.34V13.3h4.13V8.17H150"/><path id="path3038" class="cls-1" d="M87.22,8.64v1.45a.6.6,0,0,1-.58.59H83.19a.65.65,0,0,1-.62-.59V3.19c0-.15.09-.46.6-.52h3.47c.51.05.56.37.58.52v1.1h5.15V2.34A2.51,2.51,0,0,0,89.79.07H81a2.51,2.51,0,0,0-2.58,2.27v8.54A2.62,2.62,0,0,0,81,13.28h8.77a2.62,2.62,0,0,0,2.58-2.39V6.05H85.74c-.58,0-.58.38-.58.62V8.11c0,.29.07.54.58.54h1.47"/></g></g></svg>