<svg xmlns="http://www.w3.org/2000/svg" viewBox="0 0 90.79 29.57"><defs><style>.cls-1{fill:#afb8c5;}</style></defs><title>Rigla</title><g id="Layer_2" data-name="Layer 2"><g id="Layer_1-2" data-name="Layer 1"><path class="cls-1" d="M75.26,17.4l-1-4.57c-.23-1.08-.7-1.35-1.44-1.35s-1.21.27-1.44,1.35l-1,4.57c-.55,2.55-1.5,3.44-3.42,3.44v-.28c.34-.09.66-.69,1.31-3.23l1.13-4.54c.44-1.76,1.46-2.9,3.42-2.9s3,1.13,3.42,2.9l1.14,4.54c.64,2.54,1,3.14,1.31,3.23v.28C76.76,20.84,75.81,19.94,75.26,17.4Z"/><path class="cls-1" d="M43,11.69H41.09v3.62H43a1.81,1.81,0,0,0,0-3.62ZM41.1,17.29c0,2.87-.71,3.41-2.63,3.4v-.28c.35-.08.63-.24.63-3.23V12.92c0-2.1-.14-2.46-.61-2.55V10.1h4.92a3.32,3.32,0,0,1,3.41,3.4,3.33,3.33,0,0,1-3.41,3.41H41.09Z"/><path class="cls-1" d="M87.45,17.4l-.18-.78H82.51l-.18.78c-.6,2.55-1.42,3.44-3.34,3.44v-.28c.34-.09.68-.69,1.3-3.23l1.14-4.54a3.52,3.52,0,0,1,6.93,0l1.14,4.54c.62,2.54,1,3.14,1.3,3.23v.28C88.87,20.84,88,19.94,87.45,17.4Zm-1-4.45c-.28-1.2-.74-1.47-1.56-1.47s-1.29.27-1.56,1.47l-.48,2.1h4.08Z"/><path class="cls-1" d="M48.68,12.86c0-2.1-.05-2.4-.59-2.55V10H50.6v6.81l.12.08,7.1-7.15h.28v7.39c0,3,.28,3.15.63,3.23v.28c-1.83,0-2.55-.5-2.55-3.39V13.92l-.12-.08L49,21h-.27V12.86Z"/><path class="cls-1" d="M60.59,10.09h7.78v2.21H68.1c-.09-.52-.65-.61-2.55-.61H63.22v5.56c0,2.87-.71,3.45-2.62,3.44v-.28c.35-.08.62-.24.62-3.23V12.92c0-2.1-.15-2.46-.62-2.55v-.29Z"/><path class="cls-1" d="M9.43,5.68l.31.5c.07.12,1.17,2.21,1.78,3.39l.54.55a4.61,4.61,0,0,0,3.18,1.67,4.61,4.61,0,0,0,3.18-1.67L19,9.48c.6-1.16,1.77-3.38,1.84-3.5s.25-.41.31-.5a3.66,3.66,0,0,1,1.66-1.32c0-.08,0-.17,0-.25A4,4,0,0,0,19,0c-1.74,0-1.9,1.31-3.8,1.31S13.17,0,11.43,0A4,4,0,0,0,7.62,3.91a3.61,3.61,0,0,0,0,.4A3.75,3.75,0,0,1,9.43,5.68Z"/><path class="cls-1" d="M4.94,17.54l.57-.14,3.77-.65.69-.34a4.6,4.6,0,0,0,2.57-2.51,4.6,4.6,0,0,0-.6-3.54l-.42-.8L8.76,6.74l-.38-.45a3.68,3.68,0,0,1-.74-2L7.4,4.22A4,4,0,0,0,2.51,6.64c-.52,1.66.66,2.22.07,4S.71,12.24.15,13.88a4,4,0,0,0,2.54,4.84l.38.11A3.74,3.74,0,0,1,4.94,17.54Z"/><path class="cls-1" d="M25.44,18.52l-.54-.22-3.43-1.7-.76-.13a4.6,4.6,0,0,0-3.55.52,4.6,4.6,0,0,0-1.59,3.22l-.13.89c.19,1.29.55,3.77.57,3.92s0,.48,0,.59a3.69,3.69,0,0,1-.56,2l.14.2a4,4,0,0,0,5.38.91c1.39-1,.77-2.18,2.31-3.3s2.43-.17,3.85-1.17a4,4,0,0,0,.79-5.4l-.25-.31A3.74,3.74,0,0,1,25.44,18.52Z"/><path class="cls-1" d="M30.47,13.68c-.55-1.65-1.84-1.41-2.42-3.21s.59-2.37.07-4A4,4,0,0,0,23.22,4l-.37.14a3.73,3.73,0,0,1-.76,2.14l-.38.45L19,9.48l-.36.68a4.58,4.58,0,0,0-.6,3.54,4.59,4.59,0,0,0,2.57,2.51l.81.4,3.9.67.57.14a3.67,3.67,0,0,1,1.77,1.17l.24-.07A4,4,0,0,0,30.47,13.68Z"/><path class="cls-1" d="M5.19,18.73l.54-.23,3.55-1.75-3.77.65-.57.14a3.74,3.74,0,0,0-1.86,1.28A3.69,3.69,0,0,0,5.19,18.73Z"/><path class="cls-1" d="M16,25.61c0-.11,0-.36,0-.59s-.38-2.63-.57-3.92c-.19,1.32-.53,3.65-.55,3.79s0,.48,0,.59a3.75,3.75,0,0,0,.64,2.17A3.7,3.7,0,0,0,16,25.61Z"/><path class="cls-1" d="M25.93,17.41l-.57-.14-3.9-.67,3.43,1.7.54.22a3.74,3.74,0,0,0,2.26.06A3.67,3.67,0,0,0,25.93,17.41Z"/><path class="cls-1" d="M14.83,25.48c0-.11,0-.36,0-.59s.36-2.47.55-3.79c-.07-.46-.11-.76-.11-.76a4.61,4.61,0,0,0-1.59-3.22,4.6,4.6,0,0,0-3.55-.52l-.89.15L5.74,18.51l-.54.23a3.69,3.69,0,0,1-2.12.09l-.15.2a4,4,0,0,0,.79,5.4c1.42,1,2.31.06,3.85,1.17s.91,2.26,2.31,3.3A4,4,0,0,0,15.25,28c.08-.11.15-.22.22-.33A3.74,3.74,0,0,1,14.83,25.48Z"/></g></g></svg>