<svg xmlns="http://www.w3.org/2000/svg" viewBox="0 0 56.64 17.79"><defs><style>.cls-1{fill:#afb8c5;}</style></defs><title>ATAC</title><g id="Layer_2" data-name="Layer 2"><g id="Layer_1-2" data-name="Layer 1"><path class="cls-1" d="M17.49,1.6l.19,0,.14,0,.08-.08,0-.15V.54L17.86.43l0,0,0,0h-3l-.08.08,0,.12V4.82l0,.2.11.22.14.14.2.09h.15l.13,0h0l.15-.12.1-.14L15.83,5l.05-.4L16,3.92l.11-.55.14-.43.23-.46.28-.37.3-.27.37-.2.11,0Zm-13,14.87-.37-.32-.25-.27-.19-.31-.11-.31-.06-.38.05-.37,0-.23L5.44,6.72,5.62,6l0-.09V5.74l0-.2L5.44,5,4.87,2.73,2.18,13.88l-.08.32-.17.49-.21.42-.33.43L.9,16l-.3.22-.23.14-.25.2L0,16.74V17l.08.18.14.15.23.1.3,0,3.16,0h.18l.29,0,.22-.12.13-.19,0-.22-.07-.2-.19-.2Zm21.82-.08-.24-.13-.36-.1-.37-.1-.29-.14-.26-.22-.21-.36L24.49,15l0-.43,0-13.75V.7l0-.15-.1-.13L24.15.36H19.53l-.12,0-.17.06-.09.11-.07.14,0,.21.08,13.66v.18l-.11.54-.12.26-.2.26-.24.18-.33.13-.37.1-.26.09h0l-.2.12-.16.2-.09.26,0,.27.12.17.2.1h8.44l.25,0h.05l.23-.13.15-.2.05-.22-.09-.26-.16-.19ZM27.57,3.86l.09.71,0,.37.09.24.16.2.13.06.06,0h.23l.21-.09.14-.22.06-.27,0-.15,0-4.19V.49L28.76.38l-.07,0H25.74l-.05,0L25.6.47v.84l0,.11.08.07.14,0,.22.06,0,0,.33.14.31.25.31.36.26.48.17.51.12.54Z"/><path class="cls-1" d="M16,16.32l-.24-.23-.27-.22,0,0-.19-.18-.23-.37-.2-.45-.14-.48L11.33.94l0-.13L11.18.6,11,.47,10.83.4l-.26,0L6.08.36H6L5.78.4,5.64.53l0,.14V.81l0,.12,2.46,9.89,0,.12v.13l0,.09L8,11.2H5.68l-.1,0,0,.06,0,.14-.07.26-.17.71,0,.08,0,.13.11.06h3.1l0,0,.07.11L9,14.51l.07.25.09.37v.31l-.1.35-.2.31-.26.28-.18.23-.09.21,0,.2.08.19.15.13.21.08.32,0h6.39l.26,0,.26-.11.19-.2.06-.26-.06-.28L16,16.32ZM49.74.14,49.63.08h-.14l-.35.09-.68.26L48,.64l-.43.21-.51.31-.6.38-.53.39-.45.38L45,2.76l-.42.49-.36.48-.37.58-.27.5-.29.63-.23.6L43,6.22l-.14.43-.15.62-.09.54-.07.55,0,.48v.59l0,.48.06.44.09.53.12.48.14.47L43,12l.14.37.23.49.25.47.27.44.42.58.46.58.49.51.5.45.55.43.6.41.52.3.57.26.54.2.49.14.32.09.19,0,.05,0,.05-.1.05-1.17v-.08l0-.12-.09-.08L49.35,16l-.2-.22-.21-.29-.2-.38-.14-.46-.05-.42,0-10.13V3.74l0-.49.14-.5L49,2.29l.34-.41.3-.22.14-.09,0-.05V.2l0-.06Zm6.89.77,0-.36L56.53.32,56.41.16,56.19,0l-.26,0-.29.08-.32.19-.38.21-.25.08-.21,0-.4-.08L53.32.28,53,.19,52.61.11,52.22.05l-.39,0h-.49l-.22,0L51,.14,51,.3v.94l.05.12.1.06.36,0,.53.11.59.25.32.2.26.2.27.24.25.26L54,3l.26.38.25.4.18.34.15.33.13.34.12.38.09.37.09.37.11.43.18.33.22.19.26.07.26-.07.22-.19.12-.26,0-.32V.91ZM31.77,16.47l-.37-.32-.25-.27-.2-.31-.1-.31-.05-.38,0-.37,0-.23,1.84-7.53L32.89,6l0-.09V5.74l0-.2L32.72,5l-.56-2.25L29.45,13.88l-.08.32-.16.49-.21.42-.34.43-.47.41-.14.09-.18.13-.22.14-.25.2-.12.22V17l.07.18.15.15.21.1.31,0h0l3.13,0h.18l.28,0,.22-.12.14-.19,0-.22-.08-.2-.19-.2Zm24.6-4-.24-.12H56l-.14,0-.26.13-.18.2-.12.25-.2.68-.12.37-.13.33-.17.37-.21.34-.22.28-.24.25-.27.22-.22.14-.57.25-.56.11-.69.05-.53,0-.14.06-.07.12,0,1.15v.07l0,.08,0,0,.16,0h.62l.66,0,.42-.07.37-.09.34-.1.37-.14.34-.16.29-.16.28-.21.25-.2.22-.2.21-.27.22-.31.18-.32.22-.47.14-.36.12-.38.1-.4.07-.37,0-.62-.08-.3-.15-.19Z"/><path class="cls-1" d="M43.32,16.32l-.25-.23,0,0-.23-.19-.23-.22-.24-.37-.19-.45L42,14.35,38.61.94l0-.13L38.46.6,38.29.47,38.11.4l-.25,0-4.49,0h-.14l-.18,0-.14.13,0,.14V.81l0,.12,2.46,9.89,0,.12v.13l0,.09-.09.05H33l-.1,0,0,.06,0,.14-.06.27-.18.7,0,.08,0,.13.11.06h3.09l.05,0,.06.11.41,1.66.07.25.09.37v.31l-.1.35-.2.31-.26.28-.2.23-.07.21V17l.09.19.14.13.21.08.33,0h6.3l.33,0h0l.26-.1.19-.2.06-.26-.06-.28-.15-.21Z"/></g></g></svg>