<?xml version="1.0" encoding="utf-8"?>
<!-- Generator: Adobe Illustrator 15.0.0, SVG Export Plug-In . SVG Version: 6.00 Build 0)  -->
<!DOCTYPE svg PUBLIC "-//W3C//DTD SVG 1.1//EN" "http://www.w3.org/Graphics/SVG/1.1/DTD/svg11.dtd">
<svg version="1.1" id="Layer_1" xmlns="http://www.w3.org/2000/svg" xmlns:xlink="http://www.w3.org/1999/xlink" x="0px" y="0px"
	 width="510.24px" height="396.85px" viewBox="0 0 510.24 396.85" enable-background="new 0 0 510.24 396.85" xml:space="preserve">
<g>
	<g>
		<path fill="#999B9E" d="M349.159,365.105l-8.836-40.434c-2.028-9.52-6.229-11.939-12.747-11.939
			c-6.498,0-10.72,2.42-12.746,11.939l-8.816,40.434c-4.903,22.516-13.306,30.398-30.273,30.398v-2.463
			c2.979-0.807,5.835-6.105,11.567-28.617l9.995-40.166c3.931-15.602,12.934-25.639,30.273-25.639
			c17.383,0,26.321,10.037,30.232,25.639l10.057,40.166c5.689,22.512,8.567,27.811,11.547,28.617v2.463
			C362.444,395.504,354.022,387.621,349.159,365.105z"/>
		<path fill="#999B9E" d="M63.431,314.615H46.866v32.033h16.565c8.546,0,16.016-6.105,16.016-16.018
			C79.447,320.74,71.977,314.615,63.431,314.615z M46.918,364.092c0,25.348-6.321,30.17-23.238,30.107v-2.441
			c3.083-0.723,5.566-2.152,5.566-28.617l-0.01-37.662c0-18.582-1.221-21.727-5.432-22.535v-2.4h43.559
			c17.102,0,30.129,12.707,30.129,30.088c0,17.361-13.027,30.148-30.129,30.148H46.866L46.918,364.092z"/>
		<path fill="#999B9E" d="M456.969,365.105l-1.635-6.91h-42.069l-1.613,6.91c-5.298,22.516-12.602,30.398-29.57,30.398v-2.463
			c2.979-0.807,5.98-6.105,11.506-28.617l10.056-40.166c4.057-16.432,13.597-25.639,30.669-25.639
			c17.091,0,26.61,9.207,30.666,25.639l10.056,40.166c5.526,22.512,8.526,27.811,11.527,28.617v2.463
			C469.592,395.504,462.245,387.621,456.969,365.105z M448.154,325.748c-2.442-10.596-6.519-13.016-13.843-13.016
			c-7.327,0-11.382,2.42-13.844,13.016l-4.222,18.582h36.088L448.154,325.748z"/>
		<path fill="#999B9E" d="M113.994,324.982c0-18.582-0.476-21.273-5.235-22.535v-2.4h22.193v60.277l1.077,0.703l62.823-63.236h2.453
			v65.35c0,26.465,2.473,27.895,5.556,28.617v2.441c-16.234,0.207-22.524-4.408-22.524-29.963c0-6.891,0-29.922,0-29.922
			l-1.087-0.703l-62.823,63.238h-2.432V324.982z"/>
		<path fill="#999B9E" d="M219.363,300.398h68.854v19.535h-2.441c-0.828-4.615-5.71-5.422-22.535-5.422H242.58v49.227
			c0,25.391-6.259,30.523-23.196,30.461v-2.441c3.083-0.723,5.483-2.152,5.483-28.617v-37.662c0-18.582-1.303-21.727-5.503-22.535
			V300.398z"/>
	</g>
	<path fill="none" d="M250.888,100.298c-11.184-0.155-19.906-6.839-27.035-14.185c0,0-1.842-1.883-4.573-4.697
		c2.07,4.004,3.539,6.798,3.539,6.798c4.79,9.032,8.443,19.42,5.122,30.087c-3.591,10.584-12.644,16.823-21.82,21.324
		c0,0-2.381,1.179-5.888,2.927c4.46-0.775,7.543-1.283,7.543-1.283c10.088-1.769,21.076-2.038,30.212,4.408
		c8.95,6.704,12.085,17.216,13.533,27.366c0,0,0.403,2.607,0.962,6.488c0.641-4.46,1.106-7.564,1.106-7.564
		c1.459-10.14,4.583-20.692,13.544-27.366c9.125-6.456,20.134-6.177,30.191-4.429c0,0,2.606,0.435,6.476,1.097
		c-4.034-1.996-6.849-3.383-6.849-3.383c-9.209-4.522-18.272-10.76-21.832-21.345c-3.352-10.677,0.311-21.054,5.111-30.098
		c0,0,1.221-2.328,3.042-5.794c-3.146,3.217-5.359,5.463-5.359,5.463C270.754,93.459,262.072,100.143,250.888,100.298z"/>
	<radialGradient id="SVGID_1_" cx="250.894" cy="121.6221" r="98.6104" gradientUnits="userSpaceOnUse">
		<stop  offset="0" style="stop-color:#FFF5E4"/>
		<stop  offset="0.5112" style="stop-color:#FBB677"/>
		<stop  offset="1" style="stop-color:#ED1C24"/>
	</radialGradient>
	<path fill="url(#SVGID_1_)" d="M201.505,48.338c0.476,0.797,1.604,2.566,2.596,4.273c0.59,1.003,9.912,18.768,15.179,28.804
		c2.731,2.814,4.573,4.697,4.573,4.697c7.129,7.346,15.851,14.03,27.035,14.185c11.184-0.155,19.866-6.839,27.025-14.185
		c0,0,2.214-2.246,5.359-5.463c5.111-9.829,15.086-28.753,15.665-29.808c0.993-1.697,2.109-3.477,2.627-4.263
		c2.897-4.604,8.133-8.722,14.135-11.247c0-0.704,0.04-1.407,0.021-2.1C315.49,15.178,301.11,0.651,283.253,0
		c-14.776,0.186-16.204,11.185-32.365,11.185c-16.161,0-17.579-10.999-32.364-11.185c-17.848,0.651-32.25,15.178-32.457,33.233
		c-0.021,1.117,0.021,2.255,0.124,3.373C192.637,39.068,198.4,43.434,201.505,48.338z"/>
	
		<radialGradient id="SVGID_2_" cx="-12.9072" cy="-71.5347" r="98.6092" gradientTransform="matrix(0.309 -0.9511 0.9511 0.309 320.2451 134.7119)" gradientUnits="userSpaceOnUse">
		<stop  offset="0" style="stop-color:#F6F9E8"/>
		<stop  offset="0.5112" style="stop-color:#B2D235"/>
		<stop  offset="1" style="stop-color:#75C044"/>
	</radialGradient>
	<path fill="url(#SVGID_2_)" d="M163.264,149.226c0.91-0.217,2.949-0.765,4.883-1.169c1.148-0.248,20.91-3.61,32.084-5.505
		c3.507-1.748,5.888-2.927,5.888-2.927c9.176-4.501,18.229-10.74,21.82-21.324c3.321-10.667-0.332-21.056-5.122-30.087
		c0,0-1.469-2.794-3.539-6.798c-7.771-7.915-22.69-23.197-23.507-24.097c-1.303-1.469-2.639-3.093-3.26-3.817
		c-3.476-4.169-5.763-10.451-6.321-16.896c-0.662-0.238-1.314-0.486-1.997-0.683c-17.227-5.369-35.499,3.818-41.614,20.6
		c-4.408,14.112,5.619,18.873,0.631,34.237c-5.008,15.364-15.902,13.326-20.662,27.335c-4.893,17.165,4.49,35.344,21.593,41.138
		c1.056,0.372,2.163,0.651,3.259,0.899C151.717,154.783,157.646,150.654,163.264,149.226z"/>
	
		<radialGradient id="SVGID_3_" cx="416.2627" cy="-379.8555" r="98.6173" gradientTransform="matrix(-0.809 0.5878 -0.5878 -0.809 368.0742 -424.6304)" gradientUnits="userSpaceOnUse">
		<stop  offset="0" style="stop-color:#FFF1E2"/>
		<stop  offset="0.5112" style="stop-color:#FFD100"/>
		<stop  offset="1" style="stop-color:#F7941E"/>
	</radialGradient>
	<path fill="url(#SVGID_3_)" d="M337.633,157.586c-0.868-0.342-2.834-1.097-4.614-1.894c-1.076-0.476-19.059-9.374-29.219-14.423
		c-3.869-0.662-6.476-1.097-6.476-1.097c-10.058-1.749-21.066-2.027-30.191,4.429c-8.961,6.674-12.085,17.227-13.544,27.366
		c0,0-0.465,3.104-1.106,7.564c1.614,10.967,4.707,32.105,4.842,33.304c0.195,1.967,0.299,4.066,0.372,4.998
		c0.362,5.432-1.47,11.848-4.801,17.402c0.383,0.58,0.776,1.158,1.21,1.738c10.791,14.443,30.968,17.754,45.784,7.781
		c11.857-8.836,6.538-18.584,19.637-28.07c13.079-9.51,20.693-1.438,32.736-9.994c14.051-10.999,17.155-31.206,6.745-45.939
		c-0.682-0.931-1.385-1.821-2.13-2.679C350.235,159.873,343.013,159.728,337.633,157.586z"/>
	
		<radialGradient id="SVGID_4_" cx="515.8086" cy="-69.6665" r="98.6098" gradientTransform="matrix(0.309 0.9511 -0.9511 0.309 29.1973 -345.9375)" gradientUnits="userSpaceOnUse">
		<stop  offset="0" style="stop-color:#8FD1F3"/>
		<stop  offset="0.5112" style="stop-color:#4B98D2"/>
		<stop  offset="1" style="stop-color:#0064B1"/>
	</radialGradient>
	<path fill="url(#SVGID_4_)" d="M380.487,116.335c-4.718-13.999-15.644-11.96-20.609-27.325c-5.028-15.365,4.987-20.124,0.6-34.257
		c-6.124-16.771-24.397-25.959-41.655-20.58c-1.075,0.321-2.13,0.714-3.123,1.159c-0.353,6.891-2.732,13.708-6.457,18.168
		c-0.579,0.724-1.924,2.349-3.229,3.817c-0.807,0.88-14.815,15.22-22.741,23.332c-1.821,3.466-3.042,5.794-3.042,5.794
		c-4.801,9.043-8.463,19.42-5.111,30.098c3.56,10.585,12.623,16.823,21.832,21.345c0,0,2.814,1.387,6.849,3.383
		c10.905,1.863,31.992,5.443,33.192,5.691c1.903,0.414,3.931,0.952,4.841,1.18c5.278,1.345,10.823,5.049,15.045,9.933
		c0.662-0.186,1.407-0.373,2.048-0.6C376.019,151.678,385.392,133.5,380.487,116.335z"/>
	
		<radialGradient id="SVGID_5_" cx="-12.8921" cy="-71.5142" r="98.607" gradientTransform="matrix(0.309 -0.9511 0.9511 0.309 320.2451 134.7119)" gradientUnits="userSpaceOnUse">
		<stop  offset="0" style="stop-color:#F5EDE1"/>
		<stop  offset="0.5112" style="stop-color:#B89085"/>
		<stop  offset="1" style="stop-color:#99463F"/>
	</radialGradient>
	<path fill="url(#SVGID_5_)" d="M195.773,57.318c0.816,0.9,15.736,16.182,23.507,24.097c-5.276-10.036-14.588-27.801-15.179-28.804
		c-0.993-1.707-2.131-3.477-2.607-4.273c-3.094-4.904-8.857-9.27-15.302-11.733c0.559,6.445,2.845,12.727,6.321,16.896
		C193.124,54.225,194.47,55.85,195.773,57.318z"/>
	
		<radialGradient id="SVGID_6_" cx="90.0796" cy="-381.7012" r="98.6303" gradientTransform="matrix(-0.809 -0.5878 0.5878 -0.809 547.7563 -127.3789)" gradientUnits="userSpaceOnUse">
		<stop  offset="0" style="stop-color:#F4EEEB"/>
		<stop  offset="0.5112" style="stop-color:#B69EA1"/>
		<stop  offset="1" style="stop-color:#84643A"/>
	</radialGradient>
	<path fill="url(#SVGID_6_)" d="M165.426,159.345c0.869-0.352,2.814-1.118,4.615-1.915c1.117-0.486,20.258-9.984,30.19-14.878
		c-11.174,1.895-30.966,5.257-32.094,5.505c-1.924,0.404-3.963,0.952-4.873,1.169c-5.618,1.428-11.547,5.557-15.861,10.905
		C153.693,161.601,160.356,161.352,165.426,159.345z"/>
	
		<radialGradient id="SVGID_7_" cx="416.2441" cy="-379.853" r="98.644" gradientTransform="matrix(-0.809 0.5878 -0.5878 -0.809 368.0742 -424.6304)" gradientUnits="userSpaceOnUse">
		<stop  offset="0" style="stop-color:#F0EBE1"/>
		<stop  offset="0.5112" style="stop-color:#B29E58"/>
		<stop  offset="1" style="stop-color:#996137"/>
	</radialGradient>
	<path fill="url(#SVGID_7_)" d="M257.696,217.834c-0.073-0.932-0.187-3.031-0.372-4.998c-0.146-1.199-3.239-22.337-4.842-33.304
		c-1.636,11.205-4.542,31.058-4.677,32.218c-0.208,1.975-0.342,4.066-0.394,4.998c-0.372,5.783,1.718,12.705,5.484,18.488
		C256.227,229.682,258.047,223.266,257.696,217.834z"/>
	
		<radialGradient id="SVGID_8_" cx="515.8291" cy="-69.6367" r="98.6378" gradientTransform="matrix(0.309 0.9511 -0.9511 0.309 29.1973 -345.9375)" gradientUnits="userSpaceOnUse">
		<stop  offset="0" style="stop-color:#E2DDDB"/>
		<stop  offset="0.5112" style="stop-color:#A29490"/>
		<stop  offset="1" style="stop-color:#363639"/>
	</radialGradient>
	<path fill="url(#SVGID_8_)" d="M301.564,46.579c-0.518,0.786-1.634,2.566-2.627,4.263c-0.579,1.055-10.554,19.979-15.665,29.808
		c7.926-8.111,21.935-22.452,22.741-23.332c1.305-1.469,2.649-3.093,3.229-3.817c3.725-4.46,6.104-11.277,6.436-18.168
		C309.697,37.857,304.462,41.975,301.564,46.579z"/>
	
		<radialGradient id="SVGID_9_" cx="515.8027" cy="-69.6636" r="98.6066" gradientTransform="matrix(0.309 0.9511 -0.9511 0.309 29.1973 -345.9375)" gradientUnits="userSpaceOnUse">
		<stop  offset="0" style="stop-color:#B5CBB7"/>
		<stop  offset="0.5112" style="stop-color:#8C9686"/>
		<stop  offset="1" style="stop-color:#22553F"/>
	</radialGradient>
	<path fill="url(#SVGID_9_)" d="M341.833,148.14c-0.91-0.228-2.938-0.766-4.841-1.18c-1.2-0.248-22.287-3.828-33.192-5.691
		c10.16,5.05,28.143,13.947,29.219,14.423c1.78,0.797,3.746,1.552,4.614,1.894c5.38,2.142,12.603,2.286,19.245,0.486
		C352.656,153.189,347.111,149.485,341.833,148.14z"/>
	
		<radialGradient id="SVGID_10_" cx="90.0898" cy="-381.6685" r="98.6068" gradientTransform="matrix(-0.809 -0.5878 0.5878 -0.809 547.7563 -127.3789)" gradientUnits="userSpaceOnUse">
		<stop  offset="0" style="stop-color:#EDE7F3"/>
		<stop  offset="0.5112" style="stop-color:#C3A4CE"/>
		<stop  offset="1" style="stop-color:#8E5BA6"/>
	</radialGradient>
	<path fill="url(#SVGID_10_)" d="M247.422,216.748c0.051-0.932,0.175-3.023,0.383-4.998c0.134-1.16,3.041-21.013,4.677-32.218
		c-0.559-3.881-0.962-6.488-0.962-6.488c-1.448-10.15-4.583-20.662-13.533-27.366c-9.136-6.446-20.124-6.177-30.212-4.408
		c0,0-3.083,0.507-7.543,1.283c-9.932,4.894-29.073,14.393-30.19,14.878c-1.8,0.797-3.746,1.563-4.615,1.915
		c-5.07,2.007-11.723,2.255-18.023,0.786c-0.435,0.559-0.858,1.128-1.283,1.718c-10.419,14.713-7.336,34.94,6.736,45.938
		c12.063,8.547,19.688,0.486,32.756,9.975c13.068,9.508,7.771,19.254,19.617,28.07c14.807,9.973,35.002,6.682,45.783-7.781
		c0.683-0.91,1.293-1.842,1.883-2.814C249.129,229.453,247.04,222.531,247.422,216.748z"/>
</g>
</svg>
