<svg xmlns="http://www.w3.org/2000/svg" viewBox="0 0 28.65 20.55"><defs><style>.cls-1{fill:#eaeaf1;}</style></defs><title>Asset 1</title><g id="Layer_2" data-name="Layer 2"><g id="Layer_1-2" data-name="Layer 1"><path class="cls-1" d="M13.27,3.45A10,10,0,0,0,8.81,5.66,4.19,4.19,0,0,0,7.42,9.15a7.07,7.07,0,0,0,2.44,1.91A22.88,22.88,0,0,0,13,12.3,6,6,0,0,1,13.09,15a7.09,7.09,0,0,1-1,2.55,8.42,8.42,0,0,1-1.76,2,4.22,4.22,0,0,1-2.06,1,10,10,0,0,1-3.08-.64A7.8,7.8,0,0,1,2.55,18.3,8.45,8.45,0,0,1,.71,15.79,7.51,7.51,0,0,1,0,12.45,10.68,10.68,0,0,1,.9,8.14,12.34,12.34,0,0,1,3.41,4.42,14.93,14.93,0,0,1,7.27,1.61a16.7,16.7,0,0,1,5-1.61Zm15.38,0a10,10,0,0,0-4.46,2.21A4.19,4.19,0,0,0,22.8,9.15a7.07,7.07,0,0,0,2.44,1.91,22.88,22.88,0,0,0,3.11,1.24A6,6,0,0,1,28.46,15a7.09,7.09,0,0,1-1,2.55,8.42,8.42,0,0,1-1.76,2,4.22,4.22,0,0,1-2.06,1,10,10,0,0,1-3.08-.64,7.8,7.8,0,0,1-2.62-1.61,8.45,8.45,0,0,1-1.84-2.51,7.51,7.51,0,0,1-.71-3.34,10.68,10.68,0,0,1,.9-4.31,12.34,12.34,0,0,1,2.51-3.71,14.93,14.93,0,0,1,3.86-2.81A16.7,16.7,0,0,1,27.6,0Z"/></g></g></svg>