<svg xmlns="http://www.w3.org/2000/svg" xmlns:xlink="http://www.w3.org/1999/xlink" viewBox="0 0 20 20"><defs><style>.cls-1{fill:url(#linear-gradient);}.cls-2{fill:url(#linear-gradient-3);}</style><linearGradient id="linear-gradient" x1="10" y1="265.61" x2="10" y2="285.4" gradientTransform="matrix(1, 0, 0, -1, 0, 285.56)" gradientUnits="userSpaceOnUse"><stop offset="0" stop-color="#e09b3d"/><stop offset="0.3" stop-color="#c74c4d"/><stop offset="0.6" stop-color="#c21975"/><stop offset="1" stop-color="#7024c4"/></linearGradient><linearGradient id="linear-gradient-3" x1="15.18" y1="265.61" x2="15.18" y2="285.4" xlink:href="#linear-gradient"/></defs><title>Ресурс 9</title><g id="Слой_2" data-name="Слой 2"><g id="Слой_1-2" data-name="Слой 1"><path class="cls-1" d="M14,0H6A6,6,0,0,0,0,6V14a6,6,0,0,0,6,6H14a6,6,0,0,0,6-6V6A6,6,0,0,0,14,0ZM18,14A4,4,0,0,1,14,18H6A4,4,0,0,1,2,14V6A4,4,0,0,1,6,2H14A4,4,0,0,1,18,6V14Z"/><path class="cls-1" d="M10,4.83A5.17,5.17,0,1,0,15.17,10,5.18,5.18,0,0,0,10,4.83Zm0,8.33A3.16,3.16,0,1,1,13.16,10,3.15,3.15,0,0,1,10,13.16Z"/><circle class="cls-2" cx="15.18" cy="4.87" r="1.24"/></g></g></svg>