<svg xmlns="http://www.w3.org/2000/svg" viewBox="0 0 28 17.92"><defs><style>.cls-1{fill:#f34a38;}</style></defs><title>Ресурс 8</title><g id="Слой_2" data-name="Слой 2"><g id="Слой_1-2" data-name="Слой 1"><path class="cls-1" d="M9.82,10.81H14.2a5.56,5.56,0,1,1-1.51-6,.6.6,0,0,0,.82,0l1.6-1.51a.6.6,0,0,0,0-.88,9,9,0,1,0,2.78,7c0-.06,0-2.05,0-2.05H9.82a.6.6,0,0,0-.6.6v2.2A.6.6,0,0,0,9.82,10.81Z"/><path class="cls-1" d="M25.32,7.61V5.46a.52.52,0,0,0-.52-.53H23a.53.53,0,0,0-.53.53V7.61H20.31a.52.52,0,0,0-.52.52V9.94a.52.52,0,0,0,.52.53h2.15v2.15a.52.52,0,0,0,.53.52H24.8a.52.52,0,0,0,.52-.52V10.47h2.15A.53.53,0,0,0,28,9.94V8.13a.52.52,0,0,0-.53-.52Z"/></g></g></svg>