<svg xmlns="http://www.w3.org/2000/svg" viewBox="0 0 8.91 16.48"><defs><style>.cls-1{fill:#3b5998;}</style></defs><title>Ресурс 7</title><g id="Слой_2" data-name="Слой 2"><g id="Слой_1-2" data-name="Слой 1"><path class="cls-1" d="M8.57,0H6.44a3.76,3.76,0,0,0-4,4.06V5.93H.34A.34.34,0,0,0,0,6.26V9a.34.34,0,0,0,.34.34H2.48v6.83a.34.34,0,0,0,.34.34h2.8A.34.34,0,0,0,6,16.14V9.31H8.47A.34.34,0,0,0,8.81,9V6.26A.37.37,0,0,0,8.71,6a.34.34,0,0,0-.24-.09H6V4.34c0-.76.18-1.15,1.17-1.15H8.57a.34.34,0,0,0,.34-.33V.34A.34.34,0,0,0,8.57,0Z"/></g></g></svg>