<svg xmlns="http://www.w3.org/2000/svg" viewBox="0 0 21 17.07"><defs><style>.cls-1{fill:#50abf1;}</style></defs><title>Ресурс 10</title><g id="Слой_2" data-name="Слой 2"><g id="Слой_1-2" data-name="Слой 1"><path class="cls-1" d="M21,2a8.86,8.86,0,0,1-2.47.68A4.31,4.31,0,0,0,20.42.32a8.55,8.55,0,0,1-2.74,1,4.31,4.31,0,0,0-7.45,2.95,4.53,4.53,0,0,0,.11,1A12.23,12.23,0,0,1,1.46.79,4.31,4.31,0,0,0,2.8,6.54,4.32,4.32,0,0,1,.84,6v.06A4.32,4.32,0,0,0,4.3,10.28a4.24,4.24,0,0,1-1.14.15,4.45,4.45,0,0,1-.81-.08,4.32,4.32,0,0,0,4,3A8.68,8.68,0,0,1,1,15.19a8.77,8.77,0,0,1-1-.06,12.22,12.22,0,0,0,6.6,1.94A12.18,12.18,0,0,0,18.86,4.81c0-.19,0-.37,0-.56A8.94,8.94,0,0,0,21,2Z"/></g></g></svg>