<svg xmlns="http://www.w3.org/2000/svg" viewBox="0 0 19.13 28.58"><defs><style>.cls-1{fill:none;}.cls-1,.cls-3{stroke:#8db9e4;stroke-miterlimit:10;stroke-width:2px;}.cls-2{fill:#fff;opacity:0.5;}.cls-3{fill:#8db9e4;}</style></defs><title>Капля наполовину</title><g id="Layer_2" data-name="Layer 2"><g id="Layer_1-2" data-name="Layer 1"><path class="cls-1" d="M18,19.82c0-.25.07-.48.07-.74,0-4.69-8.5-17.29-8.5-17.29s-7.18,10.65-8.33,16C7.27,16.93,12.44,20,18,19.82Z"/><path class="cls-2" d="M1.28,17.8a6.39,6.39,0,0,0-.17,1.28A8.48,8.48,0,0,0,18,19.82C12.44,20,7.27,16.93,1.28,17.8Z"/><path class="cls-3" d="M1.28,17.8a6.39,6.39,0,0,0-.17,1.28A8.48,8.48,0,0,0,18,19.82C12.44,20,7.27,16.93,1.28,17.8Z"/></g></g></svg>