<svg xmlns="http://www.w3.org/2000/svg" viewBox="0 0 30.04 23.66"><defs><style>.cls-1{fill:#d2aaa1;}</style></defs><title>Місяць</title><g id="Layer_2" data-name="Layer 2"><g id="Layer_1-2" data-name="Layer 1"><path class="cls-1" d="M8,6.83a11.91,11.91,0,0,1,1.61-6A.56.56,0,0,0,9,0,12,12,0,1,0,20.85,19.76a.55.55,0,0,0-.44-.92H20a12,12,0,0,1-12-12Zm0,0"/><path class="cls-1" d="M15.2.48l.6,1.73,1.83,0a.24.24,0,0,1,.14.44L16.32,3.8l.53,1.75a.24.24,0,0,1-.37.27L15,4.78l-1.5,1a.24.24,0,0,1-.37-.27l.53-1.75L12.16,2.69a.25.25,0,0,1,.14-.44l1.83,0,.6-1.73a.24.24,0,0,1,.46,0Zm0,0"/><path class="cls-1" d="M26.44,14.17,27,15.84l1.76,0a.27.27,0,0,1,.16.48l-1.4,1.06L28,19.11a.27.27,0,0,1-.41.3l-1.45-1-1.45,1a.27.27,0,0,1-.41-.3l.51-1.69-1.4-1.06a.27.27,0,0,1,.16-.48l1.76,0,.58-1.66a.27.27,0,0,1,.51,0Zm0,0"/><path class="cls-1" d="M26.22,2.13l.87,2.5,2.64.06a.31.31,0,0,1,.18.56l-2.1,1.6.76,2.53a.31.31,0,0,1-.48.35L25.92,8.21,23.75,9.72a.31.31,0,0,1-.48-.35L24,6.84l-2.1-1.6a.31.31,0,0,1,.18-.56l2.64-.06.87-2.5a.31.31,0,0,1,.59,0Zm0,0"/></g></g></svg>