<svg xmlns="http://www.w3.org/2000/svg" viewBox="0 0 30.86 38.49"><defs><style>.cls-1,.cls-2,.cls-4{fill:none;stroke-miterlimit:10;}.cls-1,.cls-4{stroke:#c39dcb;}.cls-1{stroke-width:2px;}.cls-2{stroke:#fff;}.cls-3{fill:#e1d1e5;}</style></defs><title>Ресурс 14</title><g id="Слой_2" data-name="Слой 2"><g id="Layer_1" data-name="Layer 1"><path class="cls-1" d="M15.43,1a3.68,3.68,0,0,0-1,.15L1.33,5A.46.46,0,0,0,1,5.44V16.26A22.88,22.88,0,0,0,15.25,37.45a.43.43,0,0,0,.35,0,22.76,22.76,0,0,0,10.27-8.28,22.71,22.71,0,0,0,4-12.91V5.44A.47.47,0,0,0,29.53,5L16.46,1.15A3.62,3.62,0,0,0,15.43,1Z"/><path class="cls-2" d="M15.43,7.74a2.05,2.05,0,0,0-.65.1L6.54,10.27a.29.29,0,0,0-.21.27v6.82a14.44,14.44,0,0,0,9,13.36.28.28,0,0,0,.22,0,14.41,14.41,0,0,0,9-13.36V10.54a.28.28,0,0,0-.2-.27L16.08,7.84A2.05,2.05,0,0,0,15.43,7.74Z"/><path class="cls-3" d="M15.43,7.74a2.05,2.05,0,0,0-.65.1L6.54,10.27a.29.29,0,0,0-.21.27v6.82a14.44,14.44,0,0,0,9,13.36.28.28,0,0,0,.22,0,14.41,14.41,0,0,0,9-13.36V10.54a.28.28,0,0,0-.2-.27L16.08,7.84A2.05,2.05,0,0,0,15.43,7.74Z"/><path class="cls-4" d="M15.43,7.74a2.05,2.05,0,0,0-.65.1L6.54,10.27a.29.29,0,0,0-.21.27v6.82a14.44,14.44,0,0,0,9,13.36.28.28,0,0,0,.22,0,14.41,14.41,0,0,0,9-13.36V10.54a.28.28,0,0,0-.2-.27L16.08,7.84A2.05,2.05,0,0,0,15.43,7.74Z"/></g></g></svg>